%TF.GenerationSoftware,KiCad,Pcbnew,(6.0.4-0)*%
%TF.CreationDate,2022-05-25T01:46:17+02:00*%
%TF.ProjectId,decaVox,64656361-566f-4782-9e6b-696361645f70,rev?*%
%TF.SameCoordinates,Original*%
%TF.FileFunction,Soldermask,Bot*%
%TF.FilePolarity,Negative*%
%FSLAX46Y46*%
G04 Gerber Fmt 4.6, Leading zero omitted, Abs format (unit mm)*
G04 Created by KiCad (PCBNEW (6.0.4-0)) date 2022-05-25 01:46:17*
%MOMM*%
%LPD*%
G01*
G04 APERTURE LIST*
G04 Aperture macros list*
%AMRoundRect*
0 Rectangle with rounded corners*
0 $1 Rounding radius*
0 $2 $3 $4 $5 $6 $7 $8 $9 X,Y pos of 4 corners*
0 Add a 4 corners polygon primitive as box body*
4,1,4,$2,$3,$4,$5,$6,$7,$8,$9,$2,$3,0*
0 Add four circle primitives for the rounded corners*
1,1,$1+$1,$2,$3*
1,1,$1+$1,$4,$5*
1,1,$1+$1,$6,$7*
1,1,$1+$1,$8,$9*
0 Add four rect primitives between the rounded corners*
20,1,$1+$1,$2,$3,$4,$5,0*
20,1,$1+$1,$4,$5,$6,$7,0*
20,1,$1+$1,$6,$7,$8,$9,0*
20,1,$1+$1,$8,$9,$2,$3,0*%
%AMFreePoly0*
4,1,22,0.550000,-0.750000,0.000000,-0.750000,0.000000,-0.745033,-0.079941,-0.743568,-0.215256,-0.701293,-0.333266,-0.622738,-0.424486,-0.514219,-0.481581,-0.384460,-0.499164,-0.250000,-0.500000,-0.250000,-0.500000,0.250000,-0.499164,0.250000,-0.499963,0.256109,-0.478152,0.396186,-0.417904,0.524511,-0.324060,0.630769,-0.204165,0.706417,-0.067858,0.745374,0.000000,0.744959,0.000000,0.750000,
0.550000,0.750000,0.550000,-0.750000,0.550000,-0.750000,$1*%
%AMFreePoly1*
4,1,20,0.000000,0.744959,0.073905,0.744508,0.209726,0.703889,0.328688,0.626782,0.421226,0.519385,0.479903,0.390333,0.500000,0.250000,0.500000,-0.250000,0.499851,-0.262216,0.476331,-0.402017,0.414519,-0.529596,0.319384,-0.634700,0.198574,-0.708877,0.061801,-0.746166,0.000000,-0.745033,0.000000,-0.750000,-0.550000,-0.750000,-0.550000,0.750000,0.000000,0.750000,0.000000,0.744959,
0.000000,0.744959,$1*%
%AMFreePoly2*
4,1,22,0.500000,-0.750000,0.000000,-0.750000,0.000000,-0.745033,-0.079941,-0.743568,-0.215256,-0.701293,-0.333266,-0.622738,-0.424486,-0.514219,-0.481581,-0.384460,-0.499164,-0.250000,-0.500000,-0.250000,-0.500000,0.250000,-0.499164,0.250000,-0.499963,0.256109,-0.478152,0.396186,-0.417904,0.524511,-0.324060,0.630769,-0.204165,0.706417,-0.067858,0.745374,0.000000,0.744959,0.000000,0.750000,
0.500000,0.750000,0.500000,-0.750000,0.500000,-0.750000,$1*%
%AMFreePoly3*
4,1,20,0.000000,0.744959,0.073905,0.744508,0.209726,0.703889,0.328688,0.626782,0.421226,0.519385,0.479903,0.390333,0.500000,0.250000,0.500000,-0.250000,0.499851,-0.262216,0.476331,-0.402017,0.414519,-0.529596,0.319384,-0.634700,0.198574,-0.708877,0.061801,-0.746166,0.000000,-0.745033,0.000000,-0.750000,-0.500000,-0.750000,-0.500000,0.750000,0.000000,0.750000,0.000000,0.744959,
0.000000,0.744959,$1*%
G04 Aperture macros list end*
%ADD10C,2.500000*%
%ADD11C,5.600000*%
%ADD12R,1.700000X1.700000*%
%ADD13O,1.700000X1.700000*%
%ADD14C,1.346200*%
%ADD15C,1.651000*%
%ADD16C,2.260600*%
%ADD17C,1.400000*%
%ADD18C,1.200000*%
%ADD19O,1.208000X2.800000*%
%ADD20RoundRect,0.250001X1.099999X1.099999X-1.099999X1.099999X-1.099999X-1.099999X1.099999X-1.099999X0*%
%ADD21C,2.700000*%
%ADD22C,1.300000*%
%ADD23O,1.100000X1.800000*%
%ADD24C,1.600000*%
%ADD25R,4.000000X2.000000*%
%ADD26O,3.300000X2.000000*%
%ADD27O,2.000000X3.500000*%
%ADD28C,0.800000*%
%ADD29FreePoly0,180.000000*%
%ADD30R,1.000000X1.500000*%
%ADD31FreePoly1,180.000000*%
%ADD32FreePoly0,0.000000*%
%ADD33FreePoly1,0.000000*%
%ADD34FreePoly2,270.000000*%
%ADD35FreePoly3,270.000000*%
%ADD36FreePoly2,90.000000*%
%ADD37FreePoly3,90.000000*%
G04 APERTURE END LIST*
D10*
%TO.C,J18*%
X248448800Y-201662000D03*
X253448800Y-201662000D03*
%TD*%
D11*
%TO.C,H3*%
X310000000Y-108254800D03*
%TD*%
D12*
%TO.C,J5*%
X120218200Y-105994200D03*
D13*
X122758200Y-105994200D03*
X125298200Y-105994200D03*
%TD*%
D11*
%TO.C,H2*%
X310000000Y-203000000D03*
%TD*%
%TO.C,H1*%
X108000000Y-203000000D03*
%TD*%
D14*
%TO.C,J9*%
X160350200Y-115692596D03*
X162890200Y-115692596D03*
X165430200Y-115692596D03*
D15*
X160350200Y-113062596D03*
X165430200Y-113062596D03*
D16*
X160090201Y-110452596D03*
X165690199Y-110452596D03*
%TD*%
D10*
%TO.C,J11*%
X124825250Y-201664300D03*
X119825250Y-201664300D03*
%TD*%
D11*
%TO.C,H4*%
X108000000Y-108254800D03*
%TD*%
D10*
%TO.C,J13*%
X172181650Y-201664300D03*
X167181650Y-201664300D03*
%TD*%
%TO.C,J15*%
X266844950Y-201673850D03*
X261844950Y-201673850D03*
%TD*%
D12*
%TO.C,J6*%
X124000000Y-168800000D03*
D13*
X124000000Y-166260000D03*
X124000000Y-163720000D03*
%TD*%
D12*
%TO.C,J10*%
X126288800Y-142138400D03*
D13*
X123748800Y-142138400D03*
X121208800Y-142138400D03*
X118668800Y-142138400D03*
X116128800Y-142138400D03*
X113588800Y-142138400D03*
%TD*%
D17*
%TO.C,SW1*%
X301650000Y-107300000D03*
X298650000Y-107300000D03*
D18*
X295650000Y-107300000D03*
D19*
X304950000Y-107300000D03*
X292450000Y-107300000D03*
%TD*%
D12*
%TO.C,J7*%
X168800000Y-168825000D03*
D13*
X168800000Y-166285000D03*
X168800000Y-163745000D03*
%TD*%
D10*
%TO.C,J14*%
X201116050Y-201664300D03*
X206116050Y-201664300D03*
%TD*%
%TO.C,J16*%
X295779350Y-201673850D03*
X300779350Y-201673850D03*
%TD*%
D20*
%TO.C,J3*%
X283130000Y-113725000D03*
D21*
X279170000Y-113725000D03*
%TD*%
D10*
%TO.C,J12*%
X153759650Y-201664300D03*
X158759650Y-201664300D03*
%TD*%
D17*
%TO.C,SW2*%
X188827400Y-107181800D03*
X185827400Y-107181800D03*
D18*
X182827400Y-107181800D03*
D19*
X192127400Y-107181800D03*
X179627400Y-107181800D03*
%TD*%
D10*
%TO.C,J17*%
X219514400Y-201662000D03*
X214514400Y-201662000D03*
%TD*%
D22*
%TO.C,CN1*%
X135777000Y-111750000D03*
X135800000Y-106750000D03*
D23*
X140450000Y-106750000D03*
X132050000Y-111750000D03*
X131150000Y-106750000D03*
X137250000Y-114850000D03*
X134050000Y-114850000D03*
X138850000Y-112850000D03*
X140150000Y-114850000D03*
%TD*%
D24*
%TO.C,J4*%
X281150000Y-107920400D03*
D25*
X281150000Y-116920400D03*
D26*
X281150000Y-110920400D03*
D27*
X276650000Y-109920400D03*
X285650000Y-109920400D03*
%TD*%
D14*
%TO.C,J8*%
X170738800Y-115666396D03*
X173278800Y-115666396D03*
X175818800Y-115666396D03*
D15*
X170738800Y-113036396D03*
X175818800Y-113036396D03*
D16*
X170478801Y-110426396D03*
X176078799Y-110426396D03*
%TD*%
D28*
%TO.C,U14*%
X237363800Y-120614800D03*
X235363800Y-118614800D03*
X238363800Y-119614800D03*
X237363800Y-119614800D03*
X235363800Y-117614800D03*
X235363800Y-116614800D03*
X235363800Y-119614800D03*
X238363800Y-117614800D03*
X237363800Y-117614800D03*
X234363800Y-117614800D03*
X238363800Y-116614800D03*
X236363800Y-116614800D03*
X235363800Y-120614800D03*
X238363800Y-120614800D03*
X234363800Y-118614800D03*
X236363800Y-117614800D03*
X237363800Y-116614800D03*
X236363800Y-119614800D03*
X234363800Y-120614800D03*
X236363800Y-118614800D03*
X234363800Y-116614800D03*
X238363800Y-118614800D03*
X236363800Y-120614800D03*
X234363800Y-119614800D03*
X237363800Y-118614800D03*
%TD*%
D12*
%TO.C,J2*%
X267898400Y-121900000D03*
D13*
X267898400Y-124440000D03*
X267898400Y-126980000D03*
X267898400Y-129520000D03*
X267898400Y-132060000D03*
%TD*%
D29*
%TO.C,JP45*%
X132842950Y-204155800D03*
D30*
X131542950Y-204155800D03*
D31*
X130242950Y-204155800D03*
%TD*%
D32*
%TO.C,JP50*%
X224927500Y-201613500D03*
D30*
X226227500Y-201613500D03*
D33*
X227527500Y-201613500D03*
%TD*%
D34*
%TO.C,JP27*%
X212598000Y-109088400D03*
D35*
X212598000Y-110388400D03*
%TD*%
D32*
%TO.C,JP48*%
X272258050Y-201625350D03*
D30*
X273558050Y-201625350D03*
D33*
X274858050Y-201625350D03*
%TD*%
D34*
%TO.C,JP25*%
X202285600Y-112460800D03*
D35*
X202285600Y-113760800D03*
%TD*%
D36*
%TO.C,JP54*%
X161010600Y-182524700D03*
D37*
X161010600Y-181224700D03*
%TD*%
D32*
%TO.C,JP46*%
X177594750Y-201615800D03*
D30*
X178894750Y-201615800D03*
D33*
X180194750Y-201615800D03*
%TD*%
D34*
%TO.C,JP26*%
X212598000Y-112451600D03*
D35*
X212598000Y-113751600D03*
%TD*%
D36*
%TO.C,JP55*%
X163550600Y-182550100D03*
D37*
X163550600Y-181250100D03*
%TD*%
D36*
%TO.C,JP52*%
X116357400Y-182499300D03*
D37*
X116357400Y-181199300D03*
%TD*%
D36*
%TO.C,JP57*%
X258851400Y-168772600D03*
D37*
X258851400Y-167472600D03*
%TD*%
D34*
%TO.C,JP24*%
X202285600Y-109128800D03*
D35*
X202285600Y-110428800D03*
%TD*%
D36*
%TO.C,JP53*%
X118897400Y-182524700D03*
D37*
X118897400Y-181224700D03*
%TD*%
D32*
%TO.C,JP44*%
X130238350Y-201615800D03*
D30*
X131538350Y-201615800D03*
D33*
X132838350Y-201615800D03*
%TD*%
D29*
%TO.C,JP51*%
X227532100Y-204153500D03*
D30*
X226232100Y-204153500D03*
D31*
X224932100Y-204153500D03*
%TD*%
D29*
%TO.C,JP49*%
X274862650Y-204165350D03*
D30*
X273562650Y-204165350D03*
D31*
X272262650Y-204165350D03*
%TD*%
D29*
%TO.C,JP47*%
X180199350Y-204155800D03*
D30*
X178899350Y-204155800D03*
D31*
X177599350Y-204155800D03*
%TD*%
D36*
%TO.C,JP58*%
X208965800Y-168721800D03*
D37*
X208965800Y-167421800D03*
%TD*%
D36*
%TO.C,JP56*%
X256311400Y-168747200D03*
D37*
X256311400Y-167447200D03*
%TD*%
D36*
%TO.C,JP59*%
X211505800Y-168747200D03*
D37*
X211505800Y-167447200D03*
%TD*%
M02*
