%TF.GenerationSoftware,KiCad,Pcbnew,(6.0.4-0)*%
%TF.CreationDate,2022-05-25T01:46:17+02:00*%
%TF.ProjectId,decaVox,64656361-566f-4782-9e6b-696361645f70,rev?*%
%TF.SameCoordinates,Original*%
%TF.FileFunction,Paste,Top*%
%TF.FilePolarity,Positive*%
%FSLAX46Y46*%
G04 Gerber Fmt 4.6, Leading zero omitted, Abs format (unit mm)*
G04 Created by KiCad (PCBNEW (6.0.4-0)) date 2022-05-25 01:46:17*
%MOMM*%
%LPD*%
G01*
G04 APERTURE LIST*
G04 Aperture macros list*
%AMRoundRect*
0 Rectangle with rounded corners*
0 $1 Rounding radius*
0 $2 $3 $4 $5 $6 $7 $8 $9 X,Y pos of 4 corners*
0 Add a 4 corners polygon primitive as box body*
4,1,4,$2,$3,$4,$5,$6,$7,$8,$9,$2,$3,0*
0 Add four circle primitives for the rounded corners*
1,1,$1+$1,$2,$3*
1,1,$1+$1,$4,$5*
1,1,$1+$1,$6,$7*
1,1,$1+$1,$8,$9*
0 Add four rect primitives between the rounded corners*
20,1,$1+$1,$2,$3,$4,$5,0*
20,1,$1+$1,$4,$5,$6,$7,0*
20,1,$1+$1,$6,$7,$8,$9,0*
20,1,$1+$1,$8,$9,$2,$3,0*%
G04 Aperture macros list end*
%ADD10RoundRect,0.200000X-0.275000X0.200000X-0.275000X-0.200000X0.275000X-0.200000X0.275000X0.200000X0*%
%ADD11R,2.500000X2.300000*%
%ADD12R,0.450000X0.600000*%
%ADD13RoundRect,0.200000X-0.200000X-0.275000X0.200000X-0.275000X0.200000X0.275000X-0.200000X0.275000X0*%
%ADD14RoundRect,0.250000X-0.650000X0.325000X-0.650000X-0.325000X0.650000X-0.325000X0.650000X0.325000X0*%
%ADD15RoundRect,0.225000X0.225000X0.250000X-0.225000X0.250000X-0.225000X-0.250000X0.225000X-0.250000X0*%
%ADD16R,1.498600X2.489200*%
%ADD17RoundRect,0.250000X0.475000X-0.250000X0.475000X0.250000X-0.475000X0.250000X-0.475000X-0.250000X0*%
%ADD18RoundRect,0.250000X0.250000X0.475000X-0.250000X0.475000X-0.250000X-0.475000X0.250000X-0.475000X0*%
%ADD19RoundRect,0.225000X0.250000X-0.225000X0.250000X0.225000X-0.250000X0.225000X-0.250000X-0.225000X0*%
%ADD20RoundRect,0.250000X-0.312500X-0.275000X0.312500X-0.275000X0.312500X0.275000X-0.312500X0.275000X0*%
%ADD21RoundRect,0.100000X0.100000X-0.637500X0.100000X0.637500X-0.100000X0.637500X-0.100000X-0.637500X0*%
%ADD22RoundRect,0.225000X-0.225000X-0.250000X0.225000X-0.250000X0.225000X0.250000X-0.225000X0.250000X0*%
%ADD23RoundRect,0.150000X-0.512500X-0.150000X0.512500X-0.150000X0.512500X0.150000X-0.512500X0.150000X0*%
%ADD24RoundRect,0.218750X-0.218750X-0.256250X0.218750X-0.256250X0.218750X0.256250X-0.218750X0.256250X0*%
%ADD25RoundRect,0.020500X-0.799500X-0.184500X0.799500X-0.184500X0.799500X0.184500X-0.799500X0.184500X0*%
%ADD26RoundRect,0.250000X-0.475000X0.250000X-0.475000X-0.250000X0.475000X-0.250000X0.475000X0.250000X0*%
%ADD27RoundRect,0.225000X-0.250000X0.225000X-0.250000X-0.225000X0.250000X-0.225000X0.250000X0.225000X0*%
%ADD28RoundRect,0.200000X0.200000X0.275000X-0.200000X0.275000X-0.200000X-0.275000X0.200000X-0.275000X0*%
%ADD29RoundRect,0.250000X1.500000X1.000000X-1.500000X1.000000X-1.500000X-1.000000X1.500000X-1.000000X0*%
%ADD30RoundRect,0.250000X1.050000X0.550000X-1.050000X0.550000X-1.050000X-0.550000X1.050000X-0.550000X0*%
%ADD31RoundRect,0.250000X0.550000X-1.050000X0.550000X1.050000X-0.550000X1.050000X-0.550000X-1.050000X0*%
%ADD32RoundRect,0.250000X-1.500000X-1.000000X1.500000X-1.000000X1.500000X1.000000X-1.500000X1.000000X0*%
%ADD33RoundRect,0.250000X-0.550000X1.050000X-0.550000X-1.050000X0.550000X-1.050000X0.550000X1.050000X0*%
%ADD34RoundRect,0.200000X0.275000X-0.200000X0.275000X0.200000X-0.275000X0.200000X-0.275000X-0.200000X0*%
%ADD35RoundRect,0.250000X-1.050000X-0.550000X1.050000X-0.550000X1.050000X0.550000X-1.050000X0.550000X0*%
%ADD36RoundRect,0.250000X0.312500X0.275000X-0.312500X0.275000X-0.312500X-0.275000X0.312500X-0.275000X0*%
%ADD37R,1.800000X3.500000*%
%ADD38R,1.600000X2.200000*%
%ADD39RoundRect,0.218750X-0.256250X0.218750X-0.256250X-0.218750X0.256250X-0.218750X0.256250X0.218750X0*%
%ADD40R,1.100000X0.250000*%
%ADD41R,2.200000X1.600000*%
%ADD42RoundRect,0.250000X-0.250000X-0.475000X0.250000X-0.475000X0.250000X0.475000X-0.250000X0.475000X0*%
%ADD43RoundRect,0.250000X0.277694X0.277694X-0.277694X0.277694X-0.277694X-0.277694X0.277694X-0.277694X0*%
%ADD44RoundRect,0.075000X0.362500X0.075000X-0.362500X0.075000X-0.362500X-0.075000X0.362500X-0.075000X0*%
%ADD45RoundRect,0.075000X0.075000X0.362500X-0.075000X0.362500X-0.075000X-0.362500X0.075000X-0.362500X0*%
%ADD46RoundRect,0.150000X0.725000X0.150000X-0.725000X0.150000X-0.725000X-0.150000X0.725000X-0.150000X0*%
%ADD47R,0.700000X1.000000*%
%ADD48RoundRect,0.075000X-0.075000X0.662500X-0.075000X-0.662500X0.075000X-0.662500X0.075000X0.662500X0*%
%ADD49RoundRect,0.075000X-0.662500X0.075000X-0.662500X-0.075000X0.662500X-0.075000X0.662500X0.075000X0*%
%ADD50R,2.700000X3.600000*%
%ADD51RoundRect,0.150000X0.150000X-0.825000X0.150000X0.825000X-0.150000X0.825000X-0.150000X-0.825000X0*%
%ADD52RoundRect,0.100000X-0.637500X-0.100000X0.637500X-0.100000X0.637500X0.100000X-0.637500X0.100000X0*%
%ADD53R,0.250000X1.100000*%
%ADD54RoundRect,0.150000X0.150000X-0.725000X0.150000X0.725000X-0.150000X0.725000X-0.150000X-0.725000X0*%
%ADD55RoundRect,0.150000X-0.825000X-0.150000X0.825000X-0.150000X0.825000X0.150000X-0.825000X0.150000X0*%
%ADD56RoundRect,0.150000X-0.150000X0.587500X-0.150000X-0.587500X0.150000X-0.587500X0.150000X0.587500X0*%
%ADD57R,0.900000X1.200000*%
%ADD58RoundRect,0.150000X-0.150000X0.875000X-0.150000X-0.875000X0.150000X-0.875000X0.150000X0.875000X0*%
%ADD59RoundRect,0.125000X0.125000X0.375000X-0.125000X0.375000X-0.125000X-0.375000X0.125000X-0.375000X0*%
%ADD60RoundRect,0.250000X0.350000X0.600000X-0.350000X0.600000X-0.350000X-0.600000X0.350000X-0.600000X0*%
%ADD61RoundRect,0.218750X0.256250X-0.218750X0.256250X0.218750X-0.256250X0.218750X-0.256250X-0.218750X0*%
%ADD62O,3.000000X0.900000*%
%ADD63R,5.000000X5.000000*%
%ADD64RoundRect,0.250000X-0.275000X0.312500X-0.275000X-0.312500X0.275000X-0.312500X0.275000X0.312500X0*%
G04 APERTURE END LIST*
D10*
%TO.C,R7*%
X293400000Y-140575000D03*
X293400000Y-142225000D03*
%TD*%
D11*
%TO.C,D7*%
X290700000Y-134500000D03*
X286400000Y-134500000D03*
%TD*%
D12*
%TO.C,D3*%
X286200000Y-145700000D03*
X286200000Y-147800000D03*
%TD*%
D13*
%TO.C,R39*%
X115698000Y-134924800D03*
X117348000Y-134924800D03*
%TD*%
D14*
%TO.C,FB18*%
X218233600Y-193276400D03*
X218233600Y-196226400D03*
%TD*%
D15*
%TO.C,C222*%
X255092200Y-154127200D03*
X253542200Y-154127200D03*
%TD*%
D16*
%TO.C,L6*%
X282750000Y-124548800D03*
X282750000Y-131051200D03*
X279750000Y-124548800D03*
X279750000Y-131051200D03*
%TD*%
D14*
%TO.C,FB16*%
X215896800Y-193278200D03*
X215896800Y-196228200D03*
%TD*%
D17*
%TO.C,C145*%
X270154450Y-191221550D03*
X270154450Y-189321550D03*
%TD*%
D18*
%TO.C,C108*%
X183868150Y-202682600D03*
X181968150Y-202682600D03*
%TD*%
D19*
%TO.C,C214*%
X162433000Y-163743100D03*
X162433000Y-162193100D03*
%TD*%
D13*
%TO.C,R67*%
X255930400Y-155727400D03*
X257580400Y-155727400D03*
%TD*%
D20*
%TO.C,C57*%
X130098800Y-123926600D03*
X131873800Y-123926600D03*
%TD*%
D19*
%TO.C,C94*%
X141222850Y-167221900D03*
X141222850Y-165671900D03*
%TD*%
D21*
%TO.C,U8*%
X177816800Y-125925500D03*
X178466800Y-125925500D03*
X179116800Y-125925500D03*
X179766800Y-125925500D03*
X180416800Y-125925500D03*
X181066800Y-125925500D03*
X181716800Y-125925500D03*
X182366800Y-125925500D03*
X183016800Y-125925500D03*
X183666800Y-125925500D03*
X184316800Y-125925500D03*
X184966800Y-125925500D03*
X185616800Y-125925500D03*
X186266800Y-125925500D03*
X186266800Y-120200500D03*
X185616800Y-120200500D03*
X184966800Y-120200500D03*
X184316800Y-120200500D03*
X183666800Y-120200500D03*
X183016800Y-120200500D03*
X182366800Y-120200500D03*
X181716800Y-120200500D03*
X181066800Y-120200500D03*
X180416800Y-120200500D03*
X179766800Y-120200500D03*
X179116800Y-120200500D03*
X178466800Y-120200500D03*
X177816800Y-120200500D03*
%TD*%
D17*
%TO.C,C151*%
X274193050Y-197241350D03*
X274193050Y-195341350D03*
%TD*%
D22*
%TO.C,C146*%
X289013650Y-193294150D03*
X290563650Y-193294150D03*
%TD*%
D17*
%TO.C,C81*%
X130166750Y-191212000D03*
X130166750Y-189312000D03*
%TD*%
D23*
%TO.C,U4*%
X111258850Y-146354800D03*
X111258850Y-147304800D03*
X111258850Y-148254800D03*
X113533850Y-148254800D03*
X113533850Y-146354800D03*
%TD*%
D24*
%TO.C,FB23*%
X210616800Y-154152600D03*
X212191800Y-154152600D03*
%TD*%
D14*
%TO.C,FB19*%
X249780400Y-193330800D03*
X249780400Y-196280800D03*
%TD*%
D25*
%TO.C,U17*%
X115144800Y-178585400D03*
X115144800Y-179220400D03*
X115144800Y-179855400D03*
X115144800Y-180490400D03*
X115144800Y-181125400D03*
X115144800Y-181760400D03*
X115144800Y-182395400D03*
X115144800Y-183030400D03*
X120414800Y-183030400D03*
X120414800Y-182395400D03*
X120414800Y-181760400D03*
X120414800Y-181125400D03*
X120414800Y-180490400D03*
X120414800Y-179855400D03*
X120414800Y-179220400D03*
X120414800Y-178585400D03*
%TD*%
D26*
%TO.C,C242*%
X291642800Y-140199800D03*
X291642800Y-142099800D03*
%TD*%
D27*
%TO.C,C73*%
X138066150Y-201387200D03*
X138066150Y-202937200D03*
%TD*%
D22*
%TO.C,C37*%
X119912600Y-111277400D03*
X121462600Y-111277400D03*
%TD*%
D19*
%TO.C,C243*%
X280720800Y-144539000D03*
X280720800Y-142989000D03*
%TD*%
D17*
%TO.C,C130*%
X290474450Y-191221550D03*
X290474450Y-189321550D03*
%TD*%
D28*
%TO.C,R47*%
X147116800Y-157378400D03*
X145466800Y-157378400D03*
%TD*%
D10*
%TO.C,R78*%
X289864800Y-140348200D03*
X289864800Y-141998200D03*
%TD*%
D15*
%TO.C,C150*%
X273672650Y-193294150D03*
X272122650Y-193294150D03*
%TD*%
D24*
%TO.C,FB3*%
X161213800Y-119558600D03*
X162788800Y-119558600D03*
%TD*%
D19*
%TO.C,C18*%
X157276800Y-188520000D03*
X157276800Y-186970000D03*
%TD*%
D15*
%TO.C,C82*%
X131652950Y-193284600D03*
X130102950Y-193284600D03*
%TD*%
D13*
%TO.C,R66*%
X255930400Y-152501600D03*
X257580400Y-152501600D03*
%TD*%
%TO.C,R19*%
X154165800Y-178587400D03*
X155815800Y-178587400D03*
%TD*%
D29*
%TO.C,C120*%
X198036750Y-180125100D03*
X191536750Y-180125100D03*
%TD*%
D27*
%TO.C,C104*%
X190121550Y-201361200D03*
X190121550Y-202911200D03*
%TD*%
D28*
%TO.C,R44*%
X288893550Y-187145050D03*
X287243550Y-187145050D03*
%TD*%
D30*
%TO.C,C27*%
X147011800Y-120320600D03*
X143411800Y-120320600D03*
%TD*%
D31*
%TO.C,C6*%
X286461200Y-161210400D03*
X286461200Y-157610400D03*
%TD*%
D27*
%TO.C,C39*%
X125589800Y-112737600D03*
X125589800Y-114287600D03*
%TD*%
D32*
%TO.C,C153*%
X286190150Y-171250000D03*
X292690150Y-171250000D03*
%TD*%
D22*
%TO.C,C8*%
X200342200Y-132232400D03*
X201892200Y-132232400D03*
%TD*%
D33*
%TO.C,C200*%
X113512600Y-156782900D03*
X113512600Y-160382900D03*
%TD*%
D14*
%TO.C,FB14*%
X265564150Y-193288250D03*
X265564150Y-196238250D03*
%TD*%
D19*
%TO.C,C160*%
X301400000Y-196400000D03*
X301400000Y-194850000D03*
%TD*%
D29*
%TO.C,C121*%
X181750000Y-171300000D03*
X175250000Y-171300000D03*
%TD*%
D34*
%TO.C,R75*%
X149479000Y-131598200D03*
X149479000Y-129948200D03*
%TD*%
D17*
%TO.C,C149*%
X272186450Y-191221550D03*
X272186450Y-189321550D03*
%TD*%
D19*
%TO.C,C157*%
X267494550Y-196363450D03*
X267494550Y-194813450D03*
%TD*%
D22*
%TO.C,C197*%
X223049800Y-114050000D03*
X224599800Y-114050000D03*
%TD*%
D14*
%TO.C,FB5*%
X157428050Y-193331300D03*
X157428050Y-196281300D03*
%TD*%
D35*
%TO.C,C230*%
X192865600Y-158496000D03*
X196465600Y-158496000D03*
%TD*%
D19*
%TO.C,C14*%
X115342750Y-148079800D03*
X115342750Y-146529800D03*
%TD*%
D36*
%TO.C,C43*%
X127378000Y-122351800D03*
X125603000Y-122351800D03*
%TD*%
D15*
%TO.C,C2*%
X292481600Y-156967850D03*
X290931600Y-156967850D03*
%TD*%
D10*
%TO.C,R68*%
X215692200Y-163361000D03*
X215692200Y-165011000D03*
%TD*%
D34*
%TO.C,R30*%
X152882600Y-115519000D03*
X152882600Y-113869000D03*
%TD*%
D17*
%TO.C,C77*%
X128134750Y-191212000D03*
X128134750Y-189312000D03*
%TD*%
D22*
%TO.C,C67*%
X144237750Y-199355200D03*
X145787750Y-199355200D03*
%TD*%
D19*
%TO.C,C199*%
X237998000Y-138849400D03*
X237998000Y-137299400D03*
%TD*%
D37*
%TO.C,L3*%
X186648850Y-169136700D03*
X186648850Y-173536700D03*
%TD*%
D38*
%TO.C,C216*%
X160553400Y-164753700D03*
X160553400Y-167753700D03*
%TD*%
D27*
%TO.C,C10*%
X263906000Y-137692800D03*
X263906000Y-139242800D03*
%TD*%
D10*
%TO.C,R65*%
X254508000Y-155664400D03*
X254508000Y-157314400D03*
%TD*%
D19*
%TO.C,C144*%
X275127850Y-202451150D03*
X275127850Y-200901150D03*
%TD*%
D15*
%TO.C,C38*%
X118084600Y-120421400D03*
X116534600Y-120421400D03*
%TD*%
%TO.C,C133*%
X290659350Y-185265450D03*
X289109350Y-185265450D03*
%TD*%
D34*
%TO.C,R20*%
X206314600Y-181089200D03*
X206314600Y-179439200D03*
%TD*%
D15*
%TO.C,C19*%
X110182700Y-178155600D03*
X108632700Y-178155600D03*
%TD*%
D17*
%TO.C,C62*%
X148454750Y-191212000D03*
X148454750Y-189312000D03*
%TD*%
D39*
%TO.C,FB20*%
X117856000Y-174534100D03*
X117856000Y-176109100D03*
%TD*%
D13*
%TO.C,R38*%
X115673600Y-137972800D03*
X117323600Y-137972800D03*
%TD*%
D33*
%TO.C,C203*%
X122047000Y-156757500D03*
X122047000Y-160357500D03*
%TD*%
D22*
%TO.C,C36*%
X124078200Y-111252000D03*
X125628200Y-111252000D03*
%TD*%
D10*
%TO.C,R9*%
X302006000Y-157835600D03*
X302006000Y-159485600D03*
%TD*%
D17*
%TO.C,C95*%
X193779150Y-197231800D03*
X193779150Y-195331800D03*
%TD*%
D14*
%TO.C,FB8*%
X168564050Y-193280500D03*
X168564050Y-196230500D03*
%TD*%
D35*
%TO.C,C233*%
X192840200Y-149961600D03*
X196440200Y-149961600D03*
%TD*%
D13*
%TO.C,R22*%
X208664600Y-173685600D03*
X210314600Y-173685600D03*
%TD*%
D10*
%TO.C,R27*%
X211750200Y-172098600D03*
X211750200Y-173748600D03*
%TD*%
D19*
%TO.C,C212*%
X162483800Y-170470100D03*
X162483800Y-168920100D03*
%TD*%
D17*
%TO.C,C84*%
X132173350Y-191212000D03*
X132173350Y-189312000D03*
%TD*%
D13*
%TO.C,R29*%
X143104600Y-117069400D03*
X144754600Y-117069400D03*
%TD*%
D32*
%TO.C,C88*%
X127914450Y-180175900D03*
X134414450Y-180175900D03*
%TD*%
D40*
%TO.C,U22*%
X191956800Y-153228800D03*
X191956800Y-153728800D03*
X191956800Y-154228800D03*
X191956800Y-154728800D03*
X191956800Y-155228800D03*
X196256800Y-155228800D03*
X196256800Y-154728800D03*
X196256800Y-154228800D03*
X196256800Y-153728800D03*
X196256800Y-153228800D03*
%TD*%
D10*
%TO.C,R21*%
X206314600Y-176404400D03*
X206314600Y-178054400D03*
%TD*%
D34*
%TO.C,R28*%
X182651600Y-129629200D03*
X182651600Y-127979200D03*
%TD*%
D41*
%TO.C,C226*%
X249375800Y-156057600D03*
X252375800Y-156057600D03*
%TD*%
D27*
%TO.C,C50*%
X108610400Y-130185900D03*
X108610400Y-131735900D03*
%TD*%
D30*
%TO.C,C28*%
X147011800Y-125908600D03*
X143411800Y-125908600D03*
%TD*%
D28*
%TO.C,R36*%
X121524800Y-115773200D03*
X119874800Y-115773200D03*
%TD*%
D14*
%TO.C,FB10*%
X170900850Y-193278700D03*
X170900850Y-196228700D03*
%TD*%
D29*
%TO.C,C154*%
X292700050Y-180134650D03*
X286200050Y-180134650D03*
%TD*%
D14*
%TO.C,FB7*%
X155091250Y-193333100D03*
X155091250Y-196283100D03*
%TD*%
D22*
%TO.C,C101*%
X191594150Y-199355200D03*
X193144150Y-199355200D03*
%TD*%
D17*
%TO.C,C132*%
X288442450Y-191221550D03*
X288442450Y-189321550D03*
%TD*%
D15*
%TO.C,C207*%
X115989400Y-177226500D03*
X114439400Y-177226500D03*
%TD*%
D34*
%TO.C,R64*%
X254508000Y-152576800D03*
X254508000Y-150926800D03*
%TD*%
D14*
%TO.C,FB12*%
X263227350Y-193290050D03*
X263227350Y-196240050D03*
%TD*%
D15*
%TO.C,C227*%
X255943400Y-163474400D03*
X254393400Y-163474400D03*
%TD*%
D38*
%TO.C,C205*%
X119761000Y-164728300D03*
X119761000Y-167728300D03*
%TD*%
D22*
%TO.C,C4*%
X294728600Y-159207200D03*
X296278600Y-159207200D03*
%TD*%
%TO.C,C56*%
X129984200Y-122250200D03*
X131534200Y-122250200D03*
%TD*%
D27*
%TO.C,C139*%
X283083050Y-201383750D03*
X283083050Y-202933750D03*
%TD*%
%TO.C,C127*%
X188579250Y-175489300D03*
X188579250Y-177039300D03*
%TD*%
D17*
%TO.C,C98*%
X193779150Y-191212000D03*
X193779150Y-189312000D03*
%TD*%
D19*
%TO.C,C194*%
X254050000Y-196391800D03*
X254050000Y-194841800D03*
%TD*%
D27*
%TO.C,C15*%
X111887000Y-183349600D03*
X111887000Y-184899600D03*
%TD*%
D15*
%TO.C,C58*%
X131559600Y-127457200D03*
X130009600Y-127457200D03*
%TD*%
%TO.C,C20*%
X155765800Y-177088800D03*
X154215800Y-177088800D03*
%TD*%
D28*
%TO.C,R31*%
X125678200Y-109728000D03*
X124028200Y-109728000D03*
%TD*%
D10*
%TO.C,R50*%
X123083800Y-177138500D03*
X123083800Y-178788500D03*
%TD*%
%TO.C,R51*%
X123088400Y-180147500D03*
X123088400Y-181797500D03*
%TD*%
D22*
%TO.C,C46*%
X125753300Y-120675400D03*
X127303300Y-120675400D03*
%TD*%
D19*
%TO.C,C92*%
X159350000Y-196394100D03*
X159350000Y-194844100D03*
%TD*%
D23*
%TO.C,U1*%
X290569100Y-158557850D03*
X290569100Y-159507850D03*
X290569100Y-160457850D03*
X292844100Y-160457850D03*
X292844100Y-159507850D03*
X292844100Y-158557850D03*
%TD*%
D22*
%TO.C,C180*%
X241683100Y-193282300D03*
X243233100Y-193282300D03*
%TD*%
D10*
%TO.C,R54*%
X119456200Y-171282900D03*
X119456200Y-172932900D03*
%TD*%
D15*
%TO.C,C116*%
X179009350Y-193250000D03*
X177459350Y-193250000D03*
%TD*%
D32*
%TO.C,C156*%
X269934150Y-180185450D03*
X276434150Y-180185450D03*
%TD*%
D15*
%TO.C,C237*%
X208597800Y-163449000D03*
X207047800Y-163449000D03*
%TD*%
D22*
%TO.C,C52*%
X123875000Y-134289800D03*
X125425000Y-134289800D03*
%TD*%
D29*
%TO.C,C155*%
X276434150Y-171300000D03*
X269934150Y-171300000D03*
%TD*%
D39*
%TO.C,D6*%
X144297800Y-129977400D03*
X144297800Y-131552400D03*
%TD*%
D17*
%TO.C,C147*%
X292481050Y-191206350D03*
X292481050Y-189306350D03*
%TD*%
D42*
%TO.C,C69*%
X144289150Y-202631800D03*
X146189150Y-202631800D03*
%TD*%
D10*
%TO.C,R56*%
X167737000Y-177163900D03*
X167737000Y-178813900D03*
%TD*%
D15*
%TO.C,C184*%
X226342100Y-193250000D03*
X224792100Y-193250000D03*
%TD*%
D10*
%TO.C,R10*%
X296000000Y-111000000D03*
X296000000Y-112650000D03*
%TD*%
D15*
%TO.C,C240*%
X281276000Y-122161200D03*
X279726000Y-122161200D03*
%TD*%
D41*
%TO.C,C225*%
X249375800Y-152196800D03*
X252375800Y-152196800D03*
%TD*%
D10*
%TO.C,R14*%
X261077000Y-179927800D03*
X261077000Y-181577800D03*
%TD*%
D34*
%TO.C,R23*%
X122199400Y-187933600D03*
X122199400Y-186283600D03*
%TD*%
D15*
%TO.C,C201*%
X114731800Y-154417300D03*
X113181800Y-154417300D03*
%TD*%
D17*
%TO.C,C113*%
X197817750Y-191196800D03*
X197817750Y-189296800D03*
%TD*%
D19*
%TO.C,C124*%
X166633650Y-196341500D03*
X166633650Y-194791500D03*
%TD*%
%TO.C,C110*%
X180464550Y-202441600D03*
X180464550Y-200891600D03*
%TD*%
D43*
%TO.C,U11*%
X187269650Y-190920350D03*
X187269650Y-194632850D03*
X184794650Y-194632850D03*
X184794650Y-192157850D03*
X186032150Y-193395350D03*
X188507150Y-194632850D03*
X186032150Y-192157850D03*
X187269650Y-193395350D03*
X188507150Y-193395350D03*
X184794650Y-190920350D03*
X187269650Y-192157850D03*
X184794650Y-193395350D03*
X186032150Y-194632850D03*
X186032150Y-190920350D03*
X188507150Y-190920350D03*
X188507150Y-192157850D03*
D44*
X191088400Y-196526600D03*
X191088400Y-196026600D03*
X191088400Y-195526600D03*
X191088400Y-195026600D03*
X191088400Y-194526600D03*
X191088400Y-194026600D03*
X191088400Y-193526600D03*
X191088400Y-193026600D03*
X191088400Y-192526600D03*
X191088400Y-192026600D03*
X191088400Y-191526600D03*
X191088400Y-191026600D03*
X191088400Y-190526600D03*
X191088400Y-190026600D03*
X191088400Y-189526600D03*
X191088400Y-189026600D03*
D45*
X190400900Y-188339100D03*
X189900900Y-188339100D03*
X189400900Y-188339100D03*
X188900900Y-188339100D03*
X188400900Y-188339100D03*
X187900900Y-188339100D03*
X187400900Y-188339100D03*
X186900900Y-188339100D03*
X186400900Y-188339100D03*
X185900900Y-188339100D03*
X185400900Y-188339100D03*
X184900900Y-188339100D03*
X184400900Y-188339100D03*
X183900900Y-188339100D03*
X183400900Y-188339100D03*
X182900900Y-188339100D03*
D44*
X182213400Y-189026600D03*
X182213400Y-189526600D03*
X182213400Y-190026600D03*
X182213400Y-190526600D03*
X182213400Y-191026600D03*
X182213400Y-191526600D03*
X182213400Y-192026600D03*
X182213400Y-192526600D03*
X182213400Y-193026600D03*
X182213400Y-193526600D03*
X182213400Y-194026600D03*
X182213400Y-194526600D03*
X182213400Y-195026600D03*
X182213400Y-195526600D03*
X182213400Y-196026600D03*
X182213400Y-196526600D03*
D45*
X182900900Y-197214100D03*
X183400900Y-197214100D03*
X183900900Y-197214100D03*
X184400900Y-197214100D03*
X184900900Y-197214100D03*
X185400900Y-197214100D03*
X185900900Y-197214100D03*
X186400900Y-197214100D03*
X186900900Y-197214100D03*
X187400900Y-197214100D03*
X187900900Y-197214100D03*
X188400900Y-197214100D03*
X188900900Y-197214100D03*
X189400900Y-197214100D03*
X189900900Y-197214100D03*
X190400900Y-197214100D03*
%TD*%
D39*
%TO.C,FB21*%
X162509200Y-174559500D03*
X162509200Y-176134500D03*
%TD*%
D13*
%TO.C,R17*%
X256506000Y-174365000D03*
X258156000Y-174365000D03*
%TD*%
D46*
%TO.C,Q4*%
X287817000Y-141452600D03*
X287817000Y-140182600D03*
X287817000Y-138912600D03*
X287817000Y-137642600D03*
X282667000Y-137642600D03*
X282667000Y-138912600D03*
X282667000Y-140182600D03*
X282667000Y-141452600D03*
%TD*%
D38*
%TO.C,C215*%
X164414200Y-164753700D03*
X164414200Y-167753700D03*
%TD*%
D19*
%TO.C,C26*%
X152900000Y-129650000D03*
X152900000Y-128100000D03*
%TD*%
D13*
%TO.C,R72*%
X207365600Y-152552400D03*
X209015600Y-152552400D03*
%TD*%
D27*
%TO.C,C24*%
X206314600Y-173418600D03*
X206314600Y-174968600D03*
%TD*%
D37*
%TO.C,L2*%
X139292450Y-169136700D03*
X139292450Y-173536700D03*
%TD*%
D19*
%TO.C,C106*%
X186921150Y-202924800D03*
X186921150Y-201374800D03*
%TD*%
D22*
%TO.C,C44*%
X125766300Y-117627400D03*
X127316300Y-117627400D03*
%TD*%
D13*
%TO.C,R52*%
X119381000Y-169860500D03*
X121031000Y-169860500D03*
%TD*%
D22*
%TO.C,C112*%
X194350350Y-193284600D03*
X195900350Y-193284600D03*
%TD*%
D10*
%TO.C,R6*%
X239495880Y-137250136D03*
X239495880Y-138900136D03*
%TD*%
D27*
%TO.C,C13*%
X261077000Y-176942800D03*
X261077000Y-178492800D03*
%TD*%
%TO.C,C29*%
X180670200Y-115938000D03*
X180670200Y-117488000D03*
%TD*%
D14*
%TO.C,FB11*%
X202447650Y-193333100D03*
X202447650Y-196283100D03*
%TD*%
D10*
%TO.C,R11*%
X263906000Y-132880600D03*
X263906000Y-134530600D03*
%TD*%
D19*
%TO.C,C193*%
X247850000Y-196391800D03*
X247850000Y-194841800D03*
%TD*%
D28*
%TO.C,R43*%
X194230250Y-187135500D03*
X192580250Y-187135500D03*
%TD*%
D17*
%TO.C,C181*%
X245150500Y-191194500D03*
X245150500Y-189294500D03*
%TD*%
D19*
%TO.C,C140*%
X281584450Y-202934350D03*
X281584450Y-201384350D03*
%TD*%
D15*
%TO.C,C211*%
X159385000Y-154442700D03*
X157835000Y-154442700D03*
%TD*%
D47*
%TO.C,Q3*%
X147802600Y-132157000D03*
X145902600Y-132157000D03*
X146852600Y-134557000D03*
%TD*%
D19*
%TO.C,C17*%
X111861600Y-189725600D03*
X111861600Y-188175600D03*
%TD*%
D28*
%TO.C,R42*%
X146873850Y-187135500D03*
X145223850Y-187135500D03*
%TD*%
D22*
%TO.C,C169*%
X238926900Y-199352900D03*
X240476900Y-199352900D03*
%TD*%
D36*
%TO.C,C45*%
X114945900Y-122097800D03*
X113170900Y-122097800D03*
%TD*%
D43*
%TO.C,U13*%
X233364900Y-193393050D03*
X235839900Y-192155550D03*
X233364900Y-194630550D03*
X232127400Y-193393050D03*
X234602400Y-193393050D03*
X235839900Y-190918050D03*
X234602400Y-192155550D03*
X234602400Y-194630550D03*
X235839900Y-193393050D03*
X232127400Y-192155550D03*
X232127400Y-194630550D03*
X234602400Y-190918050D03*
X235839900Y-194630550D03*
X232127400Y-190918050D03*
X233364900Y-190918050D03*
X233364900Y-192155550D03*
D44*
X238421150Y-196524300D03*
X238421150Y-196024300D03*
X238421150Y-195524300D03*
X238421150Y-195024300D03*
X238421150Y-194524300D03*
X238421150Y-194024300D03*
X238421150Y-193524300D03*
X238421150Y-193024300D03*
X238421150Y-192524300D03*
X238421150Y-192024300D03*
X238421150Y-191524300D03*
X238421150Y-191024300D03*
X238421150Y-190524300D03*
X238421150Y-190024300D03*
X238421150Y-189524300D03*
X238421150Y-189024300D03*
D45*
X237733650Y-188336800D03*
X237233650Y-188336800D03*
X236733650Y-188336800D03*
X236233650Y-188336800D03*
X235733650Y-188336800D03*
X235233650Y-188336800D03*
X234733650Y-188336800D03*
X234233650Y-188336800D03*
X233733650Y-188336800D03*
X233233650Y-188336800D03*
X232733650Y-188336800D03*
X232233650Y-188336800D03*
X231733650Y-188336800D03*
X231233650Y-188336800D03*
X230733650Y-188336800D03*
X230233650Y-188336800D03*
D44*
X229546150Y-189024300D03*
X229546150Y-189524300D03*
X229546150Y-190024300D03*
X229546150Y-190524300D03*
X229546150Y-191024300D03*
X229546150Y-191524300D03*
X229546150Y-192024300D03*
X229546150Y-192524300D03*
X229546150Y-193024300D03*
X229546150Y-193524300D03*
X229546150Y-194024300D03*
X229546150Y-194524300D03*
X229546150Y-195024300D03*
X229546150Y-195524300D03*
X229546150Y-196024300D03*
X229546150Y-196524300D03*
D45*
X230233650Y-197211800D03*
X230733650Y-197211800D03*
X231233650Y-197211800D03*
X231733650Y-197211800D03*
X232233650Y-197211800D03*
X232733650Y-197211800D03*
X233233650Y-197211800D03*
X233733650Y-197211800D03*
X234233650Y-197211800D03*
X234733650Y-197211800D03*
X235233650Y-197211800D03*
X235733650Y-197211800D03*
X236233650Y-197211800D03*
X236733650Y-197211800D03*
X237233650Y-197211800D03*
X237733650Y-197211800D03*
%TD*%
D17*
%TO.C,C164*%
X243143900Y-191209700D03*
X243143900Y-189309700D03*
%TD*%
D34*
%TO.C,R49*%
X148793200Y-154990800D03*
X148793200Y-153340800D03*
%TD*%
D24*
%TO.C,FB1*%
X200329700Y-130708400D03*
X201904700Y-130708400D03*
%TD*%
D17*
%TO.C,C186*%
X226862500Y-191209700D03*
X226862500Y-189309700D03*
%TD*%
%TO.C,C79*%
X150461350Y-191196800D03*
X150461350Y-189296800D03*
%TD*%
D38*
%TO.C,C219*%
X158191200Y-175019500D03*
X158191200Y-172019500D03*
%TD*%
D27*
%TO.C,C70*%
X142765150Y-201361200D03*
X142765150Y-202911200D03*
%TD*%
D41*
%TO.C,C236*%
X200811000Y-156108400D03*
X203811000Y-156108400D03*
%TD*%
D19*
%TO.C,C162*%
X283242550Y-167231450D03*
X283242550Y-165681450D03*
%TD*%
D33*
%TO.C,C213*%
X166700200Y-156782900D03*
X166700200Y-160382900D03*
%TD*%
D10*
%TO.C,R57*%
X167741600Y-180172900D03*
X167741600Y-181822900D03*
%TD*%
D32*
%TO.C,C122*%
X175270850Y-180175900D03*
X181770850Y-180175900D03*
%TD*%
D17*
%TO.C,C63*%
X148429350Y-197221600D03*
X148429350Y-195321600D03*
%TD*%
D19*
%TO.C,C174*%
X234253900Y-202922500D03*
X234253900Y-201372500D03*
%TD*%
D10*
%TO.C,R24*%
X167030400Y-186525400D03*
X167030400Y-188175400D03*
%TD*%
D27*
%TO.C,C40*%
X124091200Y-112737600D03*
X124091200Y-114287600D03*
%TD*%
D34*
%TO.C,R34*%
X122783600Y-120941600D03*
X122783600Y-119291600D03*
%TD*%
D17*
%TO.C,C163*%
X241111900Y-197229500D03*
X241111900Y-195329500D03*
%TD*%
D14*
%TO.C,FB15*%
X297110950Y-193342650D03*
X297110950Y-196292650D03*
%TD*%
D27*
%TO.C,C16*%
X157276800Y-181584600D03*
X157276800Y-183134600D03*
%TD*%
D34*
%TO.C,R37*%
X109524800Y-128306800D03*
X109524800Y-126656800D03*
%TD*%
D48*
%TO.C,IC1*%
X123781000Y-123370900D03*
X123281000Y-123370900D03*
X122781000Y-123370900D03*
X122281000Y-123370900D03*
X121781000Y-123370900D03*
X121281000Y-123370900D03*
X120781000Y-123370900D03*
X120281000Y-123370900D03*
X119781000Y-123370900D03*
X119281000Y-123370900D03*
X118781000Y-123370900D03*
X118281000Y-123370900D03*
D49*
X116868500Y-124783400D03*
X116868500Y-125283400D03*
X116868500Y-125783400D03*
X116868500Y-126283400D03*
X116868500Y-126783400D03*
X116868500Y-127283400D03*
X116868500Y-127783400D03*
X116868500Y-128283400D03*
X116868500Y-128783400D03*
X116868500Y-129283400D03*
X116868500Y-129783400D03*
X116868500Y-130283400D03*
D48*
X118281000Y-131695900D03*
X118781000Y-131695900D03*
X119281000Y-131695900D03*
X119781000Y-131695900D03*
X120281000Y-131695900D03*
X120781000Y-131695900D03*
X121281000Y-131695900D03*
X121781000Y-131695900D03*
X122281000Y-131695900D03*
X122781000Y-131695900D03*
X123281000Y-131695900D03*
X123781000Y-131695900D03*
D49*
X125193500Y-130283400D03*
X125193500Y-129783400D03*
X125193500Y-129283400D03*
X125193500Y-128783400D03*
X125193500Y-128283400D03*
X125193500Y-127783400D03*
X125193500Y-127283400D03*
X125193500Y-126783400D03*
X125193500Y-126283400D03*
X125193500Y-125783400D03*
X125193500Y-125283400D03*
X125193500Y-124783400D03*
%TD*%
D28*
%TO.C,R53*%
X116293400Y-169860500D03*
X114643400Y-169860500D03*
%TD*%
D17*
%TO.C,C96*%
X195811150Y-191212000D03*
X195811150Y-189312000D03*
%TD*%
D15*
%TO.C,C217*%
X160642600Y-177251900D03*
X159092600Y-177251900D03*
%TD*%
D19*
%TO.C,C31*%
X181076600Y-129578400D03*
X181076600Y-128028400D03*
%TD*%
D10*
%TO.C,R25*%
X213325000Y-179439200D03*
X213325000Y-181089200D03*
%TD*%
D32*
%TO.C,C187*%
X238850000Y-171250000D03*
X245350000Y-171250000D03*
%TD*%
D25*
%TO.C,U19*%
X159798000Y-178610800D03*
X159798000Y-179245800D03*
X159798000Y-179880800D03*
X159798000Y-180515800D03*
X159798000Y-181150800D03*
X159798000Y-181785800D03*
X159798000Y-182420800D03*
X159798000Y-183055800D03*
X165068000Y-183055800D03*
X165068000Y-182420800D03*
X165068000Y-181785800D03*
X165068000Y-181150800D03*
X165068000Y-180515800D03*
X165068000Y-179880800D03*
X165068000Y-179245800D03*
X165068000Y-178610800D03*
%TD*%
D19*
%TO.C,C90*%
X119277250Y-196341500D03*
X119277250Y-194791500D03*
%TD*%
D14*
%TO.C,FB13*%
X299447750Y-193340850D03*
X299447750Y-196290850D03*
%TD*%
D27*
%TO.C,C221*%
X239064800Y-157226000D03*
X239064800Y-158776000D03*
%TD*%
%TO.C,C23*%
X213325000Y-176478800D03*
X213325000Y-178028800D03*
%TD*%
D19*
%TO.C,C30*%
X206314600Y-184087200D03*
X206314600Y-182537200D03*
%TD*%
D22*
%TO.C,C49*%
X113512000Y-118872000D03*
X115062000Y-118872000D03*
%TD*%
D27*
%TO.C,C71*%
X141063350Y-201374200D03*
X141063350Y-202924200D03*
%TD*%
D15*
%TO.C,C224*%
X248365200Y-154178000D03*
X246815200Y-154178000D03*
%TD*%
D19*
%TO.C,C204*%
X117779800Y-163717700D03*
X117779800Y-162167700D03*
%TD*%
D18*
%TO.C,C142*%
X278531450Y-202692150D03*
X276631450Y-202692150D03*
%TD*%
%TO.C,C176*%
X231200900Y-202680300D03*
X229300900Y-202680300D03*
%TD*%
D50*
%TO.C,L1*%
X297113600Y-150571200D03*
X288813600Y-150571200D03*
%TD*%
D10*
%TO.C,R69*%
X215696800Y-166370000D03*
X215696800Y-168020000D03*
%TD*%
%TO.C,R71*%
X205943200Y-155715200D03*
X205943200Y-157365200D03*
%TD*%
D27*
%TO.C,C41*%
X121449600Y-112763000D03*
X121449600Y-114313000D03*
%TD*%
D35*
%TO.C,C220*%
X241430400Y-158445200D03*
X245030400Y-158445200D03*
%TD*%
D19*
%TO.C,C128*%
X188579250Y-167221900D03*
X188579250Y-165671900D03*
%TD*%
D37*
%TO.C,L5*%
X233981600Y-169134400D03*
X233981600Y-173534400D03*
%TD*%
D22*
%TO.C,C32*%
X171716400Y-121031000D03*
X173266400Y-121031000D03*
%TD*%
D27*
%TO.C,C1*%
X300482000Y-157911200D03*
X300482000Y-159461200D03*
%TD*%
D22*
%TO.C,C78*%
X146993950Y-193284600D03*
X148543950Y-193284600D03*
%TD*%
D17*
%TO.C,C179*%
X222823900Y-191209700D03*
X222823900Y-189309700D03*
%TD*%
D10*
%TO.C,R41*%
X126910600Y-134226800D03*
X126910600Y-135876800D03*
%TD*%
D17*
%TO.C,C185*%
X226862500Y-197229500D03*
X226862500Y-195329500D03*
%TD*%
D41*
%TO.C,C238*%
X211076800Y-149860000D03*
X208076800Y-149860000D03*
%TD*%
D22*
%TO.C,C170*%
X238756800Y-185253600D03*
X240306800Y-185253600D03*
%TD*%
D27*
%TO.C,C11*%
X254092000Y-173920200D03*
X254092000Y-175470200D03*
%TD*%
D23*
%TO.C,U15*%
X233863300Y-137124400D03*
X233863300Y-138074400D03*
X233863300Y-139024400D03*
X236138300Y-139024400D03*
X236138300Y-137124400D03*
%TD*%
D25*
%TO.C,U23*%
X207753200Y-164807900D03*
X207753200Y-165442900D03*
X207753200Y-166077900D03*
X207753200Y-166712900D03*
X207753200Y-167347900D03*
X207753200Y-167982900D03*
X207753200Y-168617900D03*
X207753200Y-169252900D03*
X213023200Y-169252900D03*
X213023200Y-168617900D03*
X213023200Y-167982900D03*
X213023200Y-167347900D03*
X213023200Y-166712900D03*
X213023200Y-166077900D03*
X213023200Y-165442900D03*
X213023200Y-164807900D03*
%TD*%
D17*
%TO.C,C83*%
X132173350Y-197231800D03*
X132173350Y-195331800D03*
%TD*%
D38*
%TO.C,C209*%
X113538000Y-174994100D03*
X113538000Y-171994100D03*
%TD*%
D25*
%TO.C,U21*%
X255098800Y-164833300D03*
X255098800Y-165468300D03*
X255098800Y-166103300D03*
X255098800Y-166738300D03*
X255098800Y-167373300D03*
X255098800Y-168008300D03*
X255098800Y-168643300D03*
X255098800Y-169278300D03*
X260368800Y-169278300D03*
X260368800Y-168643300D03*
X260368800Y-168008300D03*
X260368800Y-167373300D03*
X260368800Y-166738300D03*
X260368800Y-166103300D03*
X260368800Y-165468300D03*
X260368800Y-164833300D03*
%TD*%
D22*
%TO.C,C100*%
X191594750Y-200879200D03*
X193144750Y-200879200D03*
%TD*%
D32*
%TO.C,C7*%
X295190100Y-164642800D03*
X301690100Y-164642800D03*
%TD*%
D10*
%TO.C,R76*%
X144348600Y-133001000D03*
X144348600Y-134651000D03*
%TD*%
D17*
%TO.C,C182*%
X224855900Y-197239700D03*
X224855900Y-195339700D03*
%TD*%
D51*
%TO.C,IC2*%
X110337600Y-135190000D03*
X111607600Y-135190000D03*
X112877600Y-135190000D03*
X114147600Y-135190000D03*
X114147600Y-130240000D03*
X112877600Y-130240000D03*
X111607600Y-130240000D03*
X110337600Y-130240000D03*
%TD*%
D13*
%TO.C,R35*%
X124016000Y-115773200D03*
X125666000Y-115773200D03*
%TD*%
D27*
%TO.C,C231*%
X190500000Y-157276800D03*
X190500000Y-158826800D03*
%TD*%
D17*
%TO.C,C111*%
X175491150Y-191212000D03*
X175491150Y-189312000D03*
%TD*%
D52*
%TO.C,U7*%
X204553900Y-109180200D03*
X204553900Y-109830200D03*
X204553900Y-110480200D03*
X204553900Y-111130200D03*
X204553900Y-111780200D03*
X204553900Y-112430200D03*
X204553900Y-113080200D03*
X204553900Y-113730200D03*
X210278900Y-113730200D03*
X210278900Y-113080200D03*
X210278900Y-112430200D03*
X210278900Y-111780200D03*
X210278900Y-111130200D03*
X210278900Y-110480200D03*
X210278900Y-109830200D03*
X210278900Y-109180200D03*
%TD*%
D10*
%TO.C,R13*%
X261102400Y-172778000D03*
X261102400Y-174428000D03*
%TD*%
D29*
%TO.C,C86*%
X150680350Y-180050000D03*
X144180350Y-180050000D03*
%TD*%
D27*
%TO.C,C198*%
X231387500Y-137363200D03*
X231387500Y-138913200D03*
%TD*%
D28*
%TO.C,R4*%
X305105700Y-112874000D03*
X303455700Y-112874000D03*
%TD*%
D53*
%TO.C,U16*%
X118779800Y-155874100D03*
X118279800Y-155874100D03*
X117779800Y-155874100D03*
X117279800Y-155874100D03*
X116779800Y-155874100D03*
X116779800Y-160174100D03*
X117279800Y-160174100D03*
X117779800Y-160174100D03*
X118279800Y-160174100D03*
X118779800Y-160174100D03*
%TD*%
D39*
%TO.C,D1*%
X242594680Y-137287736D03*
X242594680Y-138862736D03*
%TD*%
D17*
%TO.C,C244*%
X282498800Y-144932400D03*
X282498800Y-143032400D03*
%TD*%
D54*
%TO.C,U5*%
X255692200Y-181791400D03*
X256962200Y-181791400D03*
X258232200Y-181791400D03*
X259502200Y-181791400D03*
X259502200Y-176641400D03*
X258232200Y-176641400D03*
X256962200Y-176641400D03*
X255692200Y-176641400D03*
%TD*%
D28*
%TO.C,R45*%
X241563000Y-187133200D03*
X239913000Y-187133200D03*
%TD*%
D19*
%TO.C,C191*%
X220164000Y-196351600D03*
X220164000Y-194801600D03*
%TD*%
D15*
%TO.C,C232*%
X206527400Y-154178000D03*
X204977400Y-154178000D03*
%TD*%
D13*
%TO.C,R40*%
X115672600Y-136448800D03*
X117322600Y-136448800D03*
%TD*%
D15*
%TO.C,C54*%
X125412000Y-135813800D03*
X123862000Y-135813800D03*
%TD*%
D41*
%TO.C,C228*%
X259641600Y-149809200D03*
X256641600Y-149809200D03*
%TD*%
D13*
%TO.C,R73*%
X207365600Y-155778200D03*
X209015600Y-155778200D03*
%TD*%
D19*
%TO.C,C202*%
X117830600Y-170444700D03*
X117830600Y-168894700D03*
%TD*%
D17*
%TO.C,C131*%
X290449050Y-197231150D03*
X290449050Y-195331150D03*
%TD*%
D22*
%TO.C,C75*%
X134598750Y-200930000D03*
X136148750Y-200930000D03*
%TD*%
D15*
%TO.C,C47*%
X127303900Y-119151400D03*
X125753900Y-119151400D03*
%TD*%
D55*
%TO.C,U2*%
X204992200Y-128397000D03*
X204992200Y-129667000D03*
X204992200Y-130937000D03*
X204992200Y-132207000D03*
X204992200Y-133477000D03*
X204992200Y-134747000D03*
X204992200Y-136017000D03*
X204992200Y-137287000D03*
X209942200Y-137287000D03*
X209942200Y-136017000D03*
X209942200Y-134747000D03*
X209942200Y-133477000D03*
X209942200Y-132207000D03*
X209942200Y-130937000D03*
X209942200Y-129667000D03*
X209942200Y-128397000D03*
%TD*%
D18*
%TO.C,C74*%
X136535200Y-202692000D03*
X134635200Y-202692000D03*
%TD*%
D32*
%TO.C,C119*%
X191526850Y-171250000D03*
X198026850Y-171250000D03*
%TD*%
D17*
%TO.C,C115*%
X177523150Y-191212000D03*
X177523150Y-189312000D03*
%TD*%
D13*
%TO.C,R5*%
X290767000Y-163880800D03*
X292417000Y-163880800D03*
%TD*%
D15*
%TO.C,C241*%
X282025000Y-133400000D03*
X280475000Y-133400000D03*
%TD*%
D29*
%TO.C,C189*%
X229103600Y-171300000D03*
X222603600Y-171300000D03*
%TD*%
D22*
%TO.C,C135*%
X286257450Y-199364750D03*
X287807450Y-199364750D03*
%TD*%
%TO.C,C177*%
X229287900Y-200927700D03*
X230837900Y-200927700D03*
%TD*%
D19*
%TO.C,C123*%
X172831250Y-196353900D03*
X172831250Y-194803900D03*
%TD*%
D17*
%TO.C,C80*%
X130166750Y-197242000D03*
X130166750Y-195342000D03*
%TD*%
D27*
%TO.C,C59*%
X109550000Y-123725000D03*
X109550000Y-125275000D03*
%TD*%
D19*
%TO.C,C9*%
X254092000Y-184563400D03*
X254092000Y-183013400D03*
%TD*%
D27*
%TO.C,C172*%
X237454300Y-201358900D03*
X237454300Y-202908900D03*
%TD*%
D13*
%TO.C,R48*%
X145466800Y-158902400D03*
X147116800Y-158902400D03*
%TD*%
D17*
%TO.C,C183*%
X224855900Y-191209700D03*
X224855900Y-189309700D03*
%TD*%
D10*
%TO.C,R61*%
X160883600Y-171308300D03*
X160883600Y-172958300D03*
%TD*%
D27*
%TO.C,C175*%
X232755300Y-201384900D03*
X232755300Y-202934900D03*
%TD*%
D17*
%TO.C,C152*%
X274193050Y-191221550D03*
X274193050Y-189321550D03*
%TD*%
D10*
%TO.C,R16*%
X254092000Y-176918200D03*
X254092000Y-178568200D03*
%TD*%
D20*
%TO.C,C60*%
X130088200Y-125755400D03*
X131863200Y-125755400D03*
%TD*%
D10*
%TO.C,R60*%
X164109400Y-171308300D03*
X164109400Y-172958300D03*
%TD*%
D56*
%TO.C,Q1*%
X112983650Y-124036250D03*
X111083650Y-124036250D03*
X112033650Y-125911250D03*
%TD*%
D27*
%TO.C,C3*%
X286359600Y-153758600D03*
X286359600Y-155308600D03*
%TD*%
D42*
%TO.C,C103*%
X191645550Y-202631800D03*
X193545550Y-202631800D03*
%TD*%
D15*
%TO.C,C65*%
X148639650Y-185255900D03*
X147089650Y-185255900D03*
%TD*%
D17*
%TO.C,C118*%
X179529750Y-191212000D03*
X179529750Y-189312000D03*
%TD*%
D19*
%TO.C,C91*%
X153150000Y-196394100D03*
X153150000Y-194844100D03*
%TD*%
D15*
%TO.C,C234*%
X199800400Y-154228800D03*
X198250400Y-154228800D03*
%TD*%
D14*
%TO.C,FB17*%
X252117200Y-193329000D03*
X252117200Y-196279000D03*
%TD*%
D19*
%TO.C,C126*%
X206750000Y-196394100D03*
X206750000Y-194844100D03*
%TD*%
D27*
%TO.C,C105*%
X188419750Y-201374200D03*
X188419750Y-202924200D03*
%TD*%
D14*
%TO.C,FB9*%
X204784450Y-193331300D03*
X204784450Y-196281300D03*
%TD*%
D34*
%TO.C,R70*%
X205943200Y-152627600D03*
X205943200Y-150977600D03*
%TD*%
D27*
%TO.C,C161*%
X283242550Y-175498850D03*
X283242550Y-177048850D03*
%TD*%
D22*
%TO.C,C55*%
X129971200Y-120726200D03*
X131521200Y-120726200D03*
%TD*%
D14*
%TO.C,FB6*%
X123544450Y-193278700D03*
X123544450Y-196228700D03*
%TD*%
D27*
%TO.C,C22*%
X165531800Y-186575400D03*
X165531800Y-188125400D03*
%TD*%
D29*
%TO.C,C87*%
X134400000Y-171300000D03*
X127900000Y-171300000D03*
%TD*%
D28*
%TO.C,R3*%
X305117900Y-111350000D03*
X303467900Y-111350000D03*
%TD*%
D22*
%TO.C,C66*%
X144238350Y-200879200D03*
X145788350Y-200879200D03*
%TD*%
%TO.C,C168*%
X238927500Y-200876900D03*
X240477500Y-200876900D03*
%TD*%
D34*
%TO.C,R15*%
X254092000Y-181590800D03*
X254092000Y-179940800D03*
%TD*%
D15*
%TO.C,C99*%
X195996050Y-185255900D03*
X194446050Y-185255900D03*
%TD*%
D32*
%TO.C,C85*%
X144170450Y-171200000D03*
X150670450Y-171200000D03*
%TD*%
D27*
%TO.C,C93*%
X141222850Y-175489300D03*
X141222850Y-177039300D03*
%TD*%
D10*
%TO.C,R26*%
X213248800Y-172098600D03*
X213248800Y-173748600D03*
%TD*%
D42*
%TO.C,C137*%
X286308850Y-202641350D03*
X288208850Y-202641350D03*
%TD*%
D19*
%TO.C,C158*%
X261296950Y-196351050D03*
X261296950Y-194801050D03*
%TD*%
D13*
%TO.C,R74*%
X146012800Y-130079000D03*
X147662800Y-130079000D03*
%TD*%
D19*
%TO.C,C72*%
X139564750Y-202924800D03*
X139564750Y-201374800D03*
%TD*%
D21*
%TO.C,U9*%
X149521200Y-125977100D03*
X150171200Y-125977100D03*
X150821200Y-125977100D03*
X151471200Y-125977100D03*
X152121200Y-125977100D03*
X152771200Y-125977100D03*
X153421200Y-125977100D03*
X154071200Y-125977100D03*
X154721200Y-125977100D03*
X155371200Y-125977100D03*
X156021200Y-125977100D03*
X156671200Y-125977100D03*
X157321200Y-125977100D03*
X157971200Y-125977100D03*
X157971200Y-120252100D03*
X157321200Y-120252100D03*
X156671200Y-120252100D03*
X156021200Y-120252100D03*
X155371200Y-120252100D03*
X154721200Y-120252100D03*
X154071200Y-120252100D03*
X153421200Y-120252100D03*
X152771200Y-120252100D03*
X152121200Y-120252100D03*
X151471200Y-120252100D03*
X150821200Y-120252100D03*
X150171200Y-120252100D03*
X149521200Y-120252100D03*
%TD*%
D57*
%TO.C,D2*%
X294717200Y-157226000D03*
X298017200Y-157226000D03*
%TD*%
D19*
%TO.C,C34*%
X154406600Y-115456000D03*
X154406600Y-113906000D03*
%TD*%
D22*
%TO.C,C136*%
X286087350Y-185265450D03*
X287637350Y-185265450D03*
%TD*%
D27*
%TO.C,C12*%
X108992750Y-146529800D03*
X108992750Y-148079800D03*
%TD*%
D28*
%TO.C,R46*%
X224649800Y-112526000D03*
X222999800Y-112526000D03*
%TD*%
D41*
%TO.C,C229*%
X259641600Y-158419800D03*
X256641600Y-158419800D03*
%TD*%
D15*
%TO.C,C167*%
X243328800Y-185253600D03*
X241778800Y-185253600D03*
%TD*%
D22*
%TO.C,C102*%
X191424050Y-185255900D03*
X192974050Y-185255900D03*
%TD*%
D19*
%TO.C,C159*%
X295150000Y-196400000D03*
X295150000Y-194850000D03*
%TD*%
D58*
%TO.C,U3*%
X262128000Y-131443200D03*
X260858000Y-131443200D03*
X259588000Y-131443200D03*
X258318000Y-131443200D03*
X257048000Y-131443200D03*
X255778000Y-131443200D03*
X254508000Y-131443200D03*
X253238000Y-131443200D03*
X251968000Y-131443200D03*
X251968000Y-140743200D03*
X253238000Y-140743200D03*
X254508000Y-140743200D03*
X255778000Y-140743200D03*
X257048000Y-140743200D03*
X258318000Y-140743200D03*
X259588000Y-140743200D03*
X260858000Y-140743200D03*
X262128000Y-140743200D03*
%TD*%
D19*
%TO.C,C178*%
X227797300Y-202439300D03*
X227797300Y-200889300D03*
%TD*%
D27*
%TO.C,C107*%
X185422550Y-201387200D03*
X185422550Y-202937200D03*
%TD*%
D28*
%TO.C,R59*%
X160946600Y-169885900D03*
X159296600Y-169885900D03*
%TD*%
D47*
%TO.C,Q2*%
X145303200Y-155835200D03*
X147203200Y-155835200D03*
X146253200Y-153435200D03*
%TD*%
D22*
%TO.C,C48*%
X113499600Y-120421400D03*
X115049600Y-120421400D03*
%TD*%
D19*
%TO.C,C89*%
X125474850Y-196353900D03*
X125474850Y-194803900D03*
%TD*%
D22*
%TO.C,C109*%
X181955150Y-200930000D03*
X183505150Y-200930000D03*
%TD*%
D17*
%TO.C,C165*%
X243118500Y-197219300D03*
X243118500Y-195319300D03*
%TD*%
D22*
%TO.C,C134*%
X286258050Y-200888750D03*
X287808050Y-200888750D03*
%TD*%
D38*
%TO.C,C208*%
X122148600Y-174994100D03*
X122148600Y-171994100D03*
%TD*%
D17*
%TO.C,C148*%
X272186450Y-197251550D03*
X272186450Y-195351550D03*
%TD*%
D24*
%TO.C,D4*%
X143128800Y-115494600D03*
X144703800Y-115494600D03*
%TD*%
D59*
%TO.C,J1*%
X262200000Y-110550000D03*
X261400000Y-110550000D03*
X260600000Y-110550000D03*
X259800000Y-110550000D03*
X259000000Y-110550000D03*
X258200000Y-110550000D03*
X257400000Y-110550000D03*
X256600000Y-110550000D03*
X255800000Y-110550000D03*
X255000000Y-110550000D03*
D60*
X263500000Y-108600000D03*
X253700000Y-108600000D03*
%TD*%
D17*
%TO.C,C97*%
X195785750Y-197221600D03*
X195785750Y-195321600D03*
%TD*%
D22*
%TO.C,C68*%
X144067650Y-185255900D03*
X145617650Y-185255900D03*
%TD*%
D43*
%TO.C,U12*%
X279457950Y-194642400D03*
X281932950Y-194642400D03*
X279457950Y-192167400D03*
X279457950Y-193404900D03*
X281932950Y-192167400D03*
X280695450Y-190929900D03*
X283170450Y-194642400D03*
X283170450Y-193404900D03*
X283170450Y-190929900D03*
X279457950Y-190929900D03*
X281932950Y-193404900D03*
X283170450Y-192167400D03*
X281932950Y-190929900D03*
X280695450Y-194642400D03*
X280695450Y-193404900D03*
X280695450Y-192167400D03*
D44*
X285751700Y-196536150D03*
X285751700Y-196036150D03*
X285751700Y-195536150D03*
X285751700Y-195036150D03*
X285751700Y-194536150D03*
X285751700Y-194036150D03*
X285751700Y-193536150D03*
X285751700Y-193036150D03*
X285751700Y-192536150D03*
X285751700Y-192036150D03*
X285751700Y-191536150D03*
X285751700Y-191036150D03*
X285751700Y-190536150D03*
X285751700Y-190036150D03*
X285751700Y-189536150D03*
X285751700Y-189036150D03*
D45*
X285064200Y-188348650D03*
X284564200Y-188348650D03*
X284064200Y-188348650D03*
X283564200Y-188348650D03*
X283064200Y-188348650D03*
X282564200Y-188348650D03*
X282064200Y-188348650D03*
X281564200Y-188348650D03*
X281064200Y-188348650D03*
X280564200Y-188348650D03*
X280064200Y-188348650D03*
X279564200Y-188348650D03*
X279064200Y-188348650D03*
X278564200Y-188348650D03*
X278064200Y-188348650D03*
X277564200Y-188348650D03*
D44*
X276876700Y-189036150D03*
X276876700Y-189536150D03*
X276876700Y-190036150D03*
X276876700Y-190536150D03*
X276876700Y-191036150D03*
X276876700Y-191536150D03*
X276876700Y-192036150D03*
X276876700Y-192536150D03*
X276876700Y-193036150D03*
X276876700Y-193536150D03*
X276876700Y-194036150D03*
X276876700Y-194536150D03*
X276876700Y-195036150D03*
X276876700Y-195536150D03*
X276876700Y-196036150D03*
X276876700Y-196536150D03*
D45*
X277564200Y-197223650D03*
X278064200Y-197223650D03*
X278564200Y-197223650D03*
X279064200Y-197223650D03*
X279564200Y-197223650D03*
X280064200Y-197223650D03*
X280564200Y-197223650D03*
X281064200Y-197223650D03*
X281564200Y-197223650D03*
X282064200Y-197223650D03*
X282564200Y-197223650D03*
X283064200Y-197223650D03*
X283564200Y-197223650D03*
X284064200Y-197223650D03*
X284564200Y-197223650D03*
X285064200Y-197223650D03*
%TD*%
D27*
%TO.C,C138*%
X284784850Y-201370750D03*
X284784850Y-202920750D03*
%TD*%
D35*
%TO.C,C223*%
X241405000Y-149910800D03*
X245005000Y-149910800D03*
%TD*%
D61*
%TO.C,D5*%
X148793200Y-157988200D03*
X148793200Y-156413200D03*
%TD*%
D17*
%TO.C,C129*%
X288442450Y-197241350D03*
X288442450Y-195341350D03*
%TD*%
D13*
%TO.C,R58*%
X164034200Y-169885900D03*
X165684200Y-169885900D03*
%TD*%
D34*
%TO.C,R8*%
X289306000Y-163943800D03*
X289306000Y-162293800D03*
%TD*%
D28*
%TO.C,R33*%
X118122200Y-118897400D03*
X116472200Y-118897400D03*
%TD*%
D41*
%TO.C,C235*%
X200811000Y-152247600D03*
X203811000Y-152247600D03*
%TD*%
D19*
%TO.C,C125*%
X200500000Y-196394100D03*
X200500000Y-194844100D03*
%TD*%
D17*
%TO.C,C64*%
X146422750Y-191212000D03*
X146422750Y-189312000D03*
%TD*%
%TO.C,C117*%
X179529750Y-197231800D03*
X179529750Y-195331800D03*
%TD*%
D38*
%TO.C,C206*%
X115900200Y-164728300D03*
X115900200Y-167728300D03*
%TD*%
D28*
%TO.C,R32*%
X121512600Y-109753400D03*
X119862600Y-109753400D03*
%TD*%
D34*
%TO.C,R77*%
X284276800Y-144576800D03*
X284276800Y-142926800D03*
%TD*%
D10*
%TO.C,R55*%
X116230400Y-171282900D03*
X116230400Y-172932900D03*
%TD*%
D54*
%TO.C,U6*%
X207914800Y-181315200D03*
X209184800Y-181315200D03*
X210454800Y-181315200D03*
X211724800Y-181315200D03*
X211724800Y-176165200D03*
X210454800Y-176165200D03*
X209184800Y-176165200D03*
X207914800Y-176165200D03*
%TD*%
D28*
%TO.C,R2*%
X187845400Y-110871800D03*
X186195400Y-110871800D03*
%TD*%
D37*
%TO.C,L4*%
X281312150Y-169146250D03*
X281312150Y-173546250D03*
%TD*%
D24*
%TO.C,FB22*%
X259181600Y-154101800D03*
X260756600Y-154101800D03*
%TD*%
D22*
%TO.C,C33*%
X161251600Y-121082600D03*
X162801600Y-121082600D03*
%TD*%
%TO.C,C143*%
X276618450Y-200939550D03*
X278168450Y-200939550D03*
%TD*%
D10*
%TO.C,R1*%
X241019880Y-137250136D03*
X241019880Y-138900136D03*
%TD*%
D62*
%TO.C,U14*%
X227763800Y-111704800D03*
X227763800Y-112974800D03*
X227763800Y-114244800D03*
X227763800Y-115514800D03*
X227763800Y-116784800D03*
X227763800Y-118054800D03*
X227763800Y-119324800D03*
X227763800Y-120594800D03*
X227763800Y-121864800D03*
X227763800Y-123134800D03*
X227763800Y-124404800D03*
X227763800Y-125674800D03*
X227763800Y-126944800D03*
X227763800Y-128214800D03*
X227763800Y-129514800D03*
X227763800Y-130784800D03*
X227763800Y-132054800D03*
X227763800Y-133324800D03*
X227763800Y-134594800D03*
X245763800Y-134594800D03*
X245763800Y-133324800D03*
X245763800Y-132054800D03*
X245763800Y-130784800D03*
X245763800Y-129514800D03*
X245793800Y-128214800D03*
X245793800Y-126944800D03*
X245793800Y-125674800D03*
X245793800Y-124404800D03*
X245793800Y-123134800D03*
X245793800Y-121864800D03*
X245793800Y-120594800D03*
X245793800Y-119324800D03*
X245793800Y-118054800D03*
X245793800Y-116784800D03*
X245793800Y-115514800D03*
X245793800Y-114244800D03*
X245793800Y-112974800D03*
X245793800Y-111704800D03*
D63*
X236363800Y-118624800D03*
%TD*%
D17*
%TO.C,C114*%
X177523150Y-197242000D03*
X177523150Y-195342000D03*
%TD*%
D38*
%TO.C,C218*%
X166801800Y-175019500D03*
X166801800Y-172019500D03*
%TD*%
D10*
%TO.C,R63*%
X263042400Y-166395400D03*
X263042400Y-168045400D03*
%TD*%
D53*
%TO.C,U18*%
X163433000Y-155899500D03*
X162933000Y-155899500D03*
X162433000Y-155899500D03*
X161933000Y-155899500D03*
X161433000Y-155899500D03*
X161433000Y-160199500D03*
X161933000Y-160199500D03*
X162433000Y-160199500D03*
X162933000Y-160199500D03*
X163433000Y-160199500D03*
%TD*%
D27*
%TO.C,C195*%
X235912000Y-175487000D03*
X235912000Y-177037000D03*
%TD*%
%TO.C,C42*%
X119951000Y-112763000D03*
X119951000Y-114313000D03*
%TD*%
D15*
%TO.C,C25*%
X152997200Y-116967800D03*
X151447200Y-116967800D03*
%TD*%
D19*
%TO.C,C76*%
X133108150Y-202441600D03*
X133108150Y-200891600D03*
%TD*%
D17*
%TO.C,C5*%
X263702800Y-116174600D03*
X263702800Y-114274600D03*
%TD*%
D27*
%TO.C,C173*%
X235752500Y-201371900D03*
X235752500Y-202921900D03*
%TD*%
D43*
%TO.C,U10*%
X138675750Y-192157850D03*
X139913250Y-190920350D03*
X137438250Y-190920350D03*
X141150750Y-194632850D03*
X141150750Y-193395350D03*
X137438250Y-193395350D03*
X138675750Y-190920350D03*
X141150750Y-190920350D03*
X137438250Y-194632850D03*
X141150750Y-192157850D03*
X139913250Y-192157850D03*
X138675750Y-193395350D03*
X139913250Y-194632850D03*
X137438250Y-192157850D03*
X138675750Y-194632850D03*
X139913250Y-193395350D03*
D44*
X143732000Y-196526600D03*
X143732000Y-196026600D03*
X143732000Y-195526600D03*
X143732000Y-195026600D03*
X143732000Y-194526600D03*
X143732000Y-194026600D03*
X143732000Y-193526600D03*
X143732000Y-193026600D03*
X143732000Y-192526600D03*
X143732000Y-192026600D03*
X143732000Y-191526600D03*
X143732000Y-191026600D03*
X143732000Y-190526600D03*
X143732000Y-190026600D03*
X143732000Y-189526600D03*
X143732000Y-189026600D03*
D45*
X143044500Y-188339100D03*
X142544500Y-188339100D03*
X142044500Y-188339100D03*
X141544500Y-188339100D03*
X141044500Y-188339100D03*
X140544500Y-188339100D03*
X140044500Y-188339100D03*
X139544500Y-188339100D03*
X139044500Y-188339100D03*
X138544500Y-188339100D03*
X138044500Y-188339100D03*
X137544500Y-188339100D03*
X137044500Y-188339100D03*
X136544500Y-188339100D03*
X136044500Y-188339100D03*
X135544500Y-188339100D03*
D44*
X134857000Y-189026600D03*
X134857000Y-189526600D03*
X134857000Y-190026600D03*
X134857000Y-190526600D03*
X134857000Y-191026600D03*
X134857000Y-191526600D03*
X134857000Y-192026600D03*
X134857000Y-192526600D03*
X134857000Y-193026600D03*
X134857000Y-193526600D03*
X134857000Y-194026600D03*
X134857000Y-194526600D03*
X134857000Y-195026600D03*
X134857000Y-195526600D03*
X134857000Y-196026600D03*
X134857000Y-196526600D03*
D45*
X135544500Y-197214100D03*
X136044500Y-197214100D03*
X136544500Y-197214100D03*
X137044500Y-197214100D03*
X137544500Y-197214100D03*
X138044500Y-197214100D03*
X138544500Y-197214100D03*
X139044500Y-197214100D03*
X139544500Y-197214100D03*
X140044500Y-197214100D03*
X140544500Y-197214100D03*
X141044500Y-197214100D03*
X141544500Y-197214100D03*
X142044500Y-197214100D03*
X142544500Y-197214100D03*
X143044500Y-197214100D03*
%TD*%
D41*
%TO.C,C239*%
X211076800Y-158470600D03*
X208076800Y-158470600D03*
%TD*%
D29*
%TO.C,C188*%
X245369500Y-180122800D03*
X238869500Y-180122800D03*
%TD*%
D22*
%TO.C,C35*%
X152882600Y-112408000D03*
X154432600Y-112408000D03*
%TD*%
D17*
%TO.C,C166*%
X241111900Y-191209700D03*
X241111900Y-189309700D03*
%TD*%
D10*
%TO.C,R62*%
X263037800Y-163386400D03*
X263037800Y-165036400D03*
%TD*%
%TO.C,R12*%
X259603800Y-172778000D03*
X259603800Y-174428000D03*
%TD*%
D17*
%TO.C,C61*%
X146422750Y-197231800D03*
X146422750Y-195331800D03*
%TD*%
D14*
%TO.C,FB4*%
X121207650Y-193280500D03*
X121207650Y-196230500D03*
%TD*%
D32*
%TO.C,C190*%
X222603600Y-180173600D03*
X229103600Y-180173600D03*
%TD*%
D40*
%TO.C,U20*%
X240521600Y-153178000D03*
X240521600Y-153678000D03*
X240521600Y-154178000D03*
X240521600Y-154678000D03*
X240521600Y-155178000D03*
X244821600Y-155178000D03*
X244821600Y-154678000D03*
X244821600Y-154178000D03*
X244821600Y-153678000D03*
X244821600Y-153178000D03*
%TD*%
D24*
%TO.C,FB2*%
X171703900Y-119507000D03*
X173278900Y-119507000D03*
%TD*%
D13*
%TO.C,R18*%
X108582700Y-179679600D03*
X110232700Y-179679600D03*
%TD*%
D19*
%TO.C,C192*%
X213966400Y-196339200D03*
X213966400Y-194789200D03*
%TD*%
D27*
%TO.C,C141*%
X280085850Y-201396750D03*
X280085850Y-202946750D03*
%TD*%
D33*
%TO.C,C210*%
X158165800Y-156808300D03*
X158165800Y-160408300D03*
%TD*%
D19*
%TO.C,C196*%
X235912000Y-167219600D03*
X235912000Y-165669600D03*
%TD*%
D64*
%TO.C,C51*%
X108610400Y-133451600D03*
X108610400Y-135226600D03*
%TD*%
D42*
%TO.C,C171*%
X238978300Y-202629500D03*
X240878300Y-202629500D03*
%TD*%
D20*
%TO.C,C53*%
X130087300Y-119075200D03*
X131862300Y-119075200D03*
%TD*%
D27*
%TO.C,C21*%
X120675400Y-186333800D03*
X120675400Y-187883800D03*
%TD*%
M02*
