%TF.GenerationSoftware,KiCad,Pcbnew,(6.0.4-0)*%
%TF.CreationDate,2022-05-25T01:46:17+02:00*%
%TF.ProjectId,decaVox,64656361-566f-4782-9e6b-696361645f70,rev?*%
%TF.SameCoordinates,Original*%
%TF.FileFunction,Soldermask,Top*%
%TF.FilePolarity,Negative*%
%FSLAX46Y46*%
G04 Gerber Fmt 4.6, Leading zero omitted, Abs format (unit mm)*
G04 Created by KiCad (PCBNEW (6.0.4-0)) date 2022-05-25 01:46:17*
%MOMM*%
%LPD*%
G01*
G04 APERTURE LIST*
G04 Aperture macros list*
%AMRoundRect*
0 Rectangle with rounded corners*
0 $1 Rounding radius*
0 $2 $3 $4 $5 $6 $7 $8 $9 X,Y pos of 4 corners*
0 Add a 4 corners polygon primitive as box body*
4,1,4,$2,$3,$4,$5,$6,$7,$8,$9,$2,$3,0*
0 Add four circle primitives for the rounded corners*
1,1,$1+$1,$2,$3*
1,1,$1+$1,$4,$5*
1,1,$1+$1,$6,$7*
1,1,$1+$1,$8,$9*
0 Add four rect primitives between the rounded corners*
20,1,$1+$1,$2,$3,$4,$5,0*
20,1,$1+$1,$4,$5,$6,$7,0*
20,1,$1+$1,$6,$7,$8,$9,0*
20,1,$1+$1,$8,$9,$2,$3,0*%
%AMFreePoly0*
4,1,22,0.550000,-0.750000,0.000000,-0.750000,0.000000,-0.745033,-0.079941,-0.743568,-0.215256,-0.701293,-0.333266,-0.622738,-0.424486,-0.514219,-0.481581,-0.384460,-0.499164,-0.250000,-0.500000,-0.250000,-0.500000,0.250000,-0.499164,0.250000,-0.499963,0.256109,-0.478152,0.396186,-0.417904,0.524511,-0.324060,0.630769,-0.204165,0.706417,-0.067858,0.745374,0.000000,0.744959,0.000000,0.750000,
0.550000,0.750000,0.550000,-0.750000,0.550000,-0.750000,$1*%
%AMFreePoly1*
4,1,20,0.000000,0.744959,0.073905,0.744508,0.209726,0.703889,0.328688,0.626782,0.421226,0.519385,0.479903,0.390333,0.500000,0.250000,0.500000,-0.250000,0.499851,-0.262216,0.476331,-0.402017,0.414519,-0.529596,0.319384,-0.634700,0.198574,-0.708877,0.061801,-0.746166,0.000000,-0.745033,0.000000,-0.750000,-0.550000,-0.750000,-0.550000,0.750000,0.000000,0.750000,0.000000,0.744959,
0.000000,0.744959,$1*%
%AMFreePoly2*
4,1,22,0.500000,-0.750000,0.000000,-0.750000,0.000000,-0.745033,-0.079941,-0.743568,-0.215256,-0.701293,-0.333266,-0.622738,-0.424486,-0.514219,-0.481581,-0.384460,-0.499164,-0.250000,-0.500000,-0.250000,-0.500000,0.250000,-0.499164,0.250000,-0.499963,0.256109,-0.478152,0.396186,-0.417904,0.524511,-0.324060,0.630769,-0.204165,0.706417,-0.067858,0.745374,0.000000,0.744959,0.000000,0.750000,
0.500000,0.750000,0.500000,-0.750000,0.500000,-0.750000,$1*%
%AMFreePoly3*
4,1,20,0.000000,0.744959,0.073905,0.744508,0.209726,0.703889,0.328688,0.626782,0.421226,0.519385,0.479903,0.390333,0.500000,0.250000,0.500000,-0.250000,0.499851,-0.262216,0.476331,-0.402017,0.414519,-0.529596,0.319384,-0.634700,0.198574,-0.708877,0.061801,-0.746166,0.000000,-0.745033,0.000000,-0.750000,-0.500000,-0.750000,-0.500000,0.750000,0.000000,0.750000,0.000000,0.744959,
0.000000,0.744959,$1*%
G04 Aperture macros list end*
%ADD10C,0.100000*%
%ADD11C,0.300000*%
%ADD12C,0.250000*%
%ADD13C,1.000000*%
%ADD14C,0.375000*%
%ADD15RoundRect,0.200000X-0.275000X0.200000X-0.275000X-0.200000X0.275000X-0.200000X0.275000X0.200000X0*%
%ADD16R,2.500000X2.300000*%
%ADD17R,0.450000X0.600000*%
%ADD18RoundRect,0.200000X-0.200000X-0.275000X0.200000X-0.275000X0.200000X0.275000X-0.200000X0.275000X0*%
%ADD19RoundRect,0.250000X-0.650000X0.325000X-0.650000X-0.325000X0.650000X-0.325000X0.650000X0.325000X0*%
%ADD20C,2.500000*%
%ADD21RoundRect,0.225000X0.225000X0.250000X-0.225000X0.250000X-0.225000X-0.250000X0.225000X-0.250000X0*%
%ADD22R,1.498600X2.489200*%
%ADD23RoundRect,0.250000X0.475000X-0.250000X0.475000X0.250000X-0.475000X0.250000X-0.475000X-0.250000X0*%
%ADD24RoundRect,0.250000X0.250000X0.475000X-0.250000X0.475000X-0.250000X-0.475000X0.250000X-0.475000X0*%
%ADD25RoundRect,0.225000X0.250000X-0.225000X0.250000X0.225000X-0.250000X0.225000X-0.250000X-0.225000X0*%
%ADD26C,5.600000*%
%ADD27RoundRect,0.250000X-0.312500X-0.275000X0.312500X-0.275000X0.312500X0.275000X-0.312500X0.275000X0*%
%ADD28R,1.700000X1.700000*%
%ADD29O,1.700000X1.700000*%
%ADD30RoundRect,0.100000X0.100000X-0.637500X0.100000X0.637500X-0.100000X0.637500X-0.100000X-0.637500X0*%
%ADD31RoundRect,0.225000X-0.225000X-0.250000X0.225000X-0.250000X0.225000X0.250000X-0.225000X0.250000X0*%
%ADD32RoundRect,0.150000X-0.512500X-0.150000X0.512500X-0.150000X0.512500X0.150000X-0.512500X0.150000X0*%
%ADD33RoundRect,0.218750X-0.218750X-0.256250X0.218750X-0.256250X0.218750X0.256250X-0.218750X0.256250X0*%
%ADD34FreePoly0,90.000000*%
%ADD35R,1.500000X1.000000*%
%ADD36FreePoly1,90.000000*%
%ADD37RoundRect,0.020500X-0.799500X-0.184500X0.799500X-0.184500X0.799500X0.184500X-0.799500X0.184500X0*%
%ADD38RoundRect,0.250000X-0.475000X0.250000X-0.475000X-0.250000X0.475000X-0.250000X0.475000X0.250000X0*%
%ADD39RoundRect,0.225000X-0.250000X0.225000X-0.250000X-0.225000X0.250000X-0.225000X0.250000X0.225000X0*%
%ADD40RoundRect,0.200000X0.200000X0.275000X-0.200000X0.275000X-0.200000X-0.275000X0.200000X-0.275000X0*%
%ADD41FreePoly0,270.000000*%
%ADD42FreePoly1,270.000000*%
%ADD43RoundRect,0.250000X1.500000X1.000000X-1.500000X1.000000X-1.500000X-1.000000X1.500000X-1.000000X0*%
%ADD44RoundRect,0.250000X1.050000X0.550000X-1.050000X0.550000X-1.050000X-0.550000X1.050000X-0.550000X0*%
%ADD45RoundRect,0.250000X0.550000X-1.050000X0.550000X1.050000X-0.550000X1.050000X-0.550000X-1.050000X0*%
%ADD46RoundRect,0.250000X-1.500000X-1.000000X1.500000X-1.000000X1.500000X1.000000X-1.500000X1.000000X0*%
%ADD47RoundRect,0.250000X-0.550000X1.050000X-0.550000X-1.050000X0.550000X-1.050000X0.550000X1.050000X0*%
%ADD48RoundRect,0.200000X0.275000X-0.200000X0.275000X0.200000X-0.275000X0.200000X-0.275000X-0.200000X0*%
%ADD49RoundRect,0.250000X-1.050000X-0.550000X1.050000X-0.550000X1.050000X0.550000X-1.050000X0.550000X0*%
%ADD50RoundRect,0.250000X0.312500X0.275000X-0.312500X0.275000X-0.312500X-0.275000X0.312500X-0.275000X0*%
%ADD51FreePoly0,0.000000*%
%ADD52R,1.000000X1.500000*%
%ADD53FreePoly1,0.000000*%
%ADD54R,1.800000X3.500000*%
%ADD55R,1.600000X2.200000*%
%ADD56C,1.346200*%
%ADD57C,1.651000*%
%ADD58C,2.260600*%
%ADD59RoundRect,0.218750X-0.256250X0.218750X-0.256250X-0.218750X0.256250X-0.218750X0.256250X0.218750X0*%
%ADD60R,1.100000X0.250000*%
%ADD61R,2.200000X1.600000*%
%ADD62C,1.500000*%
%ADD63FreePoly2,180.000000*%
%ADD64FreePoly3,180.000000*%
%ADD65RoundRect,0.250000X-0.250000X-0.475000X0.250000X-0.475000X0.250000X0.475000X-0.250000X0.475000X0*%
%ADD66RoundRect,0.075000X0.362500X0.075000X-0.362500X0.075000X-0.362500X-0.075000X0.362500X-0.075000X0*%
%ADD67RoundRect,0.075000X0.075000X0.362500X-0.075000X0.362500X-0.075000X-0.362500X0.075000X-0.362500X0*%
%ADD68R,5.450000X5.450000*%
%ADD69RoundRect,0.150000X0.725000X0.150000X-0.725000X0.150000X-0.725000X-0.150000X0.725000X-0.150000X0*%
%ADD70C,1.400000*%
%ADD71C,1.200000*%
%ADD72O,1.208000X2.800000*%
%ADD73FreePoly0,180.000000*%
%ADD74FreePoly1,180.000000*%
%ADD75R,0.700000X1.000000*%
%ADD76RoundRect,0.075000X-0.075000X0.662500X-0.075000X-0.662500X0.075000X-0.662500X0.075000X0.662500X0*%
%ADD77RoundRect,0.075000X-0.662500X0.075000X-0.662500X-0.075000X0.662500X-0.075000X0.662500X0.075000X0*%
%ADD78R,2.700000X3.600000*%
%ADD79RoundRect,0.150000X0.150000X-0.825000X0.150000X0.825000X-0.150000X0.825000X-0.150000X-0.825000X0*%
%ADD80RoundRect,0.100000X-0.637500X-0.100000X0.637500X-0.100000X0.637500X0.100000X-0.637500X0.100000X0*%
%ADD81R,0.250000X1.100000*%
%ADD82RoundRect,0.150000X0.150000X-0.725000X0.150000X0.725000X-0.150000X0.725000X-0.150000X-0.725000X0*%
%ADD83RoundRect,0.150000X-0.825000X-0.150000X0.825000X-0.150000X0.825000X0.150000X-0.825000X0.150000X0*%
%ADD84RoundRect,0.250001X1.099999X1.099999X-1.099999X1.099999X-1.099999X-1.099999X1.099999X-1.099999X0*%
%ADD85C,2.700000*%
%ADD86RoundRect,0.150000X-0.150000X0.587500X-0.150000X-0.587500X0.150000X-0.587500X0.150000X0.587500X0*%
%ADD87C,1.300000*%
%ADD88O,1.100000X1.800000*%
%ADD89R,0.900000X1.200000*%
%ADD90RoundRect,0.150000X-0.150000X0.875000X-0.150000X-0.875000X0.150000X-0.875000X0.150000X0.875000X0*%
%ADD91RoundRect,0.125000X0.125000X0.375000X-0.125000X0.375000X-0.125000X-0.375000X0.125000X-0.375000X0*%
%ADD92RoundRect,0.250000X0.350000X0.600000X-0.350000X0.600000X-0.350000X-0.600000X0.350000X-0.600000X0*%
%ADD93FreePoly2,90.000000*%
%ADD94FreePoly3,90.000000*%
%ADD95RoundRect,0.218750X0.256250X-0.218750X0.256250X0.218750X-0.256250X0.218750X-0.256250X-0.218750X0*%
%ADD96C,1.600000*%
%ADD97R,4.000000X2.000000*%
%ADD98O,3.300000X2.000000*%
%ADD99O,2.000000X3.500000*%
%ADD100O,3.000000X0.900000*%
%ADD101C,0.800000*%
%ADD102R,5.000000X5.000000*%
%ADD103RoundRect,0.250000X-0.275000X0.312500X-0.275000X-0.312500X0.275000X-0.312500X0.275000X0.312500X0*%
G04 APERTURE END LIST*
D10*
G36*
X217874666Y-118848863D02*
G01*
X215514666Y-120228863D01*
X215524666Y-119958863D01*
X217644666Y-118738863D01*
X217644666Y-116498863D01*
X215204666Y-117908863D01*
X215204666Y-121468863D01*
X218284666Y-123248863D01*
X221364666Y-121448863D01*
X221364666Y-120598863D01*
X219924666Y-119758863D01*
X219924666Y-119628863D01*
X221364666Y-118808863D01*
X221364666Y-118108863D01*
X221574666Y-117978863D01*
X221574666Y-118908863D01*
X220254666Y-119678863D01*
X221574666Y-120458863D01*
X221574666Y-121578863D01*
X218284666Y-123498863D01*
X214994666Y-121588863D01*
X214994666Y-117778863D01*
X217864666Y-116128863D01*
X217874666Y-118848863D01*
G37*
X217874666Y-118848863D02*
X215514666Y-120228863D01*
X215524666Y-119958863D01*
X217644666Y-118738863D01*
X217644666Y-116498863D01*
X215204666Y-117908863D01*
X215204666Y-121468863D01*
X218284666Y-123248863D01*
X221364666Y-121448863D01*
X221364666Y-120598863D01*
X219924666Y-119758863D01*
X219924666Y-119628863D01*
X221364666Y-118808863D01*
X221364666Y-118108863D01*
X221574666Y-117978863D01*
X221574666Y-118908863D01*
X220254666Y-119678863D01*
X221574666Y-120458863D01*
X221574666Y-121578863D01*
X218284666Y-123498863D01*
X214994666Y-121588863D01*
X214994666Y-117778863D01*
X217864666Y-116128863D01*
X217874666Y-118848863D01*
G36*
X221444666Y-117698863D02*
G01*
X221224666Y-117818863D01*
X218394666Y-116188863D01*
X218394666Y-122808863D01*
X218284666Y-122868863D01*
X215534666Y-121278863D01*
X215534666Y-120568863D01*
X215764666Y-120698863D01*
X215764666Y-121128863D01*
X218184666Y-122528863D01*
X218194666Y-115928863D01*
X218294666Y-115878863D01*
X221444666Y-117698863D01*
G37*
X221444666Y-117698863D02*
X221224666Y-117818863D01*
X218394666Y-116188863D01*
X218394666Y-122808863D01*
X218284666Y-122868863D01*
X215534666Y-121278863D01*
X215534666Y-120568863D01*
X215764666Y-120698863D01*
X215764666Y-121128863D01*
X218184666Y-122528863D01*
X218194666Y-115928863D01*
X218294666Y-115878863D01*
X221444666Y-117698863D01*
G36*
X218154666Y-119278863D02*
G01*
X215754666Y-120668863D01*
X215534666Y-120558863D01*
X218164666Y-119058863D01*
X218154666Y-119278863D01*
G37*
X218154666Y-119278863D02*
X215754666Y-120668863D01*
X215534666Y-120558863D01*
X218164666Y-119058863D01*
X218154666Y-119278863D01*
D11*
X180800000Y-205600000D02*
X181466666Y-205600000D01*
X180666666Y-205942857D02*
X181133333Y-204742857D01*
X181600000Y-205942857D01*
X182066666Y-205942857D02*
X182066666Y-204742857D01*
X182533333Y-205600000D01*
X183000000Y-204742857D01*
X183000000Y-205942857D01*
X183666666Y-205942857D02*
X183666666Y-204742857D01*
X184200000Y-204742857D01*
X184333333Y-204800000D01*
X184400000Y-204857142D01*
X184466666Y-204971428D01*
X184466666Y-205142857D01*
X184400000Y-205257142D01*
X184333333Y-205314285D01*
X184200000Y-205371428D01*
X183666666Y-205371428D01*
X185733333Y-205942857D02*
X185066666Y-205942857D01*
X185066666Y-204742857D01*
X186200000Y-205942857D02*
X186200000Y-204742857D01*
X187333333Y-205314285D02*
X186866666Y-205314285D01*
X186866666Y-205942857D02*
X186866666Y-204742857D01*
X187533333Y-204742857D01*
X188066666Y-205942857D02*
X188066666Y-204742857D01*
X188733333Y-205314285D02*
X189200000Y-205314285D01*
X189400000Y-205942857D02*
X188733333Y-205942857D01*
X188733333Y-204742857D01*
X189400000Y-204742857D01*
X190800000Y-205942857D02*
X190333333Y-205371428D01*
X190000000Y-205942857D02*
X190000000Y-204742857D01*
X190533333Y-204742857D01*
X190666666Y-204800000D01*
X190733333Y-204857142D01*
X190800000Y-204971428D01*
X190800000Y-205142857D01*
X190733333Y-205257142D01*
X190666666Y-205314285D01*
X190533333Y-205371428D01*
X190000000Y-205371428D01*
X192400000Y-204857142D02*
X192466666Y-204800000D01*
X192600000Y-204742857D01*
X192933333Y-204742857D01*
X193066666Y-204800000D01*
X193133333Y-204857142D01*
X193200000Y-204971428D01*
X193200000Y-205085714D01*
X193133333Y-205257142D01*
X192333333Y-205942857D01*
X193200000Y-205942857D01*
X275150000Y-205600000D02*
X275816666Y-205600000D01*
X275016666Y-205942857D02*
X275483333Y-204742857D01*
X275950000Y-205942857D01*
X276416666Y-205942857D02*
X276416666Y-204742857D01*
X276883333Y-205600000D01*
X277350000Y-204742857D01*
X277350000Y-205942857D01*
X278016666Y-205942857D02*
X278016666Y-204742857D01*
X278550000Y-204742857D01*
X278683333Y-204800000D01*
X278750000Y-204857142D01*
X278816666Y-204971428D01*
X278816666Y-205142857D01*
X278750000Y-205257142D01*
X278683333Y-205314285D01*
X278550000Y-205371428D01*
X278016666Y-205371428D01*
X280083333Y-205942857D02*
X279416666Y-205942857D01*
X279416666Y-204742857D01*
X280550000Y-205942857D02*
X280550000Y-204742857D01*
X281683333Y-205314285D02*
X281216666Y-205314285D01*
X281216666Y-205942857D02*
X281216666Y-204742857D01*
X281883333Y-204742857D01*
X282416666Y-205942857D02*
X282416666Y-204742857D01*
X283083333Y-205314285D02*
X283550000Y-205314285D01*
X283750000Y-205942857D02*
X283083333Y-205942857D01*
X283083333Y-204742857D01*
X283750000Y-204742857D01*
X285150000Y-205942857D02*
X284683333Y-205371428D01*
X284350000Y-205942857D02*
X284350000Y-204742857D01*
X284883333Y-204742857D01*
X285016666Y-204800000D01*
X285083333Y-204857142D01*
X285150000Y-204971428D01*
X285150000Y-205142857D01*
X285083333Y-205257142D01*
X285016666Y-205314285D01*
X284883333Y-205371428D01*
X284350000Y-205371428D01*
X287416666Y-205142857D02*
X287416666Y-205942857D01*
X287083333Y-204685714D02*
X286750000Y-205542857D01*
X287616666Y-205542857D01*
D12*
X312333333Y-196933333D02*
X311600000Y-196933333D01*
X311466666Y-197000000D01*
X311400000Y-197133333D01*
X311400000Y-197400000D01*
X311466666Y-197533333D01*
X312266666Y-196933333D02*
X312333333Y-197066666D01*
X312333333Y-197400000D01*
X312266666Y-197533333D01*
X312133333Y-197600000D01*
X312000000Y-197600000D01*
X311866666Y-197533333D01*
X311800000Y-197400000D01*
X311800000Y-197066666D01*
X311733333Y-196933333D01*
X312333333Y-195200000D02*
X311400000Y-195200000D01*
X311533333Y-195200000D02*
X311466666Y-195133333D01*
X311400000Y-195000000D01*
X311400000Y-194800000D01*
X311466666Y-194666666D01*
X311600000Y-194600000D01*
X312333333Y-194600000D01*
X311600000Y-194600000D02*
X311466666Y-194533333D01*
X311400000Y-194400000D01*
X311400000Y-194200000D01*
X311466666Y-194066666D01*
X311600000Y-194000000D01*
X312333333Y-194000000D01*
X311400000Y-192733333D02*
X312333333Y-192733333D01*
X311400000Y-193333333D02*
X312133333Y-193333333D01*
X312266666Y-193266666D01*
X312333333Y-193133333D01*
X312333333Y-192933333D01*
X312266666Y-192800000D01*
X312200000Y-192733333D01*
X312333333Y-191866666D02*
X312266666Y-192000000D01*
X312133333Y-192066666D01*
X310933333Y-192066666D01*
X311400000Y-191533333D02*
X311400000Y-191000000D01*
X310933333Y-191333333D02*
X312133333Y-191333333D01*
X312266666Y-191266666D01*
X312333333Y-191133333D01*
X312333333Y-191000000D01*
X312333333Y-190533333D02*
X311400000Y-190533333D01*
X310933333Y-190533333D02*
X311000000Y-190600000D01*
X311066666Y-190533333D01*
X311000000Y-190466666D01*
X310933333Y-190533333D01*
X311066666Y-190533333D01*
X312266666Y-188200000D02*
X312333333Y-188333333D01*
X312333333Y-188600000D01*
X312266666Y-188733333D01*
X312200000Y-188800000D01*
X312066666Y-188866666D01*
X311666666Y-188866666D01*
X311533333Y-188800000D01*
X311466666Y-188733333D01*
X311400000Y-188600000D01*
X311400000Y-188333333D01*
X311466666Y-188200000D01*
X312333333Y-187600000D02*
X310933333Y-187600000D01*
X312333333Y-187000000D02*
X311600000Y-187000000D01*
X311466666Y-187066666D01*
X311400000Y-187200000D01*
X311400000Y-187400000D01*
X311466666Y-187533333D01*
X311533333Y-187600000D01*
X312333333Y-185733333D02*
X311600000Y-185733333D01*
X311466666Y-185800000D01*
X311400000Y-185933333D01*
X311400000Y-186200000D01*
X311466666Y-186333333D01*
X312266666Y-185733333D02*
X312333333Y-185866666D01*
X312333333Y-186200000D01*
X312266666Y-186333333D01*
X312133333Y-186400000D01*
X312000000Y-186400000D01*
X311866666Y-186333333D01*
X311800000Y-186200000D01*
X311800000Y-185866666D01*
X311733333Y-185733333D01*
X311400000Y-185066666D02*
X312333333Y-185066666D01*
X311533333Y-185066666D02*
X311466666Y-185000000D01*
X311400000Y-184866666D01*
X311400000Y-184666666D01*
X311466666Y-184533333D01*
X311600000Y-184466666D01*
X312333333Y-184466666D01*
X311400000Y-183800000D02*
X312333333Y-183800000D01*
X311533333Y-183800000D02*
X311466666Y-183733333D01*
X311400000Y-183600000D01*
X311400000Y-183400000D01*
X311466666Y-183266666D01*
X311600000Y-183200000D01*
X312333333Y-183200000D01*
X312266666Y-182000000D02*
X312333333Y-182133333D01*
X312333333Y-182400000D01*
X312266666Y-182533333D01*
X312133333Y-182600000D01*
X311600000Y-182600000D01*
X311466666Y-182533333D01*
X311400000Y-182400000D01*
X311400000Y-182133333D01*
X311466666Y-182000000D01*
X311600000Y-181933333D01*
X311733333Y-181933333D01*
X311866666Y-182600000D01*
X312333333Y-181133333D02*
X312266666Y-181266666D01*
X312133333Y-181333333D01*
X310933333Y-181333333D01*
X312266666Y-179600000D02*
X312333333Y-179466666D01*
X312333333Y-179200000D01*
X312266666Y-179066666D01*
X312133333Y-179000000D01*
X312066666Y-179000000D01*
X311933333Y-179066666D01*
X311866666Y-179200000D01*
X311866666Y-179400000D01*
X311800000Y-179533333D01*
X311666666Y-179600000D01*
X311600000Y-179600000D01*
X311466666Y-179533333D01*
X311400000Y-179400000D01*
X311400000Y-179200000D01*
X311466666Y-179066666D01*
X312333333Y-178400000D02*
X311400000Y-178400000D01*
X311533333Y-178400000D02*
X311466666Y-178333333D01*
X311400000Y-178200000D01*
X311400000Y-178000000D01*
X311466666Y-177866666D01*
X311600000Y-177800000D01*
X312333333Y-177800000D01*
X311600000Y-177800000D02*
X311466666Y-177733333D01*
X311400000Y-177600000D01*
X311400000Y-177400000D01*
X311466666Y-177266666D01*
X311600000Y-177200000D01*
X312333333Y-177200000D01*
X312333333Y-175933333D02*
X311600000Y-175933333D01*
X311466666Y-176000000D01*
X311400000Y-176133333D01*
X311400000Y-176400000D01*
X311466666Y-176533333D01*
X312266666Y-175933333D02*
X312333333Y-176066666D01*
X312333333Y-176400000D01*
X312266666Y-176533333D01*
X312133333Y-176600000D01*
X312000000Y-176600000D01*
X311866666Y-176533333D01*
X311800000Y-176400000D01*
X311800000Y-176066666D01*
X311733333Y-175933333D01*
X312333333Y-175266666D02*
X311400000Y-175266666D01*
X311666666Y-175266666D02*
X311533333Y-175200000D01*
X311466666Y-175133333D01*
X311400000Y-175000000D01*
X311400000Y-174866666D01*
X311400000Y-174600000D02*
X311400000Y-174066666D01*
X310933333Y-174400000D02*
X312133333Y-174400000D01*
X312266666Y-174333333D01*
X312333333Y-174200000D01*
X312333333Y-174066666D01*
X312333333Y-171933333D02*
X311600000Y-171933333D01*
X311466666Y-172000000D01*
X311400000Y-172133333D01*
X311400000Y-172400000D01*
X311466666Y-172533333D01*
X312266666Y-171933333D02*
X312333333Y-172066666D01*
X312333333Y-172400000D01*
X312266666Y-172533333D01*
X312133333Y-172600000D01*
X312000000Y-172600000D01*
X311866666Y-172533333D01*
X311800000Y-172400000D01*
X311800000Y-172066666D01*
X311733333Y-171933333D01*
X312333333Y-171266666D02*
X311400000Y-171266666D01*
X311533333Y-171266666D02*
X311466666Y-171200000D01*
X311400000Y-171066666D01*
X311400000Y-170866666D01*
X311466666Y-170733333D01*
X311600000Y-170666666D01*
X312333333Y-170666666D01*
X311600000Y-170666666D02*
X311466666Y-170600000D01*
X311400000Y-170466666D01*
X311400000Y-170266666D01*
X311466666Y-170133333D01*
X311600000Y-170066666D01*
X312333333Y-170066666D01*
X311400000Y-169400000D02*
X312800000Y-169400000D01*
X311466666Y-169400000D02*
X311400000Y-169266666D01*
X311400000Y-169000000D01*
X311466666Y-168866666D01*
X311533333Y-168800000D01*
X311666666Y-168733333D01*
X312066666Y-168733333D01*
X312200000Y-168800000D01*
X312266666Y-168866666D01*
X312333333Y-169000000D01*
X312333333Y-169266666D01*
X312266666Y-169400000D01*
X312333333Y-167933333D02*
X312266666Y-168066666D01*
X312133333Y-168133333D01*
X310933333Y-168133333D01*
X312333333Y-167400000D02*
X311400000Y-167400000D01*
X310933333Y-167400000D02*
X311000000Y-167466666D01*
X311066666Y-167400000D01*
X311000000Y-167333333D01*
X310933333Y-167400000D01*
X311066666Y-167400000D01*
X311400000Y-166933333D02*
X311400000Y-166400000D01*
X312333333Y-166733333D02*
X311133333Y-166733333D01*
X311000000Y-166666666D01*
X310933333Y-166533333D01*
X310933333Y-166400000D01*
X312333333Y-165933333D02*
X311400000Y-165933333D01*
X310933333Y-165933333D02*
X311000000Y-166000000D01*
X311066666Y-165933333D01*
X311000000Y-165866666D01*
X310933333Y-165933333D01*
X311066666Y-165933333D01*
X312266666Y-164733333D02*
X312333333Y-164866666D01*
X312333333Y-165133333D01*
X312266666Y-165266666D01*
X312133333Y-165333333D01*
X311600000Y-165333333D01*
X311466666Y-165266666D01*
X311400000Y-165133333D01*
X311400000Y-164866666D01*
X311466666Y-164733333D01*
X311600000Y-164666666D01*
X311733333Y-164666666D01*
X311866666Y-165333333D01*
X312333333Y-164066666D02*
X311400000Y-164066666D01*
X311666666Y-164066666D02*
X311533333Y-164000000D01*
X311466666Y-163933333D01*
X311400000Y-163800000D01*
X311400000Y-163666666D01*
D11*
X228000000Y-205600000D02*
X228666666Y-205600000D01*
X227866666Y-205942857D02*
X228333333Y-204742857D01*
X228800000Y-205942857D01*
X229266666Y-205942857D02*
X229266666Y-204742857D01*
X229733333Y-205600000D01*
X230200000Y-204742857D01*
X230200000Y-205942857D01*
X230866666Y-205942857D02*
X230866666Y-204742857D01*
X231400000Y-204742857D01*
X231533333Y-204800000D01*
X231600000Y-204857142D01*
X231666666Y-204971428D01*
X231666666Y-205142857D01*
X231600000Y-205257142D01*
X231533333Y-205314285D01*
X231400000Y-205371428D01*
X230866666Y-205371428D01*
X232933333Y-205942857D02*
X232266666Y-205942857D01*
X232266666Y-204742857D01*
X233400000Y-205942857D02*
X233400000Y-204742857D01*
X234533333Y-205314285D02*
X234066666Y-205314285D01*
X234066666Y-205942857D02*
X234066666Y-204742857D01*
X234733333Y-204742857D01*
X235266666Y-205942857D02*
X235266666Y-204742857D01*
X235933333Y-205314285D02*
X236400000Y-205314285D01*
X236600000Y-205942857D02*
X235933333Y-205942857D01*
X235933333Y-204742857D01*
X236600000Y-204742857D01*
X238000000Y-205942857D02*
X237533333Y-205371428D01*
X237200000Y-205942857D02*
X237200000Y-204742857D01*
X237733333Y-204742857D01*
X237866666Y-204800000D01*
X237933333Y-204857142D01*
X238000000Y-204971428D01*
X238000000Y-205142857D01*
X237933333Y-205257142D01*
X237866666Y-205314285D01*
X237733333Y-205371428D01*
X237200000Y-205371428D01*
X239533333Y-204742857D02*
X240400000Y-204742857D01*
X239933333Y-205200000D01*
X240133333Y-205200000D01*
X240266666Y-205257142D01*
X240333333Y-205314285D01*
X240400000Y-205428571D01*
X240400000Y-205714285D01*
X240333333Y-205828571D01*
X240266666Y-205885714D01*
X240133333Y-205942857D01*
X239733333Y-205942857D01*
X239600000Y-205885714D01*
X239533333Y-205828571D01*
D13*
X309261904Y-193604761D02*
X304261904Y-193604761D01*
X309023809Y-193604761D02*
X309261904Y-194080952D01*
X309261904Y-195033333D01*
X309023809Y-195509523D01*
X308785714Y-195747619D01*
X308309523Y-195985714D01*
X306880952Y-195985714D01*
X306404761Y-195747619D01*
X306166666Y-195509523D01*
X305928571Y-195033333D01*
X305928571Y-194080952D01*
X306166666Y-193604761D01*
X309023809Y-189319047D02*
X309261904Y-189795238D01*
X309261904Y-190747619D01*
X309023809Y-191223809D01*
X308547619Y-191461904D01*
X306642857Y-191461904D01*
X306166666Y-191223809D01*
X305928571Y-190747619D01*
X305928571Y-189795238D01*
X306166666Y-189319047D01*
X306642857Y-189080952D01*
X307119047Y-189080952D01*
X307595238Y-191461904D01*
X309023809Y-184795238D02*
X309261904Y-185271428D01*
X309261904Y-186223809D01*
X309023809Y-186700000D01*
X308785714Y-186938095D01*
X308309523Y-187176190D01*
X306880952Y-187176190D01*
X306404761Y-186938095D01*
X306166666Y-186700000D01*
X305928571Y-186223809D01*
X305928571Y-185271428D01*
X306166666Y-184795238D01*
X309261904Y-180509523D02*
X306642857Y-180509523D01*
X306166666Y-180747619D01*
X305928571Y-181223809D01*
X305928571Y-182176190D01*
X306166666Y-182652380D01*
X309023809Y-180509523D02*
X309261904Y-180985714D01*
X309261904Y-182176190D01*
X309023809Y-182652380D01*
X308547619Y-182890476D01*
X308071428Y-182890476D01*
X307595238Y-182652380D01*
X307357142Y-182176190D01*
X307357142Y-180985714D01*
X307119047Y-180509523D01*
X304261904Y-178842857D02*
X309261904Y-177176190D01*
X304261904Y-175509523D01*
X309261904Y-173128571D02*
X309023809Y-173604761D01*
X308785714Y-173842857D01*
X308309523Y-174080952D01*
X306880952Y-174080952D01*
X306404761Y-173842857D01*
X306166666Y-173604761D01*
X305928571Y-173128571D01*
X305928571Y-172414285D01*
X306166666Y-171938095D01*
X306404761Y-171700000D01*
X306880952Y-171461904D01*
X308309523Y-171461904D01*
X308785714Y-171700000D01*
X309023809Y-171938095D01*
X309261904Y-172414285D01*
X309261904Y-173128571D01*
X309261904Y-169795238D02*
X305928571Y-167176190D01*
X305928571Y-169795238D02*
X309261904Y-167176190D01*
D11*
X133400000Y-205600000D02*
X134066666Y-205600000D01*
X133266666Y-205942857D02*
X133733333Y-204742857D01*
X134200000Y-205942857D01*
X134666666Y-205942857D02*
X134666666Y-204742857D01*
X135133333Y-205600000D01*
X135600000Y-204742857D01*
X135600000Y-205942857D01*
X136266666Y-205942857D02*
X136266666Y-204742857D01*
X136800000Y-204742857D01*
X136933333Y-204800000D01*
X137000000Y-204857142D01*
X137066666Y-204971428D01*
X137066666Y-205142857D01*
X137000000Y-205257142D01*
X136933333Y-205314285D01*
X136800000Y-205371428D01*
X136266666Y-205371428D01*
X138333333Y-205942857D02*
X137666666Y-205942857D01*
X137666666Y-204742857D01*
X138800000Y-205942857D02*
X138800000Y-204742857D01*
X139933333Y-205314285D02*
X139466666Y-205314285D01*
X139466666Y-205942857D02*
X139466666Y-204742857D01*
X140133333Y-204742857D01*
X140666666Y-205942857D02*
X140666666Y-204742857D01*
X141333333Y-205314285D02*
X141800000Y-205314285D01*
X142000000Y-205942857D02*
X141333333Y-205942857D01*
X141333333Y-204742857D01*
X142000000Y-204742857D01*
X143400000Y-205942857D02*
X142933333Y-205371428D01*
X142600000Y-205942857D02*
X142600000Y-204742857D01*
X143133333Y-204742857D01*
X143266666Y-204800000D01*
X143333333Y-204857142D01*
X143400000Y-204971428D01*
X143400000Y-205142857D01*
X143333333Y-205257142D01*
X143266666Y-205314285D01*
X143133333Y-205371428D01*
X142600000Y-205371428D01*
X145800000Y-205942857D02*
X145000000Y-205942857D01*
X145400000Y-205942857D02*
X145400000Y-204742857D01*
X145266666Y-204914285D01*
X145133333Y-205028571D01*
X145000000Y-205085714D01*
D14*
X271621071Y-115385714D02*
X270121071Y-115385714D01*
X270121071Y-115028571D01*
X270192500Y-114814285D01*
X270335357Y-114671428D01*
X270478214Y-114600000D01*
X270763928Y-114528571D01*
X270978214Y-114528571D01*
X271263928Y-114600000D01*
X271406785Y-114671428D01*
X271549642Y-114814285D01*
X271621071Y-115028571D01*
X271621071Y-115385714D01*
X271478214Y-113028571D02*
X271549642Y-113100000D01*
X271621071Y-113314285D01*
X271621071Y-113457142D01*
X271549642Y-113671428D01*
X271406785Y-113814285D01*
X271263928Y-113885714D01*
X270978214Y-113957142D01*
X270763928Y-113957142D01*
X270478214Y-113885714D01*
X270335357Y-113814285D01*
X270192500Y-113671428D01*
X270121071Y-113457142D01*
X270121071Y-113314285D01*
X270192500Y-113100000D01*
X270263928Y-113028571D01*
X271621071Y-111242857D02*
X270121071Y-111242857D01*
X271621071Y-110528571D02*
X270121071Y-110528571D01*
X271621071Y-109671428D01*
X270121071Y-109671428D01*
X271478214Y-108957142D02*
X271549642Y-108885714D01*
X271621071Y-108957142D01*
X271549642Y-109028571D01*
X271478214Y-108957142D01*
X271621071Y-108957142D01*
X270692500Y-108957142D02*
X270763928Y-108885714D01*
X270835357Y-108957142D01*
X270763928Y-109028571D01*
X270692500Y-108957142D01*
X270835357Y-108957142D01*
X274036071Y-114885714D02*
X274036071Y-115742857D01*
X274036071Y-115314285D02*
X272536071Y-115314285D01*
X272750357Y-115457142D01*
X272893214Y-115600000D01*
X272964642Y-115742857D01*
X272678928Y-114314285D02*
X272607500Y-114242857D01*
X272536071Y-114100000D01*
X272536071Y-113742857D01*
X272607500Y-113600000D01*
X272678928Y-113528571D01*
X272821785Y-113457142D01*
X272964642Y-113457142D01*
X273178928Y-113528571D01*
X274036071Y-114385714D01*
X274036071Y-113457142D01*
X273464642Y-112814285D02*
X273464642Y-111671428D01*
X272678928Y-111028571D02*
X272607500Y-110957142D01*
X272536071Y-110814285D01*
X272536071Y-110457142D01*
X272607500Y-110314285D01*
X272678928Y-110242857D01*
X272821785Y-110171428D01*
X272964642Y-110171428D01*
X273178928Y-110242857D01*
X274036071Y-111100000D01*
X274036071Y-110171428D01*
X272536071Y-108885714D02*
X272536071Y-109171428D01*
X272607500Y-109314285D01*
X272678928Y-109385714D01*
X272893214Y-109528571D01*
X273178928Y-109600000D01*
X273750357Y-109600000D01*
X273893214Y-109528571D01*
X273964642Y-109457142D01*
X274036071Y-109314285D01*
X274036071Y-109028571D01*
X273964642Y-108885714D01*
X273893214Y-108814285D01*
X273750357Y-108742857D01*
X273393214Y-108742857D01*
X273250357Y-108814285D01*
X273178928Y-108885714D01*
X273107500Y-109028571D01*
X273107500Y-109314285D01*
X273178928Y-109457142D01*
X273250357Y-109528571D01*
X273393214Y-109600000D01*
X272536071Y-108314285D02*
X274036071Y-107814285D01*
X272536071Y-107314285D01*
D15*
%TO.C,R7*%
X293400000Y-140575000D03*
X293400000Y-142225000D03*
%TD*%
D16*
%TO.C,D7*%
X290700000Y-134500000D03*
X286400000Y-134500000D03*
%TD*%
D17*
%TO.C,D3*%
X286200000Y-145700000D03*
X286200000Y-147800000D03*
%TD*%
D18*
%TO.C,R39*%
X115698000Y-134924800D03*
X117348000Y-134924800D03*
%TD*%
D19*
%TO.C,FB18*%
X218233600Y-193276400D03*
X218233600Y-196226400D03*
%TD*%
D20*
%TO.C,J18*%
X248448800Y-201662000D03*
X253448800Y-201662000D03*
%TD*%
D21*
%TO.C,C222*%
X255092200Y-154127200D03*
X253542200Y-154127200D03*
%TD*%
D22*
%TO.C,L6*%
X282750000Y-124548800D03*
X282750000Y-131051200D03*
X279750000Y-124548800D03*
X279750000Y-131051200D03*
%TD*%
D19*
%TO.C,FB16*%
X215896800Y-193278200D03*
X215896800Y-196228200D03*
%TD*%
D23*
%TO.C,C145*%
X270154450Y-191221550D03*
X270154450Y-189321550D03*
%TD*%
D24*
%TO.C,C108*%
X183868150Y-202682600D03*
X181968150Y-202682600D03*
%TD*%
D25*
%TO.C,C214*%
X162433000Y-163743100D03*
X162433000Y-162193100D03*
%TD*%
D26*
%TO.C,H3*%
X310000000Y-108254800D03*
%TD*%
D18*
%TO.C,R67*%
X255930400Y-155727400D03*
X257580400Y-155727400D03*
%TD*%
D27*
%TO.C,C57*%
X130098800Y-123926600D03*
X131873800Y-123926600D03*
%TD*%
D28*
%TO.C,J5*%
X120218200Y-105994200D03*
D29*
X122758200Y-105994200D03*
X125298200Y-105994200D03*
%TD*%
D25*
%TO.C,C94*%
X141222850Y-167221900D03*
X141222850Y-165671900D03*
%TD*%
D30*
%TO.C,U8*%
X177816800Y-125925500D03*
X178466800Y-125925500D03*
X179116800Y-125925500D03*
X179766800Y-125925500D03*
X180416800Y-125925500D03*
X181066800Y-125925500D03*
X181716800Y-125925500D03*
X182366800Y-125925500D03*
X183016800Y-125925500D03*
X183666800Y-125925500D03*
X184316800Y-125925500D03*
X184966800Y-125925500D03*
X185616800Y-125925500D03*
X186266800Y-125925500D03*
X186266800Y-120200500D03*
X185616800Y-120200500D03*
X184966800Y-120200500D03*
X184316800Y-120200500D03*
X183666800Y-120200500D03*
X183016800Y-120200500D03*
X182366800Y-120200500D03*
X181716800Y-120200500D03*
X181066800Y-120200500D03*
X180416800Y-120200500D03*
X179766800Y-120200500D03*
X179116800Y-120200500D03*
X178466800Y-120200500D03*
X177816800Y-120200500D03*
%TD*%
D23*
%TO.C,C151*%
X274193050Y-197241350D03*
X274193050Y-195341350D03*
%TD*%
D31*
%TO.C,C146*%
X289013650Y-193294150D03*
X290563650Y-193294150D03*
%TD*%
D23*
%TO.C,C81*%
X130166750Y-191212000D03*
X130166750Y-189312000D03*
%TD*%
D32*
%TO.C,U4*%
X111258850Y-146354800D03*
X111258850Y-147304800D03*
X111258850Y-148254800D03*
X113533850Y-148254800D03*
X113533850Y-146354800D03*
%TD*%
D33*
%TO.C,FB23*%
X210616800Y-154152600D03*
X212191800Y-154152600D03*
%TD*%
D19*
%TO.C,FB19*%
X249780400Y-193330800D03*
X249780400Y-196280800D03*
%TD*%
D34*
%TO.C,JP10*%
X250657100Y-166781000D03*
D35*
X250657100Y-165481000D03*
D36*
X250657100Y-164181000D03*
%TD*%
D37*
%TO.C,U17*%
X115144800Y-178585400D03*
X115144800Y-179220400D03*
X115144800Y-179855400D03*
X115144800Y-180490400D03*
X115144800Y-181125400D03*
X115144800Y-181760400D03*
X115144800Y-182395400D03*
X115144800Y-183030400D03*
X120414800Y-183030400D03*
X120414800Y-182395400D03*
X120414800Y-181760400D03*
X120414800Y-181125400D03*
X120414800Y-180490400D03*
X120414800Y-179855400D03*
X120414800Y-179220400D03*
X120414800Y-178585400D03*
%TD*%
D38*
%TO.C,C242*%
X291642800Y-140199800D03*
X291642800Y-142099800D03*
%TD*%
D39*
%TO.C,C73*%
X138066150Y-201387200D03*
X138066150Y-202937200D03*
%TD*%
D31*
%TO.C,C37*%
X119912600Y-111277400D03*
X121462600Y-111277400D03*
%TD*%
D25*
%TO.C,C243*%
X280720800Y-144539000D03*
X280720800Y-142989000D03*
%TD*%
D23*
%TO.C,C130*%
X290474450Y-191221550D03*
X290474450Y-189321550D03*
%TD*%
D40*
%TO.C,R47*%
X147116800Y-157378400D03*
X145466800Y-157378400D03*
%TD*%
D15*
%TO.C,R78*%
X289864800Y-140348200D03*
X289864800Y-141998200D03*
%TD*%
D21*
%TO.C,C150*%
X273672650Y-193294150D03*
X272122650Y-193294150D03*
%TD*%
D33*
%TO.C,FB3*%
X161213800Y-119558600D03*
X162788800Y-119558600D03*
%TD*%
D41*
%TO.C,JP18*%
X109372400Y-173756800D03*
D35*
X109372400Y-175056800D03*
D42*
X109372400Y-176356800D03*
%TD*%
D25*
%TO.C,C18*%
X157276800Y-188520000D03*
X157276800Y-186970000D03*
%TD*%
D21*
%TO.C,C82*%
X131652950Y-193284600D03*
X130102950Y-193284600D03*
%TD*%
D18*
%TO.C,R66*%
X255930400Y-152501600D03*
X257580400Y-152501600D03*
%TD*%
%TO.C,R19*%
X154165800Y-178587400D03*
X155815800Y-178587400D03*
%TD*%
D26*
%TO.C,H2*%
X310000000Y-203000000D03*
%TD*%
D43*
%TO.C,C120*%
X198036750Y-180125100D03*
X191536750Y-180125100D03*
%TD*%
D39*
%TO.C,C104*%
X190121550Y-201361200D03*
X190121550Y-202911200D03*
%TD*%
D34*
%TO.C,JP13*%
X109280700Y-185424600D03*
D35*
X109280700Y-184124600D03*
D36*
X109280700Y-182824600D03*
%TD*%
D40*
%TO.C,R44*%
X288893550Y-187145050D03*
X287243550Y-187145050D03*
%TD*%
D44*
%TO.C,C27*%
X147011800Y-120320600D03*
X143411800Y-120320600D03*
%TD*%
D45*
%TO.C,C6*%
X286461200Y-161210400D03*
X286461200Y-157610400D03*
%TD*%
D39*
%TO.C,C39*%
X125589800Y-112737600D03*
X125589800Y-114287600D03*
%TD*%
D46*
%TO.C,C153*%
X286190150Y-171250000D03*
X292690150Y-171250000D03*
%TD*%
D31*
%TO.C,C8*%
X200342200Y-132232400D03*
X201892200Y-132232400D03*
%TD*%
D47*
%TO.C,C200*%
X113512600Y-156782900D03*
X113512600Y-160382900D03*
%TD*%
D19*
%TO.C,FB14*%
X265564150Y-193288250D03*
X265564150Y-196238250D03*
%TD*%
D25*
%TO.C,C160*%
X301400000Y-196400000D03*
X301400000Y-194850000D03*
%TD*%
D43*
%TO.C,C121*%
X181750000Y-171300000D03*
X175250000Y-171300000D03*
%TD*%
D48*
%TO.C,R75*%
X149479000Y-131598200D03*
X149479000Y-129948200D03*
%TD*%
D23*
%TO.C,C149*%
X272186450Y-191221550D03*
X272186450Y-189321550D03*
%TD*%
D25*
%TO.C,C157*%
X267494550Y-196363450D03*
X267494550Y-194813450D03*
%TD*%
D31*
%TO.C,C197*%
X223049800Y-114050000D03*
X224599800Y-114050000D03*
%TD*%
D19*
%TO.C,FB5*%
X157428050Y-193331300D03*
X157428050Y-196281300D03*
%TD*%
D49*
%TO.C,C230*%
X192865600Y-158496000D03*
X196465600Y-158496000D03*
%TD*%
D25*
%TO.C,C14*%
X115342750Y-148079800D03*
X115342750Y-146529800D03*
%TD*%
D50*
%TO.C,C43*%
X127378000Y-122351800D03*
X125603000Y-122351800D03*
%TD*%
D21*
%TO.C,C2*%
X292481600Y-156967850D03*
X290931600Y-156967850D03*
%TD*%
D15*
%TO.C,R68*%
X215692200Y-163361000D03*
X215692200Y-165011000D03*
%TD*%
D48*
%TO.C,R30*%
X152882600Y-115519000D03*
X152882600Y-113869000D03*
%TD*%
D23*
%TO.C,C77*%
X128134750Y-191212000D03*
X128134750Y-189312000D03*
%TD*%
D51*
%TO.C,JP1*%
X203830400Y-139395200D03*
D52*
X205130400Y-139395200D03*
D53*
X206430400Y-139395200D03*
%TD*%
D31*
%TO.C,C67*%
X144237750Y-199355200D03*
X145787750Y-199355200D03*
%TD*%
D25*
%TO.C,C199*%
X237998000Y-138849400D03*
X237998000Y-137299400D03*
%TD*%
D54*
%TO.C,L3*%
X186648850Y-169136700D03*
X186648850Y-173536700D03*
%TD*%
D55*
%TO.C,C216*%
X160553400Y-164753700D03*
X160553400Y-167753700D03*
%TD*%
D39*
%TO.C,C10*%
X263906000Y-137692800D03*
X263906000Y-139242800D03*
%TD*%
D15*
%TO.C,R65*%
X254508000Y-155664400D03*
X254508000Y-157314400D03*
%TD*%
D25*
%TO.C,C144*%
X275127850Y-202451150D03*
X275127850Y-200901150D03*
%TD*%
D21*
%TO.C,C38*%
X118084600Y-120421400D03*
X116534600Y-120421400D03*
%TD*%
D26*
%TO.C,H1*%
X108000000Y-203000000D03*
%TD*%
D21*
%TO.C,C133*%
X290659350Y-185265450D03*
X289109350Y-185265450D03*
%TD*%
D48*
%TO.C,R20*%
X206314600Y-181089200D03*
X206314600Y-179439200D03*
%TD*%
D21*
%TO.C,C19*%
X110182700Y-178155600D03*
X108632700Y-178155600D03*
%TD*%
D56*
%TO.C,J9*%
X160350200Y-115692596D03*
X162890200Y-115692596D03*
X165430200Y-115692596D03*
D57*
X160350200Y-113062596D03*
X165430200Y-113062596D03*
D58*
X160090201Y-110452596D03*
X165690199Y-110452596D03*
%TD*%
D23*
%TO.C,C62*%
X148454750Y-191212000D03*
X148454750Y-189312000D03*
%TD*%
D51*
%TO.C,JP21*%
X161133000Y-187121800D03*
D52*
X162433000Y-187121800D03*
D53*
X163733000Y-187121800D03*
%TD*%
D59*
%TO.C,FB20*%
X117856000Y-174534100D03*
X117856000Y-176109100D03*
%TD*%
D18*
%TO.C,R38*%
X115673600Y-137972800D03*
X117323600Y-137972800D03*
%TD*%
D47*
%TO.C,C203*%
X122047000Y-156757500D03*
X122047000Y-160357500D03*
%TD*%
D31*
%TO.C,C36*%
X124078200Y-111252000D03*
X125628200Y-111252000D03*
%TD*%
D15*
%TO.C,R9*%
X302006000Y-157835600D03*
X302006000Y-159485600D03*
%TD*%
D23*
%TO.C,C95*%
X193779150Y-197231800D03*
X193779150Y-195331800D03*
%TD*%
D19*
%TO.C,FB8*%
X168564050Y-193280500D03*
X168564050Y-196230500D03*
%TD*%
D34*
%TO.C,JP32*%
X160350200Y-127259400D03*
D35*
X160350200Y-125959400D03*
D36*
X160350200Y-124659400D03*
%TD*%
D49*
%TO.C,C233*%
X192840200Y-149961600D03*
X196440200Y-149961600D03*
%TD*%
D18*
%TO.C,R22*%
X208664600Y-173685600D03*
X210314600Y-173685600D03*
%TD*%
D15*
%TO.C,R27*%
X211750200Y-172098600D03*
X211750200Y-173748600D03*
%TD*%
D20*
%TO.C,J11*%
X124825250Y-201664300D03*
X119825250Y-201664300D03*
%TD*%
D26*
%TO.C,H4*%
X108000000Y-108254800D03*
%TD*%
D25*
%TO.C,C212*%
X162483800Y-170470100D03*
X162483800Y-168920100D03*
%TD*%
D23*
%TO.C,C84*%
X132173350Y-191212000D03*
X132173350Y-189312000D03*
%TD*%
D20*
%TO.C,J13*%
X172181650Y-201664300D03*
X167181650Y-201664300D03*
%TD*%
D18*
%TO.C,R29*%
X143104600Y-117069400D03*
X144754600Y-117069400D03*
%TD*%
D46*
%TO.C,C88*%
X127914450Y-180175900D03*
X134414450Y-180175900D03*
%TD*%
D60*
%TO.C,U22*%
X191956800Y-153228800D03*
X191956800Y-153728800D03*
X191956800Y-154228800D03*
X191956800Y-154728800D03*
X191956800Y-155228800D03*
X196256800Y-155228800D03*
X196256800Y-154728800D03*
X196256800Y-154228800D03*
X196256800Y-153728800D03*
X196256800Y-153228800D03*
%TD*%
D15*
%TO.C,R21*%
X206314600Y-176404400D03*
X206314600Y-178054400D03*
%TD*%
D48*
%TO.C,R28*%
X182651600Y-129629200D03*
X182651600Y-127979200D03*
%TD*%
D61*
%TO.C,C226*%
X249375800Y-156057600D03*
X252375800Y-156057600D03*
%TD*%
D39*
%TO.C,C50*%
X108610400Y-130185900D03*
X108610400Y-131735900D03*
%TD*%
D44*
%TO.C,C28*%
X147011800Y-125908600D03*
X143411800Y-125908600D03*
%TD*%
D40*
%TO.C,R36*%
X121524800Y-115773200D03*
X119874800Y-115773200D03*
%TD*%
D19*
%TO.C,FB10*%
X170900850Y-193278700D03*
X170900850Y-196228700D03*
%TD*%
D43*
%TO.C,C154*%
X292700050Y-180134650D03*
X286200050Y-180134650D03*
%TD*%
D41*
%TO.C,JP11*%
X258368800Y-124988800D03*
D35*
X258368800Y-126288800D03*
D42*
X258368800Y-127588800D03*
%TD*%
D19*
%TO.C,FB7*%
X155091250Y-193333100D03*
X155091250Y-196283100D03*
%TD*%
D31*
%TO.C,C101*%
X191594150Y-199355200D03*
X193144150Y-199355200D03*
%TD*%
D23*
%TO.C,C132*%
X288442450Y-191221550D03*
X288442450Y-189321550D03*
%TD*%
D21*
%TO.C,C207*%
X115989400Y-177226500D03*
X114439400Y-177226500D03*
%TD*%
D48*
%TO.C,R64*%
X254508000Y-152576800D03*
X254508000Y-150926800D03*
%TD*%
D19*
%TO.C,FB12*%
X263227350Y-193290050D03*
X263227350Y-196240050D03*
%TD*%
D21*
%TO.C,C227*%
X255943400Y-163474400D03*
X254393400Y-163474400D03*
%TD*%
D55*
%TO.C,C205*%
X119761000Y-164728300D03*
X119761000Y-167728300D03*
%TD*%
D62*
%TO.C,TP2*%
X199847200Y-126492000D03*
%TD*%
D31*
%TO.C,C4*%
X294728600Y-159207200D03*
X296278600Y-159207200D03*
%TD*%
%TO.C,C56*%
X129984200Y-122250200D03*
X131534200Y-122250200D03*
%TD*%
D62*
%TO.C,TP3*%
X211988400Y-126492000D03*
%TD*%
D39*
%TO.C,C139*%
X283083050Y-201383750D03*
X283083050Y-202933750D03*
%TD*%
D62*
%TO.C,TP12*%
X205613000Y-170484800D03*
%TD*%
D63*
%TO.C,JP2*%
X301732100Y-111350000D03*
D64*
X300432100Y-111350000D03*
%TD*%
D39*
%TO.C,C127*%
X188579250Y-175489300D03*
X188579250Y-177039300D03*
%TD*%
D23*
%TO.C,C98*%
X193779150Y-191212000D03*
X193779150Y-189312000D03*
%TD*%
D25*
%TO.C,C194*%
X254050000Y-196391800D03*
X254050000Y-194841800D03*
%TD*%
D39*
%TO.C,C15*%
X111887000Y-183349600D03*
X111887000Y-184899600D03*
%TD*%
D20*
%TO.C,J15*%
X266844950Y-201673850D03*
X261844950Y-201673850D03*
%TD*%
D21*
%TO.C,C58*%
X131559600Y-127457200D03*
X130009600Y-127457200D03*
%TD*%
%TO.C,C20*%
X155765800Y-177088800D03*
X154215800Y-177088800D03*
%TD*%
D40*
%TO.C,R31*%
X125678200Y-109728000D03*
X124028200Y-109728000D03*
%TD*%
D15*
%TO.C,R50*%
X123083800Y-177138500D03*
X123083800Y-178788500D03*
%TD*%
%TO.C,R51*%
X123088400Y-180147500D03*
X123088400Y-181797500D03*
%TD*%
D28*
%TO.C,J6*%
X124000000Y-168800000D03*
D29*
X124000000Y-166260000D03*
X124000000Y-163720000D03*
%TD*%
D31*
%TO.C,C46*%
X125753300Y-120675400D03*
X127303300Y-120675400D03*
%TD*%
D25*
%TO.C,C92*%
X159350000Y-196394100D03*
X159350000Y-194844100D03*
%TD*%
D32*
%TO.C,U1*%
X290569100Y-158557850D03*
X290569100Y-159507850D03*
X290569100Y-160457850D03*
X292844100Y-160457850D03*
X292844100Y-159507850D03*
X292844100Y-158557850D03*
%TD*%
D31*
%TO.C,C180*%
X241683100Y-193282300D03*
X243233100Y-193282300D03*
%TD*%
D15*
%TO.C,R54*%
X119456200Y-171282900D03*
X119456200Y-172932900D03*
%TD*%
D51*
%TO.C,JP42*%
X128651000Y-132283200D03*
D52*
X129951000Y-132283200D03*
D53*
X131251000Y-132283200D03*
%TD*%
D21*
%TO.C,C116*%
X179009350Y-193250000D03*
X177459350Y-193250000D03*
%TD*%
D62*
%TO.C,TP13*%
X215138000Y-170510200D03*
%TD*%
%TO.C,TP1*%
X202614000Y-126498000D03*
%TD*%
%TO.C,TP8*%
X158953200Y-185039000D03*
%TD*%
D46*
%TO.C,C156*%
X269934150Y-180185450D03*
X276434150Y-180185450D03*
%TD*%
D21*
%TO.C,C237*%
X208597800Y-163449000D03*
X207047800Y-163449000D03*
%TD*%
D31*
%TO.C,C52*%
X123875000Y-134289800D03*
X125425000Y-134289800D03*
%TD*%
D43*
%TO.C,C155*%
X276434150Y-171300000D03*
X269934150Y-171300000D03*
%TD*%
D28*
%TO.C,J10*%
X126288800Y-142138400D03*
D29*
X123748800Y-142138400D03*
X121208800Y-142138400D03*
X118668800Y-142138400D03*
X116128800Y-142138400D03*
X113588800Y-142138400D03*
%TD*%
D59*
%TO.C,D6*%
X144297800Y-129977400D03*
X144297800Y-131552400D03*
%TD*%
D23*
%TO.C,C147*%
X292481050Y-191206350D03*
X292481050Y-189306350D03*
%TD*%
D65*
%TO.C,C69*%
X144289150Y-202631800D03*
X146189150Y-202631800D03*
%TD*%
D15*
%TO.C,R56*%
X167737000Y-177163900D03*
X167737000Y-178813900D03*
%TD*%
D21*
%TO.C,C184*%
X226342100Y-193250000D03*
X224792100Y-193250000D03*
%TD*%
D15*
%TO.C,R10*%
X296000000Y-111000000D03*
X296000000Y-112650000D03*
%TD*%
D21*
%TO.C,C240*%
X281276000Y-122161200D03*
X279726000Y-122161200D03*
%TD*%
D61*
%TO.C,C225*%
X249375800Y-152196800D03*
X252375800Y-152196800D03*
%TD*%
D15*
%TO.C,R14*%
X261077000Y-179927800D03*
X261077000Y-181577800D03*
%TD*%
D48*
%TO.C,R23*%
X122199400Y-187933600D03*
X122199400Y-186283600D03*
%TD*%
D21*
%TO.C,C201*%
X114731800Y-154417300D03*
X113181800Y-154417300D03*
%TD*%
D23*
%TO.C,C113*%
X197817750Y-191196800D03*
X197817750Y-189296800D03*
%TD*%
D25*
%TO.C,C124*%
X166633650Y-196341500D03*
X166633650Y-194791500D03*
%TD*%
%TO.C,C110*%
X180464550Y-202441600D03*
X180464550Y-200891600D03*
%TD*%
D66*
%TO.C,U11*%
X191088400Y-196526600D03*
X191088400Y-196026600D03*
X191088400Y-195526600D03*
X191088400Y-195026600D03*
X191088400Y-194526600D03*
X191088400Y-194026600D03*
X191088400Y-193526600D03*
X191088400Y-193026600D03*
X191088400Y-192526600D03*
X191088400Y-192026600D03*
X191088400Y-191526600D03*
X191088400Y-191026600D03*
X191088400Y-190526600D03*
X191088400Y-190026600D03*
X191088400Y-189526600D03*
X191088400Y-189026600D03*
D67*
X190400900Y-188339100D03*
X189900900Y-188339100D03*
X189400900Y-188339100D03*
X188900900Y-188339100D03*
X188400900Y-188339100D03*
X187900900Y-188339100D03*
X187400900Y-188339100D03*
X186900900Y-188339100D03*
X186400900Y-188339100D03*
X185900900Y-188339100D03*
X185400900Y-188339100D03*
X184900900Y-188339100D03*
X184400900Y-188339100D03*
X183900900Y-188339100D03*
X183400900Y-188339100D03*
X182900900Y-188339100D03*
D66*
X182213400Y-189026600D03*
X182213400Y-189526600D03*
X182213400Y-190026600D03*
X182213400Y-190526600D03*
X182213400Y-191026600D03*
X182213400Y-191526600D03*
X182213400Y-192026600D03*
X182213400Y-192526600D03*
X182213400Y-193026600D03*
X182213400Y-193526600D03*
X182213400Y-194026600D03*
X182213400Y-194526600D03*
X182213400Y-195026600D03*
X182213400Y-195526600D03*
X182213400Y-196026600D03*
X182213400Y-196526600D03*
D67*
X182900900Y-197214100D03*
X183400900Y-197214100D03*
X183900900Y-197214100D03*
X184400900Y-197214100D03*
X184900900Y-197214100D03*
X185400900Y-197214100D03*
X185900900Y-197214100D03*
X186400900Y-197214100D03*
X186900900Y-197214100D03*
X187400900Y-197214100D03*
X187900900Y-197214100D03*
X188400900Y-197214100D03*
X188900900Y-197214100D03*
X189400900Y-197214100D03*
X189900900Y-197214100D03*
X190400900Y-197214100D03*
D68*
X186650900Y-192776600D03*
%TD*%
D59*
%TO.C,FB21*%
X162509200Y-174559500D03*
X162509200Y-176134500D03*
%TD*%
D18*
%TO.C,R17*%
X256506000Y-174365000D03*
X258156000Y-174365000D03*
%TD*%
D69*
%TO.C,Q4*%
X287817000Y-141452600D03*
X287817000Y-140182600D03*
X287817000Y-138912600D03*
X287817000Y-137642600D03*
X282667000Y-137642600D03*
X282667000Y-138912600D03*
X282667000Y-140182600D03*
X282667000Y-141452600D03*
%TD*%
D55*
%TO.C,C215*%
X164414200Y-164753700D03*
X164414200Y-167753700D03*
%TD*%
D70*
%TO.C,SW1*%
X301650000Y-107300000D03*
X298650000Y-107300000D03*
D71*
X295650000Y-107300000D03*
D72*
X304950000Y-107300000D03*
X292450000Y-107300000D03*
%TD*%
D25*
%TO.C,C26*%
X152900000Y-129650000D03*
X152900000Y-128100000D03*
%TD*%
D51*
%TO.C,JP22*%
X116302000Y-189407800D03*
D52*
X117602000Y-189407800D03*
D53*
X118902000Y-189407800D03*
%TD*%
D18*
%TO.C,R72*%
X207365600Y-152552400D03*
X209015600Y-152552400D03*
%TD*%
D39*
%TO.C,C24*%
X206314600Y-173418600D03*
X206314600Y-174968600D03*
%TD*%
D54*
%TO.C,L2*%
X139292450Y-169136700D03*
X139292450Y-173536700D03*
%TD*%
D25*
%TO.C,C106*%
X186921150Y-202924800D03*
X186921150Y-201374800D03*
%TD*%
D31*
%TO.C,C44*%
X125766300Y-117627400D03*
X127316300Y-117627400D03*
%TD*%
D18*
%TO.C,R52*%
X119381000Y-169860500D03*
X121031000Y-169860500D03*
%TD*%
D41*
%TO.C,JP15*%
X109286300Y-187676000D03*
D35*
X109286300Y-188976000D03*
D42*
X109286300Y-190276000D03*
%TD*%
D73*
%TO.C,JP36*%
X149102600Y-114021400D03*
D52*
X147802600Y-114021400D03*
D74*
X146502600Y-114021400D03*
%TD*%
D31*
%TO.C,C112*%
X194350350Y-193284600D03*
X195900350Y-193284600D03*
%TD*%
D15*
%TO.C,R6*%
X239495880Y-137250136D03*
X239495880Y-138900136D03*
%TD*%
D39*
%TO.C,C13*%
X261077000Y-176942800D03*
X261077000Y-178492800D03*
%TD*%
%TO.C,C29*%
X180670200Y-115938000D03*
X180670200Y-117488000D03*
%TD*%
D28*
%TO.C,J7*%
X168800000Y-168825000D03*
D29*
X168800000Y-166285000D03*
X168800000Y-163745000D03*
%TD*%
D19*
%TO.C,FB11*%
X202447650Y-193333100D03*
X202447650Y-196283100D03*
%TD*%
D15*
%TO.C,R11*%
X263906000Y-132880600D03*
X263906000Y-134530600D03*
%TD*%
D25*
%TO.C,C193*%
X247850000Y-196391800D03*
X247850000Y-194841800D03*
%TD*%
D41*
%TO.C,JP33*%
X203063400Y-181168300D03*
D35*
X203063400Y-182468300D03*
D42*
X203063400Y-183768300D03*
%TD*%
D40*
%TO.C,R43*%
X194230250Y-187135500D03*
X192580250Y-187135500D03*
%TD*%
D23*
%TO.C,C181*%
X245150500Y-191194500D03*
X245150500Y-189294500D03*
%TD*%
D25*
%TO.C,C140*%
X281584450Y-202934350D03*
X281584450Y-201384350D03*
%TD*%
D21*
%TO.C,C211*%
X159385000Y-154442700D03*
X157835000Y-154442700D03*
%TD*%
D75*
%TO.C,Q3*%
X147802600Y-132157000D03*
X145902600Y-132157000D03*
X146852600Y-134557000D03*
%TD*%
D25*
%TO.C,C17*%
X111861600Y-189725600D03*
X111861600Y-188175600D03*
%TD*%
D40*
%TO.C,R42*%
X146873850Y-187135500D03*
X145223850Y-187135500D03*
%TD*%
D31*
%TO.C,C169*%
X238926900Y-199352900D03*
X240476900Y-199352900D03*
%TD*%
D41*
%TO.C,JP31*%
X162890200Y-124680200D03*
D35*
X162890200Y-125980200D03*
D42*
X162890200Y-127280200D03*
%TD*%
D50*
%TO.C,C45*%
X114945900Y-122097800D03*
X113170900Y-122097800D03*
%TD*%
D66*
%TO.C,U13*%
X238421150Y-196524300D03*
X238421150Y-196024300D03*
X238421150Y-195524300D03*
X238421150Y-195024300D03*
X238421150Y-194524300D03*
X238421150Y-194024300D03*
X238421150Y-193524300D03*
X238421150Y-193024300D03*
X238421150Y-192524300D03*
X238421150Y-192024300D03*
X238421150Y-191524300D03*
X238421150Y-191024300D03*
X238421150Y-190524300D03*
X238421150Y-190024300D03*
X238421150Y-189524300D03*
X238421150Y-189024300D03*
D67*
X237733650Y-188336800D03*
X237233650Y-188336800D03*
X236733650Y-188336800D03*
X236233650Y-188336800D03*
X235733650Y-188336800D03*
X235233650Y-188336800D03*
X234733650Y-188336800D03*
X234233650Y-188336800D03*
X233733650Y-188336800D03*
X233233650Y-188336800D03*
X232733650Y-188336800D03*
X232233650Y-188336800D03*
X231733650Y-188336800D03*
X231233650Y-188336800D03*
X230733650Y-188336800D03*
X230233650Y-188336800D03*
D66*
X229546150Y-189024300D03*
X229546150Y-189524300D03*
X229546150Y-190024300D03*
X229546150Y-190524300D03*
X229546150Y-191024300D03*
X229546150Y-191524300D03*
X229546150Y-192024300D03*
X229546150Y-192524300D03*
X229546150Y-193024300D03*
X229546150Y-193524300D03*
X229546150Y-194024300D03*
X229546150Y-194524300D03*
X229546150Y-195024300D03*
X229546150Y-195524300D03*
X229546150Y-196024300D03*
X229546150Y-196524300D03*
D67*
X230233650Y-197211800D03*
X230733650Y-197211800D03*
X231233650Y-197211800D03*
X231733650Y-197211800D03*
X232233650Y-197211800D03*
X232733650Y-197211800D03*
X233233650Y-197211800D03*
X233733650Y-197211800D03*
X234233650Y-197211800D03*
X234733650Y-197211800D03*
X235233650Y-197211800D03*
X235733650Y-197211800D03*
X236233650Y-197211800D03*
X236733650Y-197211800D03*
X237233650Y-197211800D03*
X237733650Y-197211800D03*
D68*
X233983650Y-192774300D03*
%TD*%
D23*
%TO.C,C164*%
X243143900Y-191209700D03*
X243143900Y-189309700D03*
%TD*%
D48*
%TO.C,R49*%
X148793200Y-154990800D03*
X148793200Y-153340800D03*
%TD*%
D33*
%TO.C,FB1*%
X200329700Y-130708400D03*
X201904700Y-130708400D03*
%TD*%
D20*
%TO.C,J14*%
X201116050Y-201664300D03*
X206116050Y-201664300D03*
%TD*%
D23*
%TO.C,C186*%
X226862500Y-191209700D03*
X226862500Y-189309700D03*
%TD*%
%TO.C,C79*%
X150461350Y-191196800D03*
X150461350Y-189296800D03*
%TD*%
D55*
%TO.C,C219*%
X158191200Y-175019500D03*
X158191200Y-172019500D03*
%TD*%
D39*
%TO.C,C70*%
X142765150Y-201361200D03*
X142765150Y-202911200D03*
%TD*%
D62*
%TO.C,TP5*%
X155100000Y-130000000D03*
%TD*%
D61*
%TO.C,C236*%
X200811000Y-156108400D03*
X203811000Y-156108400D03*
%TD*%
D25*
%TO.C,C162*%
X283242550Y-167231450D03*
X283242550Y-165681450D03*
%TD*%
D73*
%TO.C,JP35*%
X149102600Y-116561400D03*
D52*
X147802600Y-116561400D03*
D74*
X146502600Y-116561400D03*
%TD*%
D41*
%TO.C,JP12*%
X255828800Y-124988800D03*
D35*
X255828800Y-126288800D03*
D42*
X255828800Y-127588800D03*
%TD*%
D47*
%TO.C,C213*%
X166700200Y-156782900D03*
X166700200Y-160382900D03*
%TD*%
D15*
%TO.C,R57*%
X167741600Y-180172900D03*
X167741600Y-181822900D03*
%TD*%
D46*
%TO.C,C122*%
X175270850Y-180175900D03*
X181770850Y-180175900D03*
%TD*%
D23*
%TO.C,C63*%
X148429350Y-197221600D03*
X148429350Y-195321600D03*
%TD*%
D25*
%TO.C,C174*%
X234253900Y-202922500D03*
X234253900Y-201372500D03*
%TD*%
D41*
%TO.C,JP39*%
X172592500Y-124650000D03*
D35*
X172592500Y-125950000D03*
D42*
X172592500Y-127250000D03*
%TD*%
D15*
%TO.C,R24*%
X167030400Y-186525400D03*
X167030400Y-188175400D03*
%TD*%
D39*
%TO.C,C40*%
X124091200Y-112737600D03*
X124091200Y-114287600D03*
%TD*%
D48*
%TO.C,R34*%
X122783600Y-120941600D03*
X122783600Y-119291600D03*
%TD*%
D23*
%TO.C,C163*%
X241111900Y-197229500D03*
X241111900Y-195329500D03*
%TD*%
D19*
%TO.C,FB15*%
X297110950Y-193342650D03*
X297110950Y-196292650D03*
%TD*%
D39*
%TO.C,C16*%
X157276800Y-181584600D03*
X157276800Y-183134600D03*
%TD*%
D48*
%TO.C,R37*%
X109524800Y-128306800D03*
X109524800Y-126656800D03*
%TD*%
D76*
%TO.C,IC1*%
X123781000Y-123370900D03*
X123281000Y-123370900D03*
X122781000Y-123370900D03*
X122281000Y-123370900D03*
X121781000Y-123370900D03*
X121281000Y-123370900D03*
X120781000Y-123370900D03*
X120281000Y-123370900D03*
X119781000Y-123370900D03*
X119281000Y-123370900D03*
X118781000Y-123370900D03*
X118281000Y-123370900D03*
D77*
X116868500Y-124783400D03*
X116868500Y-125283400D03*
X116868500Y-125783400D03*
X116868500Y-126283400D03*
X116868500Y-126783400D03*
X116868500Y-127283400D03*
X116868500Y-127783400D03*
X116868500Y-128283400D03*
X116868500Y-128783400D03*
X116868500Y-129283400D03*
X116868500Y-129783400D03*
X116868500Y-130283400D03*
D76*
X118281000Y-131695900D03*
X118781000Y-131695900D03*
X119281000Y-131695900D03*
X119781000Y-131695900D03*
X120281000Y-131695900D03*
X120781000Y-131695900D03*
X121281000Y-131695900D03*
X121781000Y-131695900D03*
X122281000Y-131695900D03*
X122781000Y-131695900D03*
X123281000Y-131695900D03*
X123781000Y-131695900D03*
D77*
X125193500Y-130283400D03*
X125193500Y-129783400D03*
X125193500Y-129283400D03*
X125193500Y-128783400D03*
X125193500Y-128283400D03*
X125193500Y-127783400D03*
X125193500Y-127283400D03*
X125193500Y-126783400D03*
X125193500Y-126283400D03*
X125193500Y-125783400D03*
X125193500Y-125283400D03*
X125193500Y-124783400D03*
%TD*%
D40*
%TO.C,R53*%
X116293400Y-169860500D03*
X114643400Y-169860500D03*
%TD*%
D23*
%TO.C,C96*%
X195811150Y-191212000D03*
X195811150Y-189312000D03*
%TD*%
D20*
%TO.C,J16*%
X295779350Y-201673850D03*
X300779350Y-201673850D03*
%TD*%
D21*
%TO.C,C217*%
X160642600Y-177251900D03*
X159092600Y-177251900D03*
%TD*%
D25*
%TO.C,C31*%
X181076600Y-129578400D03*
X181076600Y-128028400D03*
%TD*%
D15*
%TO.C,R25*%
X213325000Y-179439200D03*
X213325000Y-181089200D03*
%TD*%
D46*
%TO.C,C187*%
X238850000Y-171250000D03*
X245350000Y-171250000D03*
%TD*%
D37*
%TO.C,U19*%
X159798000Y-178610800D03*
X159798000Y-179245800D03*
X159798000Y-179880800D03*
X159798000Y-180515800D03*
X159798000Y-181150800D03*
X159798000Y-181785800D03*
X159798000Y-182420800D03*
X159798000Y-183055800D03*
X165068000Y-183055800D03*
X165068000Y-182420800D03*
X165068000Y-181785800D03*
X165068000Y-181150800D03*
X165068000Y-180515800D03*
X165068000Y-179880800D03*
X165068000Y-179245800D03*
X165068000Y-178610800D03*
%TD*%
D25*
%TO.C,C90*%
X119277250Y-196341500D03*
X119277250Y-194791500D03*
%TD*%
D19*
%TO.C,FB13*%
X299447750Y-193340850D03*
X299447750Y-196290850D03*
%TD*%
D39*
%TO.C,C221*%
X239064800Y-157226000D03*
X239064800Y-158776000D03*
%TD*%
%TO.C,C23*%
X213325000Y-176478800D03*
X213325000Y-178028800D03*
%TD*%
D25*
%TO.C,C30*%
X206314600Y-184087200D03*
X206314600Y-182537200D03*
%TD*%
D31*
%TO.C,C49*%
X113512000Y-118872000D03*
X115062000Y-118872000D03*
%TD*%
D39*
%TO.C,C71*%
X141063350Y-201374200D03*
X141063350Y-202924200D03*
%TD*%
D21*
%TO.C,C224*%
X248365200Y-154178000D03*
X246815200Y-154178000D03*
%TD*%
D25*
%TO.C,C204*%
X117779800Y-163717700D03*
X117779800Y-162167700D03*
%TD*%
D24*
%TO.C,C142*%
X278531450Y-202692150D03*
X276631450Y-202692150D03*
%TD*%
%TO.C,C176*%
X231200900Y-202680300D03*
X229300900Y-202680300D03*
%TD*%
D78*
%TO.C,L1*%
X297113600Y-150571200D03*
X288813600Y-150571200D03*
%TD*%
D62*
%TO.C,TP6*%
X113995200Y-184988200D03*
%TD*%
D15*
%TO.C,R69*%
X215696800Y-166370000D03*
X215696800Y-168020000D03*
%TD*%
D41*
%TO.C,JP16*%
X154955500Y-185186800D03*
D35*
X154955500Y-186486800D03*
D42*
X154955500Y-187786800D03*
%TD*%
D15*
%TO.C,R71*%
X205943200Y-155715200D03*
X205943200Y-157365200D03*
%TD*%
D39*
%TO.C,C41*%
X121449600Y-112763000D03*
X121449600Y-114313000D03*
%TD*%
D49*
%TO.C,C220*%
X241430400Y-158445200D03*
X245030400Y-158445200D03*
%TD*%
D25*
%TO.C,C128*%
X188579250Y-167221900D03*
X188579250Y-165671900D03*
%TD*%
D54*
%TO.C,L5*%
X233981600Y-169134400D03*
X233981600Y-173534400D03*
%TD*%
D34*
%TO.C,JP28*%
X203047900Y-176300700D03*
D35*
X203047900Y-175000700D03*
D36*
X203047900Y-173700700D03*
%TD*%
D31*
%TO.C,C32*%
X171716400Y-121031000D03*
X173266400Y-121031000D03*
%TD*%
D39*
%TO.C,C1*%
X300482000Y-157911200D03*
X300482000Y-159461200D03*
%TD*%
D31*
%TO.C,C78*%
X146993950Y-193284600D03*
X148543950Y-193284600D03*
%TD*%
D23*
%TO.C,C179*%
X222823900Y-191209700D03*
X222823900Y-189309700D03*
%TD*%
D51*
%TO.C,JP37*%
X182469000Y-114782600D03*
D52*
X183769000Y-114782600D03*
D53*
X185069000Y-114782600D03*
%TD*%
D15*
%TO.C,R41*%
X126910600Y-134226800D03*
X126910600Y-135876800D03*
%TD*%
D23*
%TO.C,C185*%
X226862500Y-197229500D03*
X226862500Y-195329500D03*
%TD*%
D62*
%TO.C,TP11*%
X262483600Y-170535600D03*
%TD*%
D61*
%TO.C,C238*%
X211076800Y-149860000D03*
X208076800Y-149860000D03*
%TD*%
D31*
%TO.C,C170*%
X238756800Y-185253600D03*
X240306800Y-185253600D03*
%TD*%
D39*
%TO.C,C11*%
X254092000Y-173920200D03*
X254092000Y-175470200D03*
%TD*%
D32*
%TO.C,U15*%
X233863300Y-137124400D03*
X233863300Y-138074400D03*
X233863300Y-139024400D03*
X236138300Y-139024400D03*
X236138300Y-137124400D03*
%TD*%
D37*
%TO.C,U23*%
X207753200Y-164807900D03*
X207753200Y-165442900D03*
X207753200Y-166077900D03*
X207753200Y-166712900D03*
X207753200Y-167347900D03*
X207753200Y-167982900D03*
X207753200Y-168617900D03*
X207753200Y-169252900D03*
X213023200Y-169252900D03*
X213023200Y-168617900D03*
X213023200Y-167982900D03*
X213023200Y-167347900D03*
X213023200Y-166712900D03*
X213023200Y-166077900D03*
X213023200Y-165442900D03*
X213023200Y-164807900D03*
%TD*%
D23*
%TO.C,C83*%
X132173350Y-197231800D03*
X132173350Y-195331800D03*
%TD*%
D55*
%TO.C,C209*%
X113538000Y-174994100D03*
X113538000Y-171994100D03*
%TD*%
D37*
%TO.C,U21*%
X255098800Y-164833300D03*
X255098800Y-165468300D03*
X255098800Y-166103300D03*
X255098800Y-166738300D03*
X255098800Y-167373300D03*
X255098800Y-168008300D03*
X255098800Y-168643300D03*
X255098800Y-169278300D03*
X260368800Y-169278300D03*
X260368800Y-168643300D03*
X260368800Y-168008300D03*
X260368800Y-167373300D03*
X260368800Y-166738300D03*
X260368800Y-166103300D03*
X260368800Y-165468300D03*
X260368800Y-164833300D03*
%TD*%
D31*
%TO.C,C100*%
X191594750Y-200879200D03*
X193144750Y-200879200D03*
%TD*%
D46*
%TO.C,C7*%
X295190100Y-164642800D03*
X301690100Y-164642800D03*
%TD*%
D15*
%TO.C,R76*%
X144348600Y-133001000D03*
X144348600Y-134651000D03*
%TD*%
D23*
%TO.C,C182*%
X224855900Y-197239700D03*
X224855900Y-195339700D03*
%TD*%
D79*
%TO.C,IC2*%
X110337600Y-135190000D03*
X111607600Y-135190000D03*
X112877600Y-135190000D03*
X114147600Y-135190000D03*
X114147600Y-130240000D03*
X112877600Y-130240000D03*
X111607600Y-130240000D03*
X110337600Y-130240000D03*
%TD*%
D18*
%TO.C,R35*%
X124016000Y-115773200D03*
X125666000Y-115773200D03*
%TD*%
D62*
%TO.C,TP9*%
X167182800Y-184313100D03*
%TD*%
D39*
%TO.C,C231*%
X190500000Y-157276800D03*
X190500000Y-158826800D03*
%TD*%
D23*
%TO.C,C111*%
X175491150Y-191212000D03*
X175491150Y-189312000D03*
%TD*%
D80*
%TO.C,U7*%
X204553900Y-109180200D03*
X204553900Y-109830200D03*
X204553900Y-110480200D03*
X204553900Y-111130200D03*
X204553900Y-111780200D03*
X204553900Y-112430200D03*
X204553900Y-113080200D03*
X204553900Y-113730200D03*
X210278900Y-113730200D03*
X210278900Y-113080200D03*
X210278900Y-112430200D03*
X210278900Y-111780200D03*
X210278900Y-111130200D03*
X210278900Y-110480200D03*
X210278900Y-109830200D03*
X210278900Y-109180200D03*
%TD*%
D15*
%TO.C,R13*%
X261102400Y-172778000D03*
X261102400Y-174428000D03*
%TD*%
D43*
%TO.C,C86*%
X150680350Y-180050000D03*
X144180350Y-180050000D03*
%TD*%
D39*
%TO.C,C198*%
X231387500Y-137363200D03*
X231387500Y-138913200D03*
%TD*%
D40*
%TO.C,R4*%
X305105700Y-112874000D03*
X303455700Y-112874000D03*
%TD*%
D34*
%TO.C,JP40*%
X175183800Y-127258600D03*
D35*
X175183800Y-125958600D03*
D36*
X175183800Y-124658600D03*
%TD*%
D81*
%TO.C,U16*%
X118779800Y-155874100D03*
X118279800Y-155874100D03*
X117779800Y-155874100D03*
X117279800Y-155874100D03*
X116779800Y-155874100D03*
X116779800Y-160174100D03*
X117279800Y-160174100D03*
X117779800Y-160174100D03*
X118279800Y-160174100D03*
X118779800Y-160174100D03*
%TD*%
D59*
%TO.C,D1*%
X242594680Y-137287736D03*
X242594680Y-138862736D03*
%TD*%
D51*
%TO.C,JP43*%
X128646400Y-129448300D03*
D52*
X129946400Y-129448300D03*
D53*
X131246400Y-129448300D03*
%TD*%
D62*
%TO.C,TP4*%
X179755800Y-113258600D03*
%TD*%
D23*
%TO.C,C244*%
X282498800Y-144932400D03*
X282498800Y-143032400D03*
%TD*%
D82*
%TO.C,U5*%
X255692200Y-181791400D03*
X256962200Y-181791400D03*
X258232200Y-181791400D03*
X259502200Y-181791400D03*
X259502200Y-176641400D03*
X258232200Y-176641400D03*
X256962200Y-176641400D03*
X255692200Y-176641400D03*
%TD*%
D40*
%TO.C,R45*%
X241563000Y-187133200D03*
X239913000Y-187133200D03*
%TD*%
D25*
%TO.C,C191*%
X220164000Y-196351600D03*
X220164000Y-194801600D03*
%TD*%
D21*
%TO.C,C232*%
X206527400Y-154178000D03*
X204977400Y-154178000D03*
%TD*%
D18*
%TO.C,R40*%
X115672600Y-136448800D03*
X117322600Y-136448800D03*
%TD*%
D34*
%TO.C,JP14*%
X154965400Y-183067000D03*
D35*
X154965400Y-181767000D03*
D36*
X154965400Y-180467000D03*
%TD*%
D21*
%TO.C,C54*%
X125412000Y-135813800D03*
X123862000Y-135813800D03*
%TD*%
D61*
%TO.C,C228*%
X259641600Y-149809200D03*
X256641600Y-149809200D03*
%TD*%
D18*
%TO.C,R73*%
X207365600Y-155778200D03*
X209015600Y-155778200D03*
%TD*%
D25*
%TO.C,C202*%
X117830600Y-170444700D03*
X117830600Y-168894700D03*
%TD*%
D62*
%TO.C,TP7*%
X122529600Y-184287700D03*
%TD*%
D41*
%TO.C,JP9*%
X260908800Y-124988800D03*
D35*
X260908800Y-126288800D03*
D42*
X260908800Y-127588800D03*
%TD*%
D23*
%TO.C,C131*%
X290449050Y-197231150D03*
X290449050Y-195331150D03*
%TD*%
D31*
%TO.C,C75*%
X134598750Y-200930000D03*
X136148750Y-200930000D03*
%TD*%
D21*
%TO.C,C47*%
X127303900Y-119151400D03*
X125753900Y-119151400D03*
%TD*%
D83*
%TO.C,U2*%
X204992200Y-128397000D03*
X204992200Y-129667000D03*
X204992200Y-130937000D03*
X204992200Y-132207000D03*
X204992200Y-133477000D03*
X204992200Y-134747000D03*
X204992200Y-136017000D03*
X204992200Y-137287000D03*
X209942200Y-137287000D03*
X209942200Y-136017000D03*
X209942200Y-134747000D03*
X209942200Y-133477000D03*
X209942200Y-132207000D03*
X209942200Y-130937000D03*
X209942200Y-129667000D03*
X209942200Y-128397000D03*
%TD*%
D24*
%TO.C,C74*%
X136535200Y-202692000D03*
X134635200Y-202692000D03*
%TD*%
D46*
%TO.C,C119*%
X191526850Y-171250000D03*
X198026850Y-171250000D03*
%TD*%
D23*
%TO.C,C115*%
X177523150Y-191212000D03*
X177523150Y-189312000D03*
%TD*%
D18*
%TO.C,R5*%
X290767000Y-163880800D03*
X292417000Y-163880800D03*
%TD*%
D51*
%TO.C,JP29*%
X208504000Y-189093100D03*
D52*
X209804000Y-189093100D03*
D53*
X211104000Y-189093100D03*
%TD*%
D21*
%TO.C,C241*%
X282025000Y-133400000D03*
X280475000Y-133400000D03*
%TD*%
D43*
%TO.C,C189*%
X229103600Y-171300000D03*
X222603600Y-171300000D03*
%TD*%
D31*
%TO.C,C135*%
X286257450Y-199364750D03*
X287807450Y-199364750D03*
%TD*%
%TO.C,C177*%
X229287900Y-200927700D03*
X230837900Y-200927700D03*
%TD*%
D25*
%TO.C,C123*%
X172831250Y-196353900D03*
X172831250Y-194803900D03*
%TD*%
D23*
%TO.C,C80*%
X130166750Y-197242000D03*
X130166750Y-195342000D03*
%TD*%
D84*
%TO.C,J3*%
X283130000Y-113725000D03*
D85*
X279170000Y-113725000D03*
%TD*%
D39*
%TO.C,C59*%
X109550000Y-123725000D03*
X109550000Y-125275000D03*
%TD*%
D25*
%TO.C,C9*%
X254092000Y-184563400D03*
X254092000Y-183013400D03*
%TD*%
D51*
%TO.C,JP8*%
X256332200Y-189128400D03*
D52*
X257632200Y-189128400D03*
D53*
X258932200Y-189128400D03*
%TD*%
D39*
%TO.C,C172*%
X237454300Y-201358900D03*
X237454300Y-202908900D03*
%TD*%
D18*
%TO.C,R48*%
X145466800Y-158902400D03*
X147116800Y-158902400D03*
%TD*%
D20*
%TO.C,J12*%
X153759650Y-201664300D03*
X158759650Y-201664300D03*
%TD*%
D23*
%TO.C,C183*%
X224855900Y-191209700D03*
X224855900Y-189309700D03*
%TD*%
D70*
%TO.C,SW2*%
X188827400Y-107181800D03*
X185827400Y-107181800D03*
D71*
X182827400Y-107181800D03*
D72*
X192127400Y-107181800D03*
X179627400Y-107181800D03*
%TD*%
D15*
%TO.C,R61*%
X160883600Y-171308300D03*
X160883600Y-172958300D03*
%TD*%
D39*
%TO.C,C175*%
X232755300Y-201384900D03*
X232755300Y-202934900D03*
%TD*%
D23*
%TO.C,C152*%
X274193050Y-191221550D03*
X274193050Y-189321550D03*
%TD*%
D15*
%TO.C,R16*%
X254092000Y-176918200D03*
X254092000Y-178568200D03*
%TD*%
D62*
%TO.C,TP10*%
X252958600Y-170510200D03*
%TD*%
D20*
%TO.C,J17*%
X219514400Y-201662000D03*
X214514400Y-201662000D03*
%TD*%
D27*
%TO.C,C60*%
X130088200Y-125755400D03*
X131863200Y-125755400D03*
%TD*%
D15*
%TO.C,R60*%
X164109400Y-171308300D03*
X164109400Y-172958300D03*
%TD*%
D86*
%TO.C,Q1*%
X112983650Y-124036250D03*
X111083650Y-124036250D03*
X112033650Y-125911250D03*
%TD*%
D39*
%TO.C,C3*%
X286359600Y-153758600D03*
X286359600Y-155308600D03*
%TD*%
D65*
%TO.C,C103*%
X191645550Y-202631800D03*
X193545550Y-202631800D03*
%TD*%
D21*
%TO.C,C65*%
X148639650Y-185255900D03*
X147089650Y-185255900D03*
%TD*%
D23*
%TO.C,C118*%
X179529750Y-191212000D03*
X179529750Y-189312000D03*
%TD*%
D25*
%TO.C,C91*%
X153150000Y-196394100D03*
X153150000Y-194844100D03*
%TD*%
D21*
%TO.C,C234*%
X199800400Y-154228800D03*
X198250400Y-154228800D03*
%TD*%
D19*
%TO.C,FB17*%
X252117200Y-193329000D03*
X252117200Y-196279000D03*
%TD*%
D87*
%TO.C,CN1*%
X135777000Y-111750000D03*
X135800000Y-106750000D03*
D88*
X140450000Y-106750000D03*
X132050000Y-111750000D03*
X131150000Y-106750000D03*
X137250000Y-114850000D03*
X134050000Y-114850000D03*
X138850000Y-112850000D03*
X140150000Y-114850000D03*
%TD*%
D25*
%TO.C,C126*%
X206750000Y-196394100D03*
X206750000Y-194844100D03*
%TD*%
D39*
%TO.C,C105*%
X188419750Y-201374200D03*
X188419750Y-202924200D03*
%TD*%
D19*
%TO.C,FB9*%
X204784450Y-193331300D03*
X204784450Y-196281300D03*
%TD*%
D34*
%TO.C,JP7*%
X250790000Y-176808000D03*
D35*
X250790000Y-175508000D03*
D36*
X250790000Y-174208000D03*
%TD*%
D48*
%TO.C,R70*%
X205943200Y-152627600D03*
X205943200Y-150977600D03*
%TD*%
D39*
%TO.C,C161*%
X283242550Y-175498850D03*
X283242550Y-177048850D03*
%TD*%
D31*
%TO.C,C55*%
X129971200Y-120726200D03*
X131521200Y-120726200D03*
%TD*%
D19*
%TO.C,FB6*%
X123544450Y-193278700D03*
X123544450Y-196228700D03*
%TD*%
D39*
%TO.C,C22*%
X165531800Y-186575400D03*
X165531800Y-188125400D03*
%TD*%
D43*
%TO.C,C87*%
X134400000Y-171300000D03*
X127900000Y-171300000D03*
%TD*%
D40*
%TO.C,R3*%
X305117900Y-111350000D03*
X303467900Y-111350000D03*
%TD*%
D31*
%TO.C,C66*%
X144238350Y-200879200D03*
X145788350Y-200879200D03*
%TD*%
%TO.C,C168*%
X238927500Y-200876900D03*
X240477500Y-200876900D03*
%TD*%
D48*
%TO.C,R15*%
X254092000Y-181590800D03*
X254092000Y-179940800D03*
%TD*%
D51*
%TO.C,JP3*%
X208504000Y-139395200D03*
D52*
X209804000Y-139395200D03*
D53*
X211104000Y-139395200D03*
%TD*%
D21*
%TO.C,C99*%
X195996050Y-185255900D03*
X194446050Y-185255900D03*
%TD*%
D46*
%TO.C,C85*%
X144170450Y-171200000D03*
X150670450Y-171200000D03*
%TD*%
D39*
%TO.C,C93*%
X141222850Y-175489300D03*
X141222850Y-177039300D03*
%TD*%
D15*
%TO.C,R26*%
X213248800Y-172098600D03*
X213248800Y-173748600D03*
%TD*%
D34*
%TO.C,JP17*%
X203200000Y-118576400D03*
D35*
X203200000Y-117276400D03*
D36*
X203200000Y-115976400D03*
%TD*%
D65*
%TO.C,C137*%
X286308850Y-202641350D03*
X288208850Y-202641350D03*
%TD*%
D25*
%TO.C,C158*%
X261296950Y-196351050D03*
X261296950Y-194801050D03*
%TD*%
D18*
%TO.C,R74*%
X146012800Y-130079000D03*
X147662800Y-130079000D03*
%TD*%
D25*
%TO.C,C72*%
X139564750Y-202924800D03*
X139564750Y-201374800D03*
%TD*%
D30*
%TO.C,U9*%
X149521200Y-125977100D03*
X150171200Y-125977100D03*
X150821200Y-125977100D03*
X151471200Y-125977100D03*
X152121200Y-125977100D03*
X152771200Y-125977100D03*
X153421200Y-125977100D03*
X154071200Y-125977100D03*
X154721200Y-125977100D03*
X155371200Y-125977100D03*
X156021200Y-125977100D03*
X156671200Y-125977100D03*
X157321200Y-125977100D03*
X157971200Y-125977100D03*
X157971200Y-120252100D03*
X157321200Y-120252100D03*
X156671200Y-120252100D03*
X156021200Y-120252100D03*
X155371200Y-120252100D03*
X154721200Y-120252100D03*
X154071200Y-120252100D03*
X153421200Y-120252100D03*
X152771200Y-120252100D03*
X152121200Y-120252100D03*
X151471200Y-120252100D03*
X150821200Y-120252100D03*
X150171200Y-120252100D03*
X149521200Y-120252100D03*
%TD*%
D89*
%TO.C,D2*%
X294717200Y-157226000D03*
X298017200Y-157226000D03*
%TD*%
D25*
%TO.C,C34*%
X154406600Y-115456000D03*
X154406600Y-113906000D03*
%TD*%
D31*
%TO.C,C136*%
X286087350Y-185265450D03*
X287637350Y-185265450D03*
%TD*%
D41*
%TO.C,JP19*%
X154990800Y-172690000D03*
D35*
X154990800Y-173990000D03*
D42*
X154990800Y-175290000D03*
%TD*%
D39*
%TO.C,C12*%
X108992750Y-146529800D03*
X108992750Y-148079800D03*
%TD*%
D40*
%TO.C,R46*%
X224649800Y-112526000D03*
X222999800Y-112526000D03*
%TD*%
D61*
%TO.C,C229*%
X259641600Y-158419800D03*
X256641600Y-158419800D03*
%TD*%
D21*
%TO.C,C167*%
X243328800Y-185253600D03*
X241778800Y-185253600D03*
%TD*%
D31*
%TO.C,C102*%
X191424050Y-185255900D03*
X192974050Y-185255900D03*
%TD*%
D25*
%TO.C,C159*%
X295150000Y-196400000D03*
X295150000Y-194850000D03*
%TD*%
D90*
%TO.C,U3*%
X262128000Y-131443200D03*
X260858000Y-131443200D03*
X259588000Y-131443200D03*
X258318000Y-131443200D03*
X257048000Y-131443200D03*
X255778000Y-131443200D03*
X254508000Y-131443200D03*
X253238000Y-131443200D03*
X251968000Y-131443200D03*
X251968000Y-140743200D03*
X253238000Y-140743200D03*
X254508000Y-140743200D03*
X255778000Y-140743200D03*
X257048000Y-140743200D03*
X258318000Y-140743200D03*
X259588000Y-140743200D03*
X260858000Y-140743200D03*
X262128000Y-140743200D03*
%TD*%
D25*
%TO.C,C178*%
X227797300Y-202439300D03*
X227797300Y-200889300D03*
%TD*%
D39*
%TO.C,C107*%
X185422550Y-201387200D03*
X185422550Y-202937200D03*
%TD*%
D40*
%TO.C,R59*%
X160946600Y-169885900D03*
X159296600Y-169885900D03*
%TD*%
D75*
%TO.C,Q2*%
X145303200Y-155835200D03*
X147203200Y-155835200D03*
X146253200Y-153435200D03*
%TD*%
D31*
%TO.C,C48*%
X113499600Y-120421400D03*
X115049600Y-120421400D03*
%TD*%
D25*
%TO.C,C89*%
X125474850Y-196353900D03*
X125474850Y-194803900D03*
%TD*%
D31*
%TO.C,C109*%
X181955150Y-200930000D03*
X183505150Y-200930000D03*
%TD*%
D41*
%TO.C,JP38*%
X175529500Y-119324600D03*
D35*
X175529500Y-120624600D03*
D42*
X175529500Y-121924600D03*
%TD*%
D23*
%TO.C,C165*%
X243118500Y-197219300D03*
X243118500Y-195319300D03*
%TD*%
D31*
%TO.C,C134*%
X286258050Y-200888750D03*
X287808050Y-200888750D03*
%TD*%
D55*
%TO.C,C208*%
X122148600Y-174994100D03*
X122148600Y-171994100D03*
%TD*%
D23*
%TO.C,C148*%
X272186450Y-197251550D03*
X272186450Y-195351550D03*
%TD*%
D33*
%TO.C,D4*%
X143128800Y-115494600D03*
X144703800Y-115494600D03*
%TD*%
D91*
%TO.C,J1*%
X262200000Y-110550000D03*
X261400000Y-110550000D03*
X260600000Y-110550000D03*
X259800000Y-110550000D03*
X259000000Y-110550000D03*
X258200000Y-110550000D03*
X257400000Y-110550000D03*
X256600000Y-110550000D03*
X255800000Y-110550000D03*
X255000000Y-110550000D03*
D92*
X263500000Y-108600000D03*
X253700000Y-108600000D03*
%TD*%
D41*
%TO.C,JP6*%
X250815400Y-181650200D03*
D35*
X250815400Y-182950200D03*
D42*
X250815400Y-184250200D03*
%TD*%
D23*
%TO.C,C97*%
X195785750Y-197221600D03*
X195785750Y-195321600D03*
%TD*%
D31*
%TO.C,C68*%
X144067650Y-185255900D03*
X145617650Y-185255900D03*
%TD*%
D66*
%TO.C,U12*%
X285751700Y-196536150D03*
X285751700Y-196036150D03*
X285751700Y-195536150D03*
X285751700Y-195036150D03*
X285751700Y-194536150D03*
X285751700Y-194036150D03*
X285751700Y-193536150D03*
X285751700Y-193036150D03*
X285751700Y-192536150D03*
X285751700Y-192036150D03*
X285751700Y-191536150D03*
X285751700Y-191036150D03*
X285751700Y-190536150D03*
X285751700Y-190036150D03*
X285751700Y-189536150D03*
X285751700Y-189036150D03*
D67*
X285064200Y-188348650D03*
X284564200Y-188348650D03*
X284064200Y-188348650D03*
X283564200Y-188348650D03*
X283064200Y-188348650D03*
X282564200Y-188348650D03*
X282064200Y-188348650D03*
X281564200Y-188348650D03*
X281064200Y-188348650D03*
X280564200Y-188348650D03*
X280064200Y-188348650D03*
X279564200Y-188348650D03*
X279064200Y-188348650D03*
X278564200Y-188348650D03*
X278064200Y-188348650D03*
X277564200Y-188348650D03*
D66*
X276876700Y-189036150D03*
X276876700Y-189536150D03*
X276876700Y-190036150D03*
X276876700Y-190536150D03*
X276876700Y-191036150D03*
X276876700Y-191536150D03*
X276876700Y-192036150D03*
X276876700Y-192536150D03*
X276876700Y-193036150D03*
X276876700Y-193536150D03*
X276876700Y-194036150D03*
X276876700Y-194536150D03*
X276876700Y-195036150D03*
X276876700Y-195536150D03*
X276876700Y-196036150D03*
X276876700Y-196536150D03*
D67*
X277564200Y-197223650D03*
X278064200Y-197223650D03*
X278564200Y-197223650D03*
X279064200Y-197223650D03*
X279564200Y-197223650D03*
X280064200Y-197223650D03*
X280564200Y-197223650D03*
X281064200Y-197223650D03*
X281564200Y-197223650D03*
X282064200Y-197223650D03*
X282564200Y-197223650D03*
X283064200Y-197223650D03*
X283564200Y-197223650D03*
X284064200Y-197223650D03*
X284564200Y-197223650D03*
X285064200Y-197223650D03*
D68*
X281314200Y-192786150D03*
%TD*%
D93*
%TO.C,JP4*%
X298082800Y-112436400D03*
D94*
X298082800Y-111136400D03*
%TD*%
D39*
%TO.C,C138*%
X284784850Y-201370750D03*
X284784850Y-202920750D03*
%TD*%
D49*
%TO.C,C223*%
X241405000Y-149910800D03*
X245005000Y-149910800D03*
%TD*%
D95*
%TO.C,D5*%
X148793200Y-157988200D03*
X148793200Y-156413200D03*
%TD*%
D23*
%TO.C,C129*%
X288442450Y-197241350D03*
X288442450Y-195341350D03*
%TD*%
D18*
%TO.C,R58*%
X164034200Y-169885900D03*
X165684200Y-169885900D03*
%TD*%
D48*
%TO.C,R8*%
X289306000Y-163943800D03*
X289306000Y-162293800D03*
%TD*%
D40*
%TO.C,R33*%
X118122200Y-118897400D03*
X116472200Y-118897400D03*
%TD*%
D61*
%TO.C,C235*%
X200811000Y-152247600D03*
X203811000Y-152247600D03*
%TD*%
D25*
%TO.C,C125*%
X200500000Y-196394100D03*
X200500000Y-194844100D03*
%TD*%
D51*
%TO.C,JP23*%
X161158400Y-189636400D03*
D52*
X162458400Y-189636400D03*
D53*
X163758400Y-189636400D03*
%TD*%
D23*
%TO.C,C64*%
X146422750Y-191212000D03*
X146422750Y-189312000D03*
%TD*%
D96*
%TO.C,J4*%
X281150000Y-107920400D03*
D97*
X281150000Y-116920400D03*
D98*
X281150000Y-110920400D03*
D99*
X276650000Y-109920400D03*
X285650000Y-109920400D03*
%TD*%
D23*
%TO.C,C117*%
X179529750Y-197231800D03*
X179529750Y-195331800D03*
%TD*%
D55*
%TO.C,C206*%
X115900200Y-164728300D03*
X115900200Y-167728300D03*
%TD*%
D40*
%TO.C,R32*%
X121512600Y-109753400D03*
X119862600Y-109753400D03*
%TD*%
D48*
%TO.C,R77*%
X284276800Y-144576800D03*
X284276800Y-142926800D03*
%TD*%
D51*
%TO.C,JP20*%
X116276600Y-186867800D03*
D52*
X117576600Y-186867800D03*
D53*
X118876600Y-186867800D03*
%TD*%
D15*
%TO.C,R55*%
X116230400Y-171282900D03*
X116230400Y-172932900D03*
%TD*%
D82*
%TO.C,U6*%
X207914800Y-181315200D03*
X209184800Y-181315200D03*
X210454800Y-181315200D03*
X211724800Y-181315200D03*
X211724800Y-176165200D03*
X210454800Y-176165200D03*
X209184800Y-176165200D03*
X207914800Y-176165200D03*
%TD*%
D40*
%TO.C,R2*%
X187845400Y-110871800D03*
X186195400Y-110871800D03*
%TD*%
D56*
%TO.C,J8*%
X170738800Y-115666396D03*
X173278800Y-115666396D03*
X175818800Y-115666396D03*
D57*
X170738800Y-113036396D03*
X175818800Y-113036396D03*
D58*
X170478801Y-110426396D03*
X176078799Y-110426396D03*
%TD*%
D54*
%TO.C,L4*%
X281312150Y-169146250D03*
X281312150Y-173546250D03*
%TD*%
D33*
%TO.C,FB22*%
X259181600Y-154101800D03*
X260756600Y-154101800D03*
%TD*%
D31*
%TO.C,C33*%
X161251600Y-121082600D03*
X162801600Y-121082600D03*
%TD*%
%TO.C,C143*%
X276618450Y-200939550D03*
X278168450Y-200939550D03*
%TD*%
D15*
%TO.C,R1*%
X241019880Y-137250136D03*
X241019880Y-138900136D03*
%TD*%
D100*
%TO.C,U14*%
X227763800Y-111704800D03*
X227763800Y-112974800D03*
X227763800Y-114244800D03*
X227763800Y-115514800D03*
X227763800Y-116784800D03*
X227763800Y-118054800D03*
X227763800Y-119324800D03*
X227763800Y-120594800D03*
X227763800Y-121864800D03*
X227763800Y-123134800D03*
X227763800Y-124404800D03*
X227763800Y-125674800D03*
X227763800Y-126944800D03*
X227763800Y-128214800D03*
X227763800Y-129514800D03*
X227763800Y-130784800D03*
X227763800Y-132054800D03*
X227763800Y-133324800D03*
X227763800Y-134594800D03*
X245763800Y-134594800D03*
X245763800Y-133324800D03*
X245763800Y-132054800D03*
X245763800Y-130784800D03*
X245763800Y-129514800D03*
X245793800Y-128214800D03*
X245793800Y-126944800D03*
X245793800Y-125674800D03*
X245793800Y-124404800D03*
X245793800Y-123134800D03*
X245793800Y-121864800D03*
X245793800Y-120594800D03*
X245793800Y-119324800D03*
X245793800Y-118054800D03*
X245793800Y-116784800D03*
X245793800Y-115514800D03*
X245793800Y-114244800D03*
X245793800Y-112974800D03*
X245793800Y-111704800D03*
D101*
X237363800Y-120614800D03*
X235363800Y-118614800D03*
X238363800Y-119614800D03*
X237363800Y-119614800D03*
X235363800Y-117614800D03*
X235363800Y-116614800D03*
X235363800Y-119614800D03*
X238363800Y-117614800D03*
X237363800Y-117614800D03*
X234363800Y-117614800D03*
X238363800Y-116614800D03*
X236363800Y-116614800D03*
D102*
X236363800Y-118624800D03*
D101*
X235363800Y-120614800D03*
X238363800Y-120614800D03*
X234363800Y-118614800D03*
X236363800Y-117614800D03*
X237363800Y-116614800D03*
X236363800Y-119614800D03*
X234363800Y-120614800D03*
X236363800Y-118614800D03*
X234363800Y-116614800D03*
X238363800Y-118614800D03*
X236363800Y-120614800D03*
X234363800Y-119614800D03*
X237363800Y-118614800D03*
%TD*%
D23*
%TO.C,C114*%
X177523150Y-197242000D03*
X177523150Y-195342000D03*
%TD*%
D55*
%TO.C,C218*%
X166801800Y-175019500D03*
X166801800Y-172019500D03*
%TD*%
D51*
%TO.C,JP5*%
X256332200Y-186588400D03*
D52*
X257632200Y-186588400D03*
D53*
X258932200Y-186588400D03*
%TD*%
D15*
%TO.C,R63*%
X263042400Y-166395400D03*
X263042400Y-168045400D03*
%TD*%
D93*
%TO.C,JP41*%
X123748800Y-147055600D03*
D94*
X123748800Y-145755600D03*
%TD*%
D81*
%TO.C,U18*%
X163433000Y-155899500D03*
X162933000Y-155899500D03*
X162433000Y-155899500D03*
X161933000Y-155899500D03*
X161433000Y-155899500D03*
X161433000Y-160199500D03*
X161933000Y-160199500D03*
X162433000Y-160199500D03*
X162933000Y-160199500D03*
X163433000Y-160199500D03*
%TD*%
D39*
%TO.C,C195*%
X235912000Y-175487000D03*
X235912000Y-177037000D03*
%TD*%
%TO.C,C42*%
X119951000Y-112763000D03*
X119951000Y-114313000D03*
%TD*%
D21*
%TO.C,C25*%
X152997200Y-116967800D03*
X151447200Y-116967800D03*
%TD*%
D25*
%TO.C,C76*%
X133108150Y-202441600D03*
X133108150Y-200891600D03*
%TD*%
D23*
%TO.C,C5*%
X263702800Y-116174600D03*
X263702800Y-114274600D03*
%TD*%
D39*
%TO.C,C173*%
X235752500Y-201371900D03*
X235752500Y-202921900D03*
%TD*%
D66*
%TO.C,U10*%
X143732000Y-196526600D03*
X143732000Y-196026600D03*
X143732000Y-195526600D03*
X143732000Y-195026600D03*
X143732000Y-194526600D03*
X143732000Y-194026600D03*
X143732000Y-193526600D03*
X143732000Y-193026600D03*
X143732000Y-192526600D03*
X143732000Y-192026600D03*
X143732000Y-191526600D03*
X143732000Y-191026600D03*
X143732000Y-190526600D03*
X143732000Y-190026600D03*
X143732000Y-189526600D03*
X143732000Y-189026600D03*
D67*
X143044500Y-188339100D03*
X142544500Y-188339100D03*
X142044500Y-188339100D03*
X141544500Y-188339100D03*
X141044500Y-188339100D03*
X140544500Y-188339100D03*
X140044500Y-188339100D03*
X139544500Y-188339100D03*
X139044500Y-188339100D03*
X138544500Y-188339100D03*
X138044500Y-188339100D03*
X137544500Y-188339100D03*
X137044500Y-188339100D03*
X136544500Y-188339100D03*
X136044500Y-188339100D03*
X135544500Y-188339100D03*
D66*
X134857000Y-189026600D03*
X134857000Y-189526600D03*
X134857000Y-190026600D03*
X134857000Y-190526600D03*
X134857000Y-191026600D03*
X134857000Y-191526600D03*
X134857000Y-192026600D03*
X134857000Y-192526600D03*
X134857000Y-193026600D03*
X134857000Y-193526600D03*
X134857000Y-194026600D03*
X134857000Y-194526600D03*
X134857000Y-195026600D03*
X134857000Y-195526600D03*
X134857000Y-196026600D03*
X134857000Y-196526600D03*
D67*
X135544500Y-197214100D03*
X136044500Y-197214100D03*
X136544500Y-197214100D03*
X137044500Y-197214100D03*
X137544500Y-197214100D03*
X138044500Y-197214100D03*
X138544500Y-197214100D03*
X139044500Y-197214100D03*
X139544500Y-197214100D03*
X140044500Y-197214100D03*
X140544500Y-197214100D03*
X141044500Y-197214100D03*
X141544500Y-197214100D03*
X142044500Y-197214100D03*
X142544500Y-197214100D03*
X143044500Y-197214100D03*
D68*
X139294500Y-192776600D03*
%TD*%
D61*
%TO.C,C239*%
X211076800Y-158470600D03*
X208076800Y-158470600D03*
%TD*%
D43*
%TO.C,C188*%
X245369500Y-180122800D03*
X238869500Y-180122800D03*
%TD*%
D31*
%TO.C,C35*%
X152882600Y-112408000D03*
X154432600Y-112408000D03*
%TD*%
D28*
%TO.C,J2*%
X267898400Y-121900000D03*
D29*
X267898400Y-124440000D03*
X267898400Y-126980000D03*
X267898400Y-129520000D03*
X267898400Y-132060000D03*
%TD*%
D23*
%TO.C,C166*%
X241111900Y-191209700D03*
X241111900Y-189309700D03*
%TD*%
D15*
%TO.C,R62*%
X263037800Y-163386400D03*
X263037800Y-165036400D03*
%TD*%
D51*
%TO.C,JP30*%
X208504000Y-186563000D03*
D52*
X209804000Y-186563000D03*
D53*
X211104000Y-186563000D03*
%TD*%
D15*
%TO.C,R12*%
X259603800Y-172778000D03*
X259603800Y-174428000D03*
%TD*%
D23*
%TO.C,C61*%
X146422750Y-197231800D03*
X146422750Y-195331800D03*
%TD*%
D19*
%TO.C,FB4*%
X121207650Y-193280500D03*
X121207650Y-196230500D03*
%TD*%
D46*
%TO.C,C190*%
X222603600Y-180173600D03*
X229103600Y-180173600D03*
%TD*%
D34*
%TO.C,JP34*%
X202955900Y-166831800D03*
D35*
X202955900Y-165531800D03*
D36*
X202955900Y-164231800D03*
%TD*%
D60*
%TO.C,U20*%
X240521600Y-153178000D03*
X240521600Y-153678000D03*
X240521600Y-154178000D03*
X240521600Y-154678000D03*
X240521600Y-155178000D03*
X244821600Y-155178000D03*
X244821600Y-154678000D03*
X244821600Y-154178000D03*
X244821600Y-153678000D03*
X244821600Y-153178000D03*
%TD*%
D33*
%TO.C,FB2*%
X171703900Y-119507000D03*
X173278900Y-119507000D03*
%TD*%
D18*
%TO.C,R18*%
X108582700Y-179679600D03*
X110232700Y-179679600D03*
%TD*%
D25*
%TO.C,C192*%
X213966400Y-196339200D03*
X213966400Y-194789200D03*
%TD*%
D39*
%TO.C,C141*%
X280085850Y-201396750D03*
X280085850Y-202946750D03*
%TD*%
D47*
%TO.C,C210*%
X158165800Y-156808300D03*
X158165800Y-160408300D03*
%TD*%
D25*
%TO.C,C196*%
X235912000Y-167219600D03*
X235912000Y-165669600D03*
%TD*%
D103*
%TO.C,C51*%
X108610400Y-133451600D03*
X108610400Y-135226600D03*
%TD*%
D65*
%TO.C,C171*%
X238978300Y-202629500D03*
X240878300Y-202629500D03*
%TD*%
D27*
%TO.C,C53*%
X130087300Y-119075200D03*
X131862300Y-119075200D03*
%TD*%
D39*
%TO.C,C21*%
X120675400Y-186333800D03*
X120675400Y-187883800D03*
%TD*%
M02*
