M48
; DRILL file {KiCad (6.0.4-0)} date Wednesday, 25 May 2022 at 01.46.19
; FORMAT={-:-/ absolute / inch / decimal}
; #@! TF.CreationDate,2022-05-25T01:46:19+02:00
; #@! TF.GenerationSoftware,Kicad,Pcbnew,(6.0.4-0)
; #@! TF.FileFunction,Plated,1,4,PTH
FMAT,2
INCH
; #@! TA.AperFunction,Plated,PTH,ComponentDrill
T1C0.0118
; #@! TA.AperFunction,Plated,PTH,ViaDrill
T2C0.0157
; #@! TA.AperFunction,Plated,PTH,ComponentDrill
T3C0.0236
; #@! TA.AperFunction,Plated,PTH,ComponentDrill
T4C0.0276
; #@! TA.AperFunction,Plated,PTH,ComponentDrill
T5C0.0315
; #@! TA.AperFunction,Plated,PTH,ComponentDrill
T6C0.0330
; #@! TA.AperFunction,Plated,PTH,ComponentDrill
T7C0.0394
; #@! TA.AperFunction,Plated,PTH,ComponentDrill
T8C0.0450
; #@! TA.AperFunction,Plated,PTH,ComponentDrill
T9C0.0512
; #@! TA.AperFunction,Plated,PTH,ComponentDrill
T10C0.0669
; #@! TA.AperFunction,Plated,PTH,ComponentDrill
T11C0.0690
; #@! TA.AperFunction,Plated,PTH,ComponentDrill
T12C0.1260
%
G90
G05
T1
X5.388Y-7.4936
X5.388Y-7.5436
X5.388Y-7.5896
X5.388Y-7.6396
X5.388Y-7.6856
X5.434Y-7.4936
X5.434Y-7.5436
X5.434Y-7.5896
X5.434Y-7.6396
X5.434Y-7.6856
X5.484Y-7.4936
X5.484Y-7.5436
X5.484Y-7.5896
X5.484Y-7.6396
X5.484Y-7.6856
X5.534Y-7.4936
X5.534Y-7.5436
X5.534Y-7.5896
X5.534Y-7.6396
X5.534Y-7.6856
X5.58Y-7.4936
X5.58Y-7.5436
X5.58Y-7.5896
X5.58Y-7.6396
X5.58Y-7.6856
X7.2525Y-7.4936
X7.2525Y-7.5436
X7.2525Y-7.5896
X7.2525Y-7.6396
X7.2525Y-7.6856
X7.2985Y-7.4936
X7.2985Y-7.5436
X7.2985Y-7.5896
X7.2985Y-7.6396
X7.2985Y-7.6856
X7.3485Y-7.4936
X7.3485Y-7.5436
X7.3485Y-7.5896
X7.3485Y-7.6396
X7.3485Y-7.6856
X7.3985Y-7.4936
X7.3985Y-7.5436
X7.3985Y-7.5896
X7.3985Y-7.6396
X7.3985Y-7.6856
X7.4445Y-7.4936
X7.4445Y-7.5436
X7.4445Y-7.5896
X7.4445Y-7.6396
X7.4445Y-7.6856
X9.116Y-7.4935
X9.116Y-7.5435
X9.116Y-7.5895
X9.116Y-7.6395
X9.116Y-7.6855
X9.162Y-7.4935
X9.162Y-7.5435
X9.162Y-7.5895
X9.162Y-7.6395
X9.162Y-7.6855
X9.212Y-7.4935
X9.212Y-7.5435
X9.212Y-7.5895
X9.212Y-7.6395
X9.212Y-7.6855
X9.2269Y-4.5911
X9.2269Y-4.6305
X9.2269Y-4.6699
X9.2269Y-4.7092
X9.2269Y-4.7486
X9.262Y-7.4935
X9.262Y-7.5435
X9.262Y-7.5895
X9.262Y-7.6395
X9.262Y-7.6855
X9.2663Y-4.5911
X9.2663Y-4.6305
X9.2663Y-4.6699
X9.2663Y-4.7092
X9.2663Y-4.7486
X9.3057Y-4.5911
X9.3057Y-4.6305
X9.3057Y-4.6699
X9.3057Y-4.7092
X9.3057Y-4.7486
X9.308Y-7.4935
X9.308Y-7.5435
X9.308Y-7.5895
X9.308Y-7.6395
X9.308Y-7.6855
X9.345Y-4.5911
X9.345Y-4.6305
X9.345Y-4.6699
X9.345Y-4.7092
X9.345Y-4.7486
X9.3844Y-4.5911
X9.3844Y-4.6305
X9.3844Y-4.6699
X9.3844Y-4.7092
X9.3844Y-4.7486
X10.9794Y-7.494
X10.9794Y-7.544
X10.9794Y-7.59
X10.9794Y-7.64
X10.9794Y-7.686
X11.0254Y-7.494
X11.0254Y-7.544
X11.0254Y-7.59
X11.0254Y-7.64
X11.0254Y-7.686
X11.0754Y-7.494
X11.0754Y-7.544
X11.0754Y-7.59
X11.0754Y-7.64
X11.0754Y-7.686
X11.1254Y-7.494
X11.1254Y-7.544
X11.1254Y-7.59
X11.1254Y-7.64
X11.1254Y-7.686
X11.1714Y-7.494
X11.1714Y-7.544
X11.1714Y-7.59
X11.1714Y-7.64
X11.1714Y-7.686
T2
X4.2264Y-5.9862
X4.2264Y-6.0531
X4.242Y-7.389
X4.244Y-7.305
X4.257Y-5.599
X4.2657Y-6.017
X4.2736Y-4.9016
X4.294Y-5.885
X4.305Y-6.789
X4.3308Y-5.7527
X4.3311Y-5.7914
X4.346Y-5.436
X4.357Y-7.32
X4.373Y-6.922
X4.394Y-5.179
X4.394Y-5.436
X4.4038Y-7.3268
X4.4094Y-7.0748
X4.4106Y-5.7994
X4.438Y-7.174
X4.444Y-5.179
X4.446Y-5.435
X4.4882Y-7.3858
X4.4936Y-5.1781
X4.494Y-5.434
X4.5039Y-7.3543
X4.51Y-7.455
X4.53Y-4.972
X4.532Y-6.8994
X4.5335Y-4.9328
X4.536Y-6.017
X4.5587Y-7.4057
X4.5591Y-4.6083
X4.575Y-5.954
X4.577Y-6.033
X4.5906Y-7.0315
X4.5934Y-5.372
X4.5934Y-5.433
X4.5936Y-7.0752
X4.5944Y-5.312
X4.5965Y-5.2362
X4.6004Y-4.8366
X4.603Y-7.1134
X4.603Y-7.2024
X4.63Y-7.42
X4.639Y-6.6034
X4.6435Y-5.529
X4.6457Y-6.2539
X4.6457Y-7.0197
X4.6499Y-5.9884
X4.6528Y-4.9512
X4.655Y-5.031
X4.658Y-7.1134
X4.659Y-7.2024
X4.6614Y-5.2618
X4.6929Y-6.2539
X4.6969Y-5.2992
X4.697Y-4.785
X4.708Y-7.6275
X4.7172Y-4.9088
X4.7244Y-6.0709
X4.738Y-4.785
X4.738Y-4.97
X4.7402Y-4.7255
X4.749Y-5.529
X4.76Y-5.128
X4.77Y-7.5575
X4.7856Y-5.2368
X4.7857Y-6.9843
X4.7928Y-5.0768
X4.7978Y-5.1158
X4.8138Y-4.9212
X4.8439Y-6.0499
X4.846Y-5.033
X4.8465Y-7.1929
X4.862Y-7.5575
X4.8661Y-6.9291
X4.874Y-5.8858
X4.879Y-5.033
X4.9016Y-7.2214
X4.9134Y-4.7559
X4.916Y-7.6295
X4.9173Y-4.6909
X4.9193Y-4.6122
X4.968Y-7.5674
X4.991Y-5.188
X5.011Y-4.902
X5.0257Y-6.6077
X5.0257Y-6.6457
X5.0295Y-4.5827
X5.0394Y-6.8346
X5.0394Y-6.8726
X5.0394Y-7.4016
X5.04Y-5.201
X5.05Y-7.214
X5.0644Y-6.6077
X5.0644Y-6.6457
X5.074Y-7.61
X5.0774Y-6.8346
X5.0774Y-6.8726
X5.0774Y-7.4016
X5.0789Y-5.0482
X5.1024Y-6.6077
X5.1024Y-6.6457
X5.116Y-6.8346
X5.116Y-6.8726
X5.1202Y-6.1431
X5.1202Y-6.1811
X5.1431Y-6.7087
X5.1431Y-6.7467
X5.1431Y-6.7853
X5.1589Y-6.1431
X5.1589Y-6.1811
X5.173Y-7.868
X5.1789Y-8.0376
X5.1811Y-6.7087
X5.1811Y-6.7467
X5.1811Y-6.7853
X5.1969Y-6.1431
X5.1969Y-6.1811
X5.2276Y-7.6096
X5.2617Y-7.5505
X5.2617Y-7.6685
X5.2967Y-4.7424
X5.298Y-4.7817
X5.298Y-4.822
X5.2992Y-4.7028
X5.2992Y-4.8661
X5.2992Y-4.9094
X5.3012Y-4.9547
X5.3042Y-5.8554
X5.306Y-7.369
X5.3386Y-6.5236
X5.348Y-7.5515
X5.348Y-7.6675
X5.348Y-7.61
X5.3564Y-5.4029
X5.3564Y-5.4409
X5.357Y-7.33
X5.377Y-7.3639
X5.3819Y-6.5236
X5.3843Y-7.3016
X5.3951Y-5.4029
X5.3951Y-5.4409
X5.3951Y-7.0472
X5.3951Y-7.0852
X5.3951Y-7.1239
X5.4094Y-6.9685
X5.4094Y-7.0065
X5.427Y-7.301
X5.4331Y-5.4029
X5.4331Y-5.4409
X5.4331Y-7.0472
X5.4331Y-7.0852
X5.4331Y-7.1239
X5.4391Y-7.367
X5.444Y-7.874
X5.4474Y-6.9685
X5.4474Y-7.0065
X5.4738Y-7.0472
X5.4738Y-7.0852
X5.4738Y-7.1239
X5.474Y-7.302
X5.4861Y-6.9685
X5.4861Y-7.0065
X5.5118Y-7.0472
X5.5118Y-7.0852
X5.5118Y-7.1239
X5.5302Y-5.7231
X5.5526Y-7.0472
X5.5526Y-7.0852
X5.5526Y-7.1239
X5.5906Y-7.0472
X5.5906Y-7.0852
X5.5906Y-7.1239
X5.6003Y-6.0393
X5.6024Y-6.0
X5.6043Y-5.9547
X5.6166Y-7.6086
X5.6187Y-7.5505
X5.6187Y-7.6685
X5.6614Y-5.591
X5.671Y-7.192
X5.672Y-7.232
X5.673Y-4.649
X5.6864Y-6.5669
X5.6864Y-6.6049
X5.6864Y-6.6436
X5.7081Y-7.5495
X5.7081Y-7.6675
X5.711Y-6.065
X5.7244Y-6.5669
X5.7244Y-6.6049
X5.7244Y-6.6436
X5.7369Y-7.6089
X5.7507Y-7.3989
X5.785Y-4.909
X5.792Y-6.327
X5.8439Y-6.5669
X5.8439Y-6.6049
X5.8439Y-6.6436
X5.8439Y-6.8346
X5.8439Y-6.8726
X5.8439Y-6.9113
X5.859Y-4.691
X5.859Y-7.234
X5.8819Y-6.5669
X5.8819Y-6.6049
X5.8819Y-6.6436
X5.8819Y-6.8346
X5.8819Y-6.8726
X5.8819Y-6.9113
X5.8858Y-7.609
X5.8937Y-6.4724
X5.897Y-4.675
X5.9004Y-4.6164
X5.901Y-4.5104
X5.9205Y-7.7712
X5.924Y-7.406
X5.924Y-7.732
X6.0016Y-7.5541
X6.0118Y-5.6575
X6.013Y-4.631
X6.014Y-4.907
X6.0197Y-6.0354
X6.0257Y-5.4108
X6.0257Y-5.4488
X6.0394Y-5.1575
X6.049Y-7.6305
X6.0512Y-6.0049
X6.0644Y-5.4108
X6.0644Y-5.4488
X6.065Y-7.267
X6.066Y-4.905
X6.066Y-7.21
X6.095Y-6.753
X6.0984Y-5.6577
X6.1024Y-5.4108
X6.1024Y-5.4488
X6.1063Y-7.0551
X6.108Y-7.5715
X6.118Y-4.905
X6.1299Y-6.4724
X6.139Y-4.647
X6.152Y-6.855
X6.1673Y-7.248
X6.169Y-4.906
X6.1732Y-6.7953
X6.189Y-5.316
X6.1929Y-5.9744
X6.196Y-7.5575
X6.202Y-7.289
X6.2318Y-7.1703
X6.2382Y-5.9449
X6.248Y-4.685
X6.2526Y-6.0386
X6.255Y-4.921
X6.264Y-7.6155
X6.2795Y-5.3446
X6.29Y-6.9004
X6.2911Y-7.4404
X6.322Y-7.416
X6.331Y-6.0498
X6.334Y-5.977
X6.3388Y-7.0313
X6.3594Y-7.0648
X6.361Y-7.1144
X6.361Y-7.2034
X6.378Y-6.01
X6.397Y-6.6044
X6.4016Y-6.2559
X6.411Y-7.0364
X6.416Y-7.1144
X6.417Y-7.2034
X6.4469Y-6.2539
X6.449Y-7.523
X6.455Y-4.685
X6.4694Y-7.419
X6.471Y-4.921
X6.4829Y-6.0498
X6.51Y-7.56
X6.5157Y-6.9567
X6.5217Y-5.8799
X6.55Y-7.566
X6.5612Y-5.0722
X6.5612Y-5.1102
X6.5724Y-7.6275
X6.5906Y-7.1969
X6.5998Y-5.0722
X6.5998Y-5.1102
X6.6221Y-6.9291
X6.6344Y-7.5575
X6.6378Y-5.0722
X6.6378Y-5.1102
X6.685Y-7.246
X6.7114Y-4.6642
X6.7264Y-7.5575
X6.745Y-7.252
X6.7573Y-6.7087
X6.7573Y-6.7467
X6.7573Y-6.7853
X6.7598Y-4.6516
X6.7709Y-7.221
X6.7804Y-7.6295
X6.7874Y-6.9449
X6.7874Y-6.9843
X6.7953Y-6.7087
X6.7953Y-6.7467
X6.7953Y-6.7853
X6.8131Y-6.0722
X6.8131Y-6.1102
X6.8341Y-7.5674
X6.8518Y-6.0722
X6.8518Y-6.1102
X6.852Y-4.807
X6.884Y-6.6077
X6.884Y-6.6457
X6.8898Y-6.0722
X6.8898Y-6.1102
X6.8919Y-6.836
X6.8919Y-6.874
X6.9226Y-6.6077
X6.9226Y-6.6457
X6.9305Y-6.836
X6.9305Y-6.874
X6.943Y-4.637
X6.9449Y-7.6102
X6.9606Y-6.6077
X6.9606Y-6.6457
X6.9685Y-6.836
X6.9685Y-6.874
X6.9707Y-4.8846
X6.991Y-4.637
X7.021Y-5.074
X7.0236Y-7.0945
X7.0236Y-7.1352
X7.0236Y-7.1732
X7.0268Y-4.9095
X7.0374Y-7.868
X7.0433Y-8.0376
X7.083Y-7.2554
X7.093Y-7.6094
X7.1188Y-7.2388
X7.121Y-4.519
X7.1261Y-7.5505
X7.1261Y-7.6685
X7.1417Y-5.5465
X7.1455Y-4.803
X7.167Y-4.877
X7.185Y-7.328
X7.189Y-4.803
X7.19Y-7.367
X7.2047Y-5.5433
X7.2124Y-7.5515
X7.2124Y-7.6675
X7.2134Y-7.6097
X7.2143Y-7.295
X7.2283Y-5.8642
X7.235Y-4.6476
X7.238Y-7.3566
X7.2422Y-4.8783
X7.2442Y-7.4557
X7.2533Y-7.0551
X7.2533Y-7.0931
X7.2533Y-7.1318
X7.2537Y-7.2952
X7.2756Y-6.9764
X7.2756Y-7.0144
X7.2815Y-5.1654
X7.2815Y-5.9449
X7.291Y-4.6476
X7.2913Y-7.0551
X7.2913Y-7.0931
X7.2913Y-7.1318
X7.293Y-7.294
X7.298Y-7.3566
X7.3Y-7.868
X7.3101Y-5.1988
X7.311Y-5.8996
X7.3136Y-6.9764
X7.3136Y-7.0144
X7.3321Y-7.0551
X7.3321Y-7.0931
X7.3321Y-7.1318
X7.351Y-4.6496
X7.3522Y-6.9764
X7.3522Y-7.0144
X7.3543Y-6.0571
X7.3583Y-5.1673
X7.3583Y-5.9744
X7.3701Y-7.0551
X7.3701Y-7.0931
X7.3701Y-7.1318
X7.3955Y-4.4026
X7.3957Y-5.8661
X7.402Y-6.164
X7.4108Y-7.0551
X7.4108Y-7.0931
X7.4108Y-7.1318
X7.433Y-6.096
X7.4488Y-7.0551
X7.4488Y-7.0931
X7.4488Y-7.1318
X7.4694Y-6.1463
X7.4764Y-5.878
X7.4819Y-7.6083
X7.4831Y-7.5505
X7.4831Y-7.6685
X7.5433Y-4.8701
X7.5725Y-7.5495
X7.5725Y-7.6675
X7.6023Y-7.6087
X7.6084Y-5.0092
X7.6084Y-5.0472
X7.61Y-7.406
X7.6469Y-7.3852
X7.647Y-5.0092
X7.647Y-5.0472
X7.6732Y-6.0551
X7.6791Y-6.0098
X7.685Y-5.0092
X7.685Y-5.0472
X7.724Y-7.244
X7.7323Y-6.8346
X7.7323Y-6.8726
X7.7344Y-6.6077
X7.7344Y-6.6457
X7.75Y-7.6094
X7.7598Y-4.6732
X7.7703Y-6.8346
X7.7703Y-6.8726
X7.773Y-6.6077
X7.773Y-6.6457
X7.778Y-7.78
X7.789Y-7.404
X7.8031Y-4.378
X7.808Y-5.152
X7.8082Y-7.7548
X7.8089Y-6.8346
X7.8089Y-6.8726
X7.811Y-6.6077
X7.811Y-6.6457
X7.8199Y-6.0974
X7.828Y-4.6911
X7.8504Y-4.3986
X7.8666Y-5.5034
X7.8677Y-7.5541
X7.8867Y-4.4138
X7.8937Y-5.8622
X7.8937Y-5.9016
X7.8976Y-4.4803
X7.9069Y-6.7008
X7.9069Y-6.7388
X7.9069Y-6.7774
X7.9094Y-5.5039
X7.9134Y-5.5433
X7.9213Y-7.626
X7.924Y-6.572
X7.928Y-4.302
X7.929Y-7.134
X7.93Y-6.945
X7.9449Y-6.7008
X7.9449Y-6.7388
X7.9449Y-6.7774
X7.9567Y-5.5465
X7.9724Y-7.5715
X8.024Y-6.07
X8.028Y-5.544
X8.04Y-4.672
X8.0406Y-6.5224
X8.0462Y-5.8603
X8.0604Y-7.5575
X8.063Y-7.188
X8.067Y-6.9
X8.0787Y-5.8937
X8.0963Y-4.4527
X8.1024Y-5.5465
X8.1102Y-6.248
X8.118Y-6.4784
X8.1182Y-6.5178
X8.1277Y-4.4272
X8.1284Y-7.6155
X8.1339Y-5.874
X8.1339Y-5.9055
X8.1466Y-5.5465
X8.1555Y-4.8682
X8.1558Y-4.7145
X8.1654Y-5.3189
X8.166Y-5.37
X8.166Y-5.414
X8.169Y-7.398
X8.171Y-4.288
X8.185Y-6.8937
X8.217Y-4.804
X8.2244Y-4.37
X8.241Y-6.435
X8.243Y-6.494
X8.2446Y-4.5152
X8.248Y-4.9134
X8.249Y-6.571
X8.249Y-6.66
X8.2693Y-7.403
X8.275Y-7.027
X8.276Y-6.527
X8.276Y-7.065
X8.293Y-6.384
X8.299Y-6.493
X8.3014Y-4.84
X8.3014Y-4.8794
X8.304Y-6.571
X8.305Y-6.66
X8.308Y-7.045
X8.317Y-5.545
X8.33Y-5.104
X8.3386Y-5.3071
X8.349Y-7.2394
X8.3583Y-6.1142
X8.3642Y-4.8701
X8.37Y-4.26
X8.37Y-4.4272
X8.3976Y-6.894
X8.4016Y-5.8819
X8.405Y-6.441
X8.4144Y-4.8326
X8.42Y-7.2108
X8.421Y-7.442
X8.422Y-7.492
X8.4252Y-4.3622
X8.4252Y-4.4961
X8.428Y-7.543
X8.4359Y-7.6274
X8.4522Y-5.5399
X8.4567Y-5.8819
X8.4882Y-4.5118
X8.4921Y-5.5394
X8.4979Y-7.5574
X8.5354Y-5.5394
X8.537Y-6.52
X8.5591Y-7.1811
X8.5753Y-5.5388
X8.5899Y-7.5574
X8.594Y-7.21
X8.6155Y-6.6929
X8.6155Y-6.7309
X8.6155Y-6.7695
X8.6439Y-7.6294
X8.6535Y-6.6929
X8.6535Y-6.7309
X8.6535Y-6.7695
X8.6556Y-6.0801
X8.6556Y-6.1181
X8.6943Y-6.0801
X8.6943Y-6.1181
X8.6963Y-7.5674
X8.7186Y-5.4738
X8.7186Y-5.5118
X8.7323Y-6.0801
X8.7323Y-6.1181
X8.7501Y-6.6077
X8.7501Y-6.6457
X8.7501Y-6.836
X8.7501Y-6.874
X8.7573Y-5.4738
X8.7573Y-5.5118
X8.7888Y-6.6077
X8.7888Y-6.6457
X8.7888Y-6.836
X8.7888Y-6.874
X8.7953Y-5.4738
X8.7953Y-5.5118
X8.8091Y-7.6102
X8.8268Y-6.6077
X8.8268Y-6.6457
X8.8268Y-6.836
X8.8268Y-6.874
X8.885Y-4.9
X8.885Y-5.0
X8.885Y-5.048
X8.8853Y-4.6478
X8.8858Y-5.1496
X8.886Y-4.848
X8.9009Y-7.8679
X8.9055Y-7.088
X8.9055Y-7.126
X8.9068Y-8.0375
X8.932Y-7.1815
X8.956Y-7.6094
X8.9896Y-7.5504
X8.9896Y-7.6684
X9.011Y-7.2108
X9.035Y-7.3652
X9.0401Y-7.3176
X9.0551Y-4.9488
X9.0591Y-4.5
X9.0759Y-7.5514
X9.0759Y-7.6674
X9.0764Y-7.6097
X9.0821Y-7.3115
X9.0989Y-7.3592
X9.1004Y-6.0079
X9.101Y-5.327
X9.11Y-5.523
X9.122Y-7.311
X9.123Y-7.451
X9.1274Y-7.0551
X9.1274Y-7.0931
X9.1274Y-7.1318
X9.128Y-5.9764
X9.1517Y-6.9777
X9.1517Y-7.0157
X9.1557Y-5.3745
X9.1557Y-5.4065
X9.1575Y-5.3425
X9.162Y-7.373
X9.164Y-7.3103
X9.1654Y-7.0551
X9.1654Y-7.0931
X9.1654Y-7.1318
X9.174Y-7.873
X9.1903Y-6.9777
X9.1903Y-7.0157
X9.2047Y-5.9409
X9.2061Y-7.0565
X9.2061Y-7.0945
X9.2061Y-7.1331
X9.2283Y-6.9777
X9.2283Y-7.0157
X9.2297Y-5.4359
X9.2382Y-6.0551
X9.2441Y-7.0565
X9.2441Y-7.0945
X9.2441Y-7.1331
X9.2638Y-6.1378
X9.2848Y-7.0551
X9.2848Y-7.0931
X9.2848Y-7.1318
X9.302Y-6.174
X9.3228Y-7.0551
X9.3228Y-7.0931
X9.3228Y-7.1318
X9.327Y-6.112
X9.3449Y-7.6083
X9.3466Y-7.5504
X9.3466Y-7.6684
X9.3814Y-6.14
X9.4094Y-5.5457
X9.436Y-7.5494
X9.436Y-7.6674
X9.4385Y-7.4332
X9.4653Y-7.6087
X9.4793Y-7.2008
X9.5157Y-4.5
X9.5157Y-5.0118
X9.5157Y-5.5457
X9.53Y-7.4156
X9.5394Y-5.1496
X9.5433Y-7.1024
X9.5433Y-7.1431
X9.5433Y-7.1811
X9.5506Y-4.7875
X9.5795Y-4.847
X9.582Y-7.236
X9.5846Y-6.0118
X9.5846Y-6.0551
X9.5927Y-6.6234
X9.5927Y-6.6614
X9.596Y-7.3764
X9.599Y-4.75
X9.6122Y-7.6083
X9.615Y-7.81
X9.6181Y-5.4094
X9.6313Y-6.6234
X9.6313Y-6.6614
X9.636Y-7.771
X9.652Y-7.405
X9.6619Y-5.3705
X9.7299Y-7.5541
X9.7593Y-5.1829
X9.7608Y-4.4941
X9.7624Y-6.622
X9.7624Y-6.66
X9.7651Y-6.7008
X9.7651Y-6.7388
X9.7651Y-6.7774
X9.7815Y-7.622
X9.7894Y-4.4488
X9.7894Y-5.1575
X9.801Y-6.622
X9.801Y-6.66
X9.8031Y-6.7008
X9.8031Y-6.7388
X9.8031Y-6.7774
X9.817Y-6.568
X9.817Y-6.96
X9.817Y-7.157
X9.8189Y-5.0472
X9.8228Y-4.5472
X9.8228Y-4.6024
X9.8289Y-6.2927
X9.8289Y-6.3307
X9.8359Y-7.5714
X9.8427Y-5.1271
X9.8675Y-6.2927
X9.8675Y-6.3307
X9.9055Y-6.2927
X9.9055Y-6.3307
X9.9232Y-6.5555
X9.9239Y-7.5574
X9.9291Y-4.5433
X9.9291Y-4.584
X9.9291Y-4.622
X9.936Y-6.068
X9.938Y-7.204
X9.944Y-6.957
X9.9685Y-4.5433
X9.9685Y-4.584
X9.9685Y-4.622
X9.9804Y-6.4796
X9.9804Y-6.519
X9.9919Y-7.6154
X10.0079Y-4.5827
X10.016Y-5.028
X10.0394Y-4.315
X10.0394Y-4.4882
X10.048Y-7.388
X10.0676Y-6.9134
X10.1066Y-6.4406
X10.111Y-6.503
X10.113Y-6.572
X10.113Y-6.661
X10.141Y-6.533
X10.143Y-7.238
X10.144Y-6.383
X10.146Y-7.05
X10.149Y-7.401
X10.154Y-7.506
X10.163Y-6.494
X10.1654Y-4.5
X10.168Y-6.572
X10.169Y-6.661
X10.17Y-5.07
X10.176Y-7.078
X10.185Y-7.041
X10.2205Y-5.4843
X10.228Y-7.552
X10.247Y-6.449
X10.2598Y-6.0433
X10.265Y-7.575
X10.2677Y-5.4843
X10.272Y-5.25
X10.2786Y-6.9188
X10.2993Y-7.6279
X10.308Y-5.026
X10.32Y-5.252
X10.332Y-7.2098
X10.3613Y-7.5579
X10.3819Y-5.5898
X10.401Y-6.521
X10.4173Y-5.3465
X10.4173Y-5.3819
X10.418Y-7.187
X10.4533Y-7.5579
X10.46Y-4.531
X10.46Y-7.2098
X10.4667Y-5.8675
X10.4667Y-5.9055
X10.4896Y-6.7008
X10.4896Y-6.7388
X10.4896Y-6.7774
X10.5053Y-5.8675
X10.5053Y-5.9055
X10.5073Y-7.6299
X10.5276Y-6.7008
X10.5276Y-6.7388
X10.5276Y-6.7774
X10.5297Y-5.5447
X10.5297Y-5.5827
X10.5433Y-5.8675
X10.5433Y-5.9055
X10.5589Y-7.5679
X10.5683Y-5.5447
X10.5683Y-5.5827
X10.6063Y-5.5447
X10.6063Y-5.5827
X10.6084Y-6.6155
X10.6084Y-6.6535
X10.6163Y-6.8281
X10.6163Y-6.8661
X10.647Y-6.6155
X10.647Y-6.6535
X10.6549Y-6.8281
X10.6549Y-6.8661
X10.6658Y-7.6104
X10.685Y-6.6155
X10.685Y-6.6535
X10.6929Y-6.8281
X10.6929Y-6.8661
X10.7559Y-7.088
X10.7559Y-7.126
X10.7643Y-7.8683
X10.7702Y-8.038
X10.799Y-7.1813
X10.819Y-7.6104
X10.853Y-7.5509
X10.853Y-7.6689
X10.861Y-7.201
X10.906Y-7.328
X10.907Y-7.372
X10.9393Y-7.5519
X10.9393Y-7.6679
X10.9394Y-7.6107
X10.9458Y-7.329
X10.965Y-7.366
X10.9851Y-7.329
X10.9856Y-7.0551
X10.9856Y-7.0931
X10.9856Y-7.1318
X11.0Y-6.9764
X11.0Y-7.0144
X11.0178Y-7.4591
X11.0236Y-7.0551
X11.0236Y-7.0931
X11.0236Y-7.1318
X11.024Y-7.369
X11.026Y-7.328
X11.026Y-7.879
X11.038Y-6.9764
X11.038Y-7.0144
X11.0644Y-7.0551
X11.0644Y-7.0931
X11.0644Y-7.1318
X11.0766Y-6.9764
X11.0766Y-7.0144
X11.1024Y-7.0551
X11.1024Y-7.0931
X11.1024Y-7.1318
X11.1431Y-7.0551
X11.1431Y-7.0931
X11.1431Y-7.1318
X11.1811Y-7.0551
X11.1811Y-7.0931
X11.1811Y-7.1318
X11.2047Y-5.8583
X11.206Y-5.964
X11.206Y-6.004
X11.206Y-6.044
X11.206Y-6.082
X11.206Y-6.1206
X11.2079Y-7.6093
X11.208Y-6.194
X11.208Y-6.234
X11.208Y-6.274
X11.208Y-6.312
X11.208Y-6.3506
X11.21Y-7.5509
X11.21Y-7.6689
X11.246Y-6.436
X11.278Y-6.418
X11.278Y-6.455
X11.2961Y-7.4311
X11.2994Y-7.5499
X11.2994Y-7.6679
X11.308Y-6.436
X11.3283Y-7.6097
X11.368Y-7.405
X11.3714Y-6.7008
X11.3714Y-6.7388
X11.3714Y-6.7774
X11.388Y-6.208
X11.388Y-6.25
X11.388Y-6.298
X11.388Y-6.338
X11.4094Y-6.7008
X11.4094Y-6.7388
X11.4094Y-6.7774
X11.4431Y-6.8281
X11.4431Y-6.8661
X11.4514Y-5.84
X11.4514Y-5.876
X11.4514Y-5.914
X11.4514Y-5.952
X11.4514Y-5.99
X11.4514Y-6.026
X11.455Y-7.24
X11.4588Y-6.5998
X11.4588Y-6.6378
X11.4783Y-7.6094
X11.4803Y-6.4016
X11.4817Y-6.8281
X11.4817Y-6.8661
X11.49Y-5.84
X11.49Y-5.876
X11.49Y-5.914
X11.49Y-5.952
X11.49Y-5.99
X11.49Y-6.026
X11.4974Y-6.5998
X11.4974Y-6.6378
X11.514Y-7.404
X11.5197Y-6.8281
X11.5197Y-6.8661
X11.528Y-5.84
X11.528Y-5.876
X11.528Y-5.914
X11.528Y-5.952
X11.528Y-5.99
X11.528Y-6.026
X11.534Y-6.354
X11.5354Y-6.5998
X11.5354Y-6.6378
X11.568Y-5.84
X11.568Y-5.876
X11.568Y-5.914
X11.568Y-5.952
X11.568Y-5.99
X11.568Y-6.026
X11.5925Y-7.5546
X11.608Y-5.84
X11.608Y-5.876
X11.608Y-5.914
X11.608Y-5.952
X11.608Y-5.99
X11.6313Y-6.7087
X11.6313Y-6.7467
X11.6313Y-6.7853
X11.6457Y-7.628
X11.6693Y-6.7087
X11.6693Y-6.7467
X11.6693Y-6.7853
X11.6993Y-7.5719
X11.766Y-6.278
X11.7834Y-6.366
X11.7834Y-6.404
X11.784Y-6.554
X11.784Y-6.592
X11.7873Y-7.5579
X11.7913Y-4.4606
X11.822Y-6.366
X11.822Y-6.404
X11.8226Y-6.554
X11.8226Y-6.592
X11.8553Y-7.6159
X11.86Y-6.366
X11.86Y-6.404
X11.8606Y-6.554
X11.8606Y-6.592
X11.9Y-6.366
X11.9Y-6.404
X11.9006Y-6.554
X11.9006Y-6.592
X11.94Y-6.278
X11.94Y-6.366
X11.94Y-6.404
X11.9406Y-6.554
X11.9406Y-6.592
X11.9636Y-4.5054
T5
X7.1979Y-4.2198
X7.316Y-4.2198
X7.4341Y-4.2198
X11.6398Y-4.2244
X11.7579Y-4.2244
X11.876Y-4.2244
T6
X6.313Y-4.5548
X6.413Y-4.5548
X6.513Y-4.5548
X6.722Y-4.5538
X6.822Y-4.5538
X6.922Y-4.5538
T7
X4.472Y-5.596
X4.572Y-5.596
X4.672Y-5.596
X4.733Y-4.173
X4.772Y-5.596
X4.833Y-4.173
X4.872Y-5.596
X4.8819Y-6.4457
X4.8819Y-6.5457
X4.8819Y-6.6457
X4.933Y-4.173
X4.972Y-5.596
X6.6457Y-6.4467
X6.6457Y-6.5467
X6.6457Y-6.6467
X10.5472Y-4.7992
X10.5472Y-4.8992
X10.5472Y-4.9992
X10.5472Y-5.0992
X10.5472Y-5.1992
T8
X6.313Y-4.4513
X6.513Y-4.4513
X6.722Y-4.4503
X6.922Y-4.4503
T9
X4.7175Y-7.9395
X4.9144Y-7.9395
X6.0535Y-7.9395
X6.2504Y-7.9395
X6.582Y-7.9395
X6.7788Y-7.9395
X7.918Y-7.9395
X8.1148Y-7.9395
X8.4454Y-7.9394
X8.6423Y-7.9394
X9.7814Y-7.9394
X9.9783Y-7.9394
X10.3089Y-7.9399
X10.5057Y-7.9399
X11.6449Y-7.9399
X11.8417Y-7.9399
T10
X10.9909Y-4.4774
X11.1469Y-4.4774
T11
X6.3028Y-4.3485
X6.5232Y-4.3485
X6.7118Y-4.3475
X6.9322Y-4.3475
T12
X4.252Y-4.262
X4.252Y-7.9921
X12.2047Y-4.262
X12.2047Y-7.9921
T3
G00X5.1634Y-4.189
M15
G01X5.1634Y-4.2165
M16
G05
G00X5.1988Y-4.4134
M15
G01X5.1988Y-4.3858
M16
G05
G00X5.2776Y-4.5354
M15
G01X5.2776Y-4.5079
M16
G05
G00X5.4035Y-4.5079
M15
G01X5.4035Y-4.5354
M16
G05
G00X5.4665Y-4.4567
M15
G01X5.4665Y-4.4291
M16
G05
G00X5.5177Y-4.5354
M15
G01X5.5177Y-4.5079
M16
G05
G00X5.5295Y-4.189
M15
G01X5.5295Y-4.2165
M16
G05
T4
G00X7.0719Y-4.2493
M15
G01X7.0719Y-4.1902
M16
G05
G00X7.5641Y-4.2493
M15
G01X7.5641Y-4.1902
M16
G05
G00X11.5138Y-4.2539
M15
G01X11.5138Y-4.1949
M16
G05
G00X12.0059Y-4.2539
M15
G01X12.0059Y-4.1949
M16
G05
T7
G00X10.8917Y-4.3571
M15
G01X10.8917Y-4.298
M16
G05
G00X11.0945Y-4.3669
M15
G01X11.0433Y-4.3669
M16
G05
G00X11.1083Y-4.6032
M15
G01X11.0295Y-4.6032
M16
G05
G00X11.2461Y-4.3571
M15
G01X11.2461Y-4.298
M16
G05
T0
M30
